<svg xmlns="http://www.w3.org/2000/svg" viewBox="0 0 333.98 255.76"><defs><style>.cls-1{isolation:isolate;}.cls-2{fill:#00b8e5;}.cls-3{fill:#fff;}.cls-4{fill:#ebf5f7;}.cls-5{fill:#dae4e5;}.cls-10,.cls-11,.cls-12,.cls-20,.cls-22,.cls-28,.cls-29,.cls-34,.cls-35,.cls-36,.cls-37,.cls-38,.cls-39,.cls-41,.cls-6,.cls-8,.cls-9{fill:none;}.cls-6{stroke:#023d5f;stroke-width:2px;}.cls-28,.cls-38,.cls-39,.cls-41,.cls-6{stroke-miterlimit:10;}.cls-7{fill:#2b99ff;}.cls-10,.cls-11,.cls-12,.cls-20,.cls-8,.cls-9{stroke:#767f82;}.cls-10,.cls-11,.cls-12,.cls-20,.cls-22,.cls-29,.cls-34,.cls-35,.cls-36,.cls-37,.cls-8,.cls-9{stroke-linecap:round;stroke-linejoin:round;}.cls-9{stroke-dasharray:2.9 2.41;}.cls-10{stroke-dasharray:3.07 2.55;}.cls-11{stroke-dasharray:3.06 2.55;}.cls-12{stroke-dasharray:3.15 2.62;}.cls-13{fill:#fdd247;}.cls-14{fill:#fcded6;}.cls-15{fill:#71606e;}.cls-15,.cls-23{opacity:0.2;}.cls-15,.cls-23,.cls-30,.cls-33,.cls-48,.cls-49{mix-blend-mode:multiply;}.cls-16{fill:#fc9549;}.cls-17{fill:#fc5e49;}.cls-18{fill:#2085b7;}.cls-19{fill:#167f7f;}.cls-20{stroke-dasharray:3 2.5;}.cls-21{fill:#007fdd;}.cls-22,.cls-29{stroke:#00ebff;}.cls-24{fill:#ffb839;}.cls-25{fill:#ffad00;}.cls-26{fill:#00ebff;}.cls-27{fill:#dbe2e8;}.cls-28,.cls-34,.cls-35,.cls-36,.cls-37,.cls-41{stroke:#fff;}.cls-29,.cls-34,.cls-35,.cls-36,.cls-37,.cls-38{stroke-width:0.5px;}.cls-30,.cls-33,.cls-55{opacity:0.55;}.cls-31{fill:#ffe1b0;}.cls-31,.cls-56,.cls-59{mix-blend-mode:screen;}.cls-32,.cls-33{fill:#767f82;}.cls-35{stroke-dasharray:2.26 2.82;}.cls-36{stroke-dasharray:2.14 2.67;}.cls-37{stroke-dasharray:1.98 2.48;}.cls-38,.cls-39{stroke:#dbe2e8;}.cls-39,.cls-41{stroke-width:0.25px;}.cls-40{fill:#f39f86;}.cls-42{fill:#023d5f;}.cls-43{fill:#062f44;}.cls-44{fill:#16405a;}.cls-45{fill:#103649;}.cls-46{opacity:0.5;}.cls-47{fill:#3a3a3a;}.cls-48,.cls-50{fill:#ffe7c5;}.cls-51{fill:#ffc25b;}.cls-52{fill:#ffa92c;}.cls-53{fill:#0b0b3a;}.cls-54{fill:#ff703d;}.cls-57{fill:#afd4dd;}.cls-58{fill:#c5e6ef;}.cls-59{fill:#ffb27e;}.cls-60{fill:#db856e;}.cls-61{fill:#ed9c80;}</style></defs><title>bg-add-edit-article</title><g class="cls-1"><g id="Layer_2" data-name="Layer 2"><g id="OBJECTS"><rect class="cls-2" x="267.99" y="135.22" width="18.45" height="18.45" rx="3.9" transform="translate(-9.51 268.95) rotate(-50.99)"/><path class="cls-3" d="M275.41,136.82a14.17,14.17,0,0,1,3.59,2.89,2.83,2.83,0,0,1,.25,3.39,3.08,3.08,0,0,1-3.31,1.48,5.09,5.09,0,0,1-2.22-1.18l-.51-.42-2.16,2.66-1.68-1.36Zm-1.09,4.82a3.16,3.16,0,0,0,1.46,1,1.48,1.48,0,0,0,1.64-.72,1.27,1.27,0,0,0-.19-1.61,14.1,14.1,0,0,0-1.09-.9Z"/><path class="cls-3" d="M283,146.63l-1.19.88c-.28-.38-.55-.74-.84-1.08a1,1,0,0,0-.51-.35.67.67,0,0,0-.56.08.62.62,0,0,0-.12.55,7.1,7.1,0,0,0,.41.83,6.86,6.86,0,0,1,.48,1,2,2,0,0,1-2.23,2.63,3.81,3.81,0,0,1-2.3-1.23c-.42-.43-.77-.93-1.19-1.44l1.27-1c.45.54.87,1.07,1.31,1.57a.83.83,0,0,0,.44.24.69.69,0,0,0,.52-.12.73.73,0,0,0,.14-.56,3.08,3.08,0,0,0-.32-.66,8.83,8.83,0,0,1-.56-1.16,2,2,0,0,1,2-2.63A4.2,4.2,0,0,1,283,146.63Z"/><path class="cls-4" d="M291.76,88.68h-74.1c-11.17,0-11.31-13.86-1.39-16.65a19.42,19.42,0,0,1,17.44,3.69s2.69-34.06,28.2-30.06c20.11,3.15,18.94,25,18.94,25s4.14-9,15-5.6C307.16,68.66,305.93,88.68,291.76,88.68Z"/><ellipse class="cls-5" cx="159.73" cy="194.1" rx="95.74" ry="12.31"/><ellipse class="cls-5" cx="255.37" cy="201.08" rx="70.25" ry="15.32"/><path class="cls-4" d="M72.47,142.33H7.55c-9.79,0-9.91-11.14-1.22-13.37a18.08,18.08,0,0,1,15.28,3S24,104.56,46.32,107.77c17.61,2.54,16.59,20.12,16.59,20.12s3.63-7.23,13.13-4.5C86,126.25,84.88,142.33,72.47,142.33Z"/><path class="cls-4" d="M87.12,28h52.25c7.88,0,8-9,1-10.76a14.6,14.6,0,0,0-12.31,2.39s-1.89-22-19.88-19.44c-14.18,2-13.36,16.2-13.36,16.2s-2.92-5.83-10.57-3.63C76.26,15.08,77.13,28,87.12,28Z"/><path class="cls-5" d="M96.45,189.7c0,2.43-14,4.4-31.25,4.4S34,192.13,34,189.7s14-4.39,31.25-4.39S96.45,187.28,96.45,189.7Z"/><line class="cls-6" x1="45.78" y1="190.03" x2="55.63" y2="87.06"/><line class="cls-6" x1="85.02" y1="190.03" x2="75.18" y2="87.06"/><line class="cls-6" x1="54.84" y1="95.26" x2="75.96" y2="95.26"/><line class="cls-6" x1="53.66" y1="107.62" x2="77.14" y2="107.62"/><line class="cls-6" x1="52.48" y1="119.98" x2="78.33" y2="119.98"/><line class="cls-6" x1="51.3" y1="132.34" x2="79.51" y2="132.34"/><line class="cls-6" x1="50.12" y1="144.7" x2="80.64" y2="144.7"/><line class="cls-6" x1="48.93" y1="157.06" x2="81.83" y2="157.06"/><line class="cls-6" x1="47.75" y1="169.42" x2="83.04" y2="169.42"/><line class="cls-6" x1="46.57" y1="181.77" x2="83.84" y2="181.77"/><path class="cls-7" d="M76.46,87.67H54.35a1.27,1.27,0,0,1-1.28-1.27h0a1.28,1.28,0,0,1,1.28-1.28H76.46a1.27,1.27,0,0,1,1.27,1.28h0A1.27,1.27,0,0,1,76.46,87.67Z"/><line class="cls-8" x1="151.42" y1="188.77" x2="151.42" y2="190.27"/><path class="cls-9" d="M151.42,192.68v2.4a11.33,11.33,0,0,1-11.33,11.33H120.73a6.77,6.77,0,0,1-6.77-6.77v-7"/><line class="cls-8" x1="113.96" y1="191.42" x2="113.96" y2="189.92"/><line class="cls-8" x1="83.77" y1="191.17" x2="83.77" y2="192.67"/><path class="cls-10" d="M83.77,195.23v8.58A13.2,13.2,0,0,0,97,217h41.86a19.61,19.61,0,0,0,19.61-19.61V182.64"/><line class="cls-8" x1="158.44" y1="181.36" x2="158.44" y2="179.86"/><line class="cls-8" x1="94.02" y1="191.17" x2="94.02" y2="192.67"/><path class="cls-11" d="M94,195.22v8.59A13.2,13.2,0,0,0,107.22,217h14.29"/><line class="cls-8" x1="122.78" y1="217.02" x2="124.28" y2="217.02"/><line class="cls-8" x1="103.9" y1="191.17" x2="103.9" y2="192.67"/><path class="cls-12" d="M103.9,195.29v8.52A13.2,13.2,0,0,0,117.1,217h15.57"/><line class="cls-8" x1="133.98" y1="217.02" x2="135.48" y2="217.02"/><polygon class="cls-13" points="87.38 151.29 87.38 196.13 80.16 196.15 80.01 151.3 87.38 151.29"/><polygon class="cls-14" points="83.61 141.54 84.34 142.59 87.38 151.29 80.02 151.3 82.9 142.55 83.61 141.54"/><polygon class="cls-13" points="83.61 141.54 84.34 142.59 83.95 142.83 83.61 142.55 83.23 142.93 82.9 142.55 83.61 141.54"/><polygon class="cls-14" points="80.02 151.3 81.07 152.09 81.82 151.3 80.02 151.3"/><polygon class="cls-14" points="81.82 151.3 82.87 152.09 83.62 151.29 81.82 151.3"/><polygon class="cls-14" points="83.62 151.29 84.67 152.09 85.42 151.29 83.62 151.29"/><polygon class="cls-14" points="85.42 151.29 86.48 152.08 87.38 151.29 85.42 151.29"/><polygon class="cls-15" points="83.61 141.54 84.34 142.59 87.38 151.29 87.38 196.13 85.04 196.13 84.89 151.29 82.56 143.59 82.9 142.55 83.61 141.54"/><rect class="cls-13" x="80.16" y="195.65" width="7.22" height="1.33"/><polygon class="cls-16" points="97.49 151.29 97.49 196.13 90.28 196.15 90.12 151.3 97.49 151.29"/><polygon class="cls-14" points="93.72 141.54 94.45 142.59 97.49 151.29 90.13 151.3 93.02 142.55 93.72 141.54"/><polygon class="cls-16" points="93.72 141.54 94.45 142.59 94.07 142.83 93.72 142.55 93.35 142.93 93.02 142.55 93.72 141.54"/><polygon class="cls-14" points="90.13 151.3 91.18 152.09 91.93 151.3 90.13 151.3"/><polygon class="cls-14" points="91.93 151.3 92.99 152.09 93.73 151.29 91.93 151.3"/><polygon class="cls-14" points="93.73 151.29 94.79 152.09 95.54 151.29 93.73 151.29"/><polygon class="cls-14" points="95.54 151.29 96.59 152.08 97.49 151.29 95.54 151.29"/><polygon class="cls-15" points="93.72 141.54 94.45 142.59 97.49 151.29 97.49 196.13 95.15 196.13 95 151.29 92.67 143.59 93.02 142.55 93.72 141.54"/><rect class="cls-16" x="90.27" y="195.65" width="7.22" height="1.33"/><polygon class="cls-17" points="107.6 151.29 107.6 196.13 100.39 196.15 100.24 151.3 107.6 151.29"/><polygon class="cls-14" points="103.83 141.54 104.57 142.59 107.6 151.29 100.24 151.3 103.13 142.55 103.83 141.54"/><polygon class="cls-17" points="103.83 141.54 104.57 142.59 104.18 142.83 103.83 142.55 103.46 142.93 103.13 142.55 103.83 141.54"/><polygon class="cls-14" points="100.24 151.3 101.3 152.09 102.05 151.3 100.24 151.3"/><polygon class="cls-14" points="102.05 151.3 103.1 152.09 103.85 151.29 102.05 151.3"/><polygon class="cls-14" points="103.85 151.29 104.9 152.09 105.65 151.29 103.85 151.29"/><polygon class="cls-14" points="105.65 151.29 106.7 152.08 107.6 151.29 105.65 151.29"/><polygon class="cls-15" points="103.83 141.54 104.57 142.59 107.6 151.29 107.61 196.13 105.27 196.13 105.11 151.29 102.79 143.59 103.13 142.55 103.83 141.54"/><rect class="cls-17" x="100.39" y="195.65" width="7.22" height="1.33"/><polygon class="cls-7" points="117.72 151.29 117.72 196.13 110.5 196.15 110.35 151.3 117.72 151.29"/><polygon class="cls-14" points="113.95 141.54 114.68 142.59 117.72 151.29 110.36 151.3 113.24 142.55 113.95 141.54"/><polygon class="cls-18" points="113.95 141.54 114.68 142.59 114.29 142.83 113.95 142.55 113.57 142.93 113.24 142.55 113.95 141.54"/><polygon class="cls-14" points="110.36 151.3 111.41 152.09 112.16 151.3 110.36 151.3"/><polygon class="cls-14" points="112.16 151.3 113.21 152.09 113.96 151.29 112.16 151.3"/><polygon class="cls-14" points="113.96 151.29 115.02 152.09 115.76 151.29 113.96 151.29"/><polygon class="cls-14" points="115.76 151.29 116.82 152.08 117.72 151.29 115.76 151.29"/><polygon class="cls-15" points="113.95 141.54 114.68 142.59 117.72 151.29 117.72 196.13 115.38 196.13 115.23 151.29 112.9 143.59 113.24 142.55 113.95 141.54"/><rect class="cls-19" x="110.5" y="195.65" width="7.22" height="1.33"/><path class="cls-20" d="M283.69,211.24h45.63a4.16,4.16,0,0,1,4.16,4.16h0a4.16,4.16,0,0,1-4.16,4.16H185.68A13.66,13.66,0,0,1,172,205.89V189.7"/><path class="cls-20" d="M163.28,191.76v27.57a13.81,13.81,0,0,1-13.81,13.82h-4.86"/><path class="cls-20" d="M181.25,183.7v11.41a8.29,8.29,0,0,0,8.29,8.29h50"/><path class="cls-13" d="M218.54,38.19c-11.85-14.67-29.47-25.07-48.7-25.41-11.12-.19-22.84,1.28-32.77,6.58a74.28,74.28,0,0,0-22.48,18.83C104,51.34,97.85,68.48,99.69,85.27c1.54,14,8.47,26.88,17.62,37.41,8.93,10.27,21.95,18.74,24.18,33.24.64,4.14-.89,9.86,2.27,13.18,3.76,3.94,9.86,2.57,14.67,2.53q8.59-.07,17.17-.11c4.11,0,10.67,1.12,13.76-2.42,3.16-3.32,1.63-9,2.27-13.18,1.68-10.92,10.2-19.77,18-26.89,9-8.17,16.13-17.56,20.15-29.16C237.26,78.4,232.71,55.74,218.54,38.19Z"/><path class="cls-3" d="M163.13,184.14c0-7.47-.4-14.95-.65-22.42-.39-12-1-24.12-2.13-36.12-.66-7-1.85-14-4.64-20.48-1.77-4.11-4.91-9.27-9.88-9.71a7,7,0,0,0-7.58,6.81c-.06,5.38,5.1,10,9.94,11.38,5.61,1.57,13,.46,17.63-3.11,4.8-3.68,7.49-9.66,8.29-15.55.65-4.76.43-10.08-4.81-12-4.47-1.61-7.91,2.06-8.32,6.33-.43,4.46.82,9.29,2.56,13.36s4.72,8.58,9.39,9.58c6.38,1.38,13.49-2.18,17.86-6.62,3.3-3.34,8.22-9.84,4.78-14.6a6.71,6.71,0,0,0-7.12-2.19c-3.11.85-5.38,3.43-7.21,5.93-4.68,6.4-7,14.17-7.83,22-1,8.81-1,17.82-1.27,26.68s-.51,17.66-.72,26.49c-.1,4.63-.1,9.25-.12,13.88a.77.77,0,0,0,1.54,0c.84-14.35,1.14-28.71,1.66-43.07.51-13.79-.51-29.27,6.67-41.63,1.53-2.64,3.47-5.68,6.18-7.27,3.57-2.1,7.84-.16,6.83,4.29-1.18,5.25-6.41,10-11.1,12.27-4.9,2.33-10.65,2.92-14.43-1.49-2.77-3.24-4.27-7.61-5.05-11.75-.56-3-1.39-8.82,2.4-10.18,2-.7,4.31.67,5.38,2.29,1.24,1.89.86,4.91.61,7-.67,5.54-3.18,11.37-7.81,14.72-4.2,3-11.36,4.07-16.24,2.24-4.05-1.52-10.46-7.67-6.3-12.11,2.75-2.94,6.57-1.27,8.83,1.34,4,4.61,5.6,11.38,6.71,17.25a131.23,131.23,0,0,1,1.62,14.41c1.37,17.32,1.93,34.7,3.3,52a.52.52,0,0,0,1,0Z"/><rect class="cls-21" x="146.78" y="171.41" width="38.79" height="3.83"/><path class="cls-2" d="M187.81,188.48a2.26,2.26,0,0,1,.07-2.88l.24-.26a2.26,2.26,0,0,0,.1-2.84l-.39-.49a2.24,2.24,0,0,1,.17-2.92,2.24,2.24,0,0,0,.21-2.88l-1-1.39a2,2,0,0,0-1.61-.8H147a2,2,0,0,0-1.6.8l-1,1.39a2.25,2.25,0,0,0,.21,2.88,2.24,2.24,0,0,1,.18,2.92l-.39.49a2.26,2.26,0,0,0,.09,2.84l.25.26a2.26,2.26,0,0,1,.06,2.88l-.3.37a2.24,2.24,0,0,0,.11,2.92l.16.16a4.15,4.15,0,0,0,2.93,1.27h37.23a4.17,4.17,0,0,0,2.94-1.27l.16-.16a2.27,2.27,0,0,0,.11-2.92Z"/><line class="cls-22" x1="167.9" y1="179.21" x2="185.86" y2="179.21"/><line class="cls-22" x1="149.94" y1="179.21" x2="159.89" y2="179.21"/><line class="cls-22" x1="147.33" y1="183.61" x2="173.37" y2="183.61"/><line class="cls-22" x1="178.25" y1="183.61" x2="185.93" y2="183.61"/><line class="cls-22" x1="149.94" y1="188.01" x2="163.86" y2="188.01"/><line class="cls-22" x1="172.98" y1="188.01" x2="178.57" y2="188.01"/><line class="cls-22" x1="162.39" y1="179.21" x2="164.41" y2="179.21"/><g class="cls-23"><path class="cls-24" d="M218.54,38.19c-11.85-14.67-29.47-25.07-48.7-25.41-2.19,0-4.4,0-6.62.1,30.78,1.89,57.44,28.64,56.43,60.83-.84,27.06-14.06,46.36-41.38,58.19-5.72,2.47-9.82,6.25-10.73,12.8-.85,6.06,1.07,12.19-.19,18.23a5.12,5.12,0,0,1-1.12,2.52,5.52,5.52,0,0,1-2.24,1.26A40.46,40.46,0,0,1,143,168a6.7,6.7,0,0,0,.8,1.06c3.76,3.94,9.86,2.57,14.67,2.53q8.59-.07,17.17-.11c4.11,0,10.67,1.12,13.76-2.42,3.16-3.32,1.63-9,2.27-13.18,1.68-10.92,10.2-19.77,18-26.89,9-8.17,16.13-17.56,20.15-29.16C237.26,78.4,232.71,55.74,218.54,38.19Z"/></g><path class="cls-25" d="M325.63,196.92s-6-4.24-10.8-4.93c-9.49-1.35-14.92,2.4-20.05-.48-2.12-1.19,3.15-2,3.71-3.33a17.9,17.9,0,0,0,0-2,3.26,3.26,0,0,1-2.51.09c-9.61-3.46-17.77-3.13-31.73-3.13-31.21,0-57,5.62-60.77,12.88H203v1.94h0c.18,8.1,27.53,14.65,61.24,14.65,32.55,0,61-6.25,61.35-13.83Zm-40.3.88c-4.42,0-8-1.29-8-2.88s3.58-2.87,8-2.87,8,1.29,8,2.87S289.74,197.8,285.33,197.8Z"/><path class="cls-13" d="M325.54,196.13c-.82-3.24-5.88-5.16-10.71-5.85-9.49-1.35-14.92,2.41-20.05-.47-3-1.68,8.66-2.6,1.23-5.28-9.61-3.47-17.77-3.14-31.73-3.14-33.83,0-61.25,6.6-61.25,14.74s27.42,14.73,61.25,14.73S327.54,204.11,325.54,196.13Zm-40.21,0c-4.42,0-8-1.29-8-2.88s3.58-2.88,8-2.88,8,1.29,8,2.88S289.74,196.1,285.33,196.1Z"/><path class="cls-16" d="M236.83,197.73a3.5,3.5,0,0,0-1-1.11,10.69,10.69,0,0,0-3.08-1.7.57.57,0,0,0,.2-.76,1.2,1.2,0,0,0-.65-.52,8.3,8.3,0,0,0-3.78-.37,57.8,57.8,0,0,0-7.65.77c-1.17.23-2.49.66-3,1.82a2.36,2.36,0,0,0-.13,1.46,3.21,3.21,0,0,1-.94.28c-.31.1-.63.41-.53.75a.64.64,0,0,0,.22.32c2.36,2.39,5.8,3,8.92,3a32.46,32.46,0,0,0,10.12-1.46,2.17,2.17,0,0,0,1.41-.95A1.7,1.7,0,0,0,236.83,197.73Z"/><path class="cls-17" d="M260.38,189.64a3.58,3.58,0,0,0-1-1.1,10.69,10.69,0,0,0-3.08-1.7.57.57,0,0,0,.2-.76,1.2,1.2,0,0,0-.65-.52,8.18,8.18,0,0,0-3.78-.37,56,56,0,0,0-7.65.77c-1.17.23-2.49.66-3,1.81a2.32,2.32,0,0,0-.13,1.47,3.3,3.3,0,0,1-.94.28c-.31.1-.63.41-.53.74a.67.67,0,0,0,.22.33c2.35,2.39,5.8,2.95,8.92,3a32.8,32.8,0,0,0,10.12-1.46,2.12,2.12,0,0,0,1.4-1A1.69,1.69,0,0,0,260.38,189.64Z"/><path class="cls-26" d="M303,201.6a3.09,3.09,0,0,0-.86-.94,9.38,9.38,0,0,0-2.64-1.46c.22-.08.28-.42.17-.65a1,1,0,0,0-.56-.44,7,7,0,0,0-3.23-.32,47.81,47.81,0,0,0-6.55.66,3.26,3.26,0,0,0-2.57,1.55,2,2,0,0,0-.11,1.26,3.16,3.16,0,0,1-.81.24c-.27.08-.54.35-.46.64a.64.64,0,0,0,.19.27c2,2.05,5,2.53,7.64,2.54a28,28,0,0,0,8.67-1.25,1.86,1.86,0,0,0,1.2-.81A1.44,1.44,0,0,0,303,201.6Z"/><path class="cls-3" d="M270.24,202.65a3.58,3.58,0,0,0-1-1.11,11.07,11.07,0,0,0-3.08-1.7.56.56,0,0,0,.2-.75,1.21,1.21,0,0,0-.65-.53,8.33,8.33,0,0,0-3.78-.37,56,56,0,0,0-7.65.78,3.77,3.77,0,0,0-3,1.81,2.31,2.31,0,0,0-.13,1.47,3.76,3.76,0,0,1-.94.27c-.31.1-.63.41-.54.75a.8.8,0,0,0,.22.32c2.36,2.39,5.8,2.95,8.92,3a32.85,32.85,0,0,0,10.13-1.45,2.22,2.22,0,0,0,1.4-1A1.67,1.67,0,0,0,270.24,202.65Z"/><path class="cls-5" d="M83.65,237.4c0,1.62-11.15,2.93-24.92,2.93S33.81,239,33.81,237.4s11.16-2.93,24.92-2.93S83.65,235.78,83.65,237.4Z"/><path class="cls-27" d="M31.94,227a18.83,18.83,0,0,1-1-15.81,19.46,19.46,0,0,1,5.59-7.85,21.3,21.3,0,0,1,7.61-3.7,18.72,18.72,0,0,1,14.15,1.63,20.08,20.08,0,0,1,7.77,9.05c1.65,3.56,2.35,8,5.9,10.28,1,.66,2.7.93,3.2,2.15.6,1.46-.48,2.9-1.06,4.16-.69,1.5-1.37,3-2.05,4.51-.49,1.08-1,2.94-2.26,3.34s-2.57-.64-3.74-1c-3.07-.85-6.41.35-9.2,1.58a20.39,20.39,0,0,1-10,1.87A18.43,18.43,0,0,1,31.94,227Z"/><path class="cls-28" d="M74.42,228.34s-9.9-4.89-14.63-7.57a21.39,21.39,0,0,1-4.29-3c-1.11-1-3.36-3.32-1.91-4.86,1.7-1.82,3.7,1.15,3.69,2.8A6.3,6.3,0,0,1,55,219.94c-2,1.41-5,1.05-6.94-.12a1.59,1.59,0,0,1,1-2.92c1.53.1,5.86,3.34,4.86,5.94a5.86,5.86,0,0,1-3,3.09c-2.37,1.16-5.44-1.84-2.11-2.91,2.36-.76,5.39,0,7.61.92,6.07,2.35,10.77,4.37,16.8,6.84"/><rect class="cls-21" x="68.09" y="228.58" width="11.19" height="1.1" transform="translate(312.92 255.53) rotate(114.12)"/><path class="cls-2" d="M75.12,236.61a.64.64,0,0,0-.76-.32l-.1,0a.65.65,0,0,1-.76-.3l-.08-.17a.65.65,0,0,0-.79-.29.66.66,0,0,1-.79-.29l-.24-.43a.59.59,0,0,1,0-.52l4.54-10.15a.6.6,0,0,1,.4-.33l.49-.11a.66.66,0,0,1,.74.4.64.64,0,0,0,.74.39l.18-.05a.67.67,0,0,1,.74.36l0,.1a.65.65,0,0,0,.75.36l.13,0a.63.63,0,0,1,.75.37l0,.06a1.24,1.24,0,0,1,0,.93l-4.39,9.8A1.22,1.22,0,0,1,76,237l-.06,0a.66.66,0,0,1-.79-.31Z"/><line class="cls-29" x1="75.03" y1="230.28" x2="72.91" y2="235.01"/><line class="cls-29" x1="77.15" y1="225.55" x2="75.97" y2="228.17"/><line class="cls-29" x1="78.61" y1="225.38" x2="75.54" y2="232.24"/><line class="cls-29" x1="74.97" y1="233.52" x2="74.06" y2="235.54"/><line class="cls-29" x1="79.46" y1="226.59" x2="77.82" y2="230.25"/><line class="cls-29" x1="76.75" y1="232.65" x2="76.09" y2="234.13"/><line class="cls-29" x1="75.68" y1="228.83" x2="75.44" y2="229.36"/><g class="cls-30"><path class="cls-27" d="M31.94,227a18.83,18.83,0,0,1-1-15.81c.25-.58.52-1.16.81-1.73-3.14,8.32.76,18.5,9.36,22,7.22,3,13.86,1.77,20.19-4A4.62,4.62,0,0,1,66,226.11c1.69.5,3.08,1.72,4.82,2.1a1.45,1.45,0,0,0,.8,0,1.69,1.69,0,0,0,.59-.44A11.67,11.67,0,0,0,75,222.4a1.74,1.74,0,0,1,.18.33c.6,1.46-.48,2.9-1.06,4.16-.69,1.5-1.37,3-2.05,4.51-.49,1.08-1,2.94-2.26,3.34s-2.57-.64-3.74-1c-3.07-.85-6.41.35-9.2,1.58a20.5,20.5,0,0,1-10,1.87A18.43,18.43,0,0,1,31.94,227Z"/></g><path class="cls-5" d="M268,231.58c0,1.27-8.76,2.3-19.57,2.3s-19.57-1-19.57-2.3,8.76-2.3,19.57-2.3S268,230.31,268,231.58Z"/><path class="cls-27" d="M268.44,224.77a14,14,0,0,0,.95-11.71,14.46,14.46,0,0,0-4-5.91,15.87,15.87,0,0,0-5.59-2.86,13.94,13.94,0,0,0-10.51,1,14.89,14.89,0,0,0-5.91,6.6c-1.27,2.61-1.86,5.88-4.53,7.53-.76.47-2,.65-2.4,1.55-.47,1.07.31,2.16.72,3.1.49,1.13,1,2.25,1.45,3.38.35.8.67,2.19,1.63,2.5s1.92-.43,2.79-.65c2.29-.58,4.74.36,6.8,1.31a14.9,14.9,0,0,0,7.42,1.54A13.62,13.62,0,0,0,268.44,224.77Z"/><path class="cls-28" d="M236.92,225.13s7.42-3.48,11-5.39a15.59,15.59,0,0,0,3.23-2.13c2.17-1.86,2-3.28,1.1-3.82-1.13-.67-2.38.6-2.4,2.28a4.68,4.68,0,0,0,1.66,3.13,5,5,0,0,0,5.15,0c.71-.42.95-2.25-.68-2.17-1.14.05-4.4,2.38-3.7,4.33a4.39,4.39,0,0,0,2.15,2.34,4.64,4.64,0,0,0,2.93.37c1.67-.51-.11-2.18-1-2.43a9.85,9.85,0,0,0-6,.49c-4.55,1.66-8.06,3.08-12.57,4.82"/><rect class="cls-21" x="233.3" y="225.32" width="8.3" height="0.82" transform="translate(352.74 -80.94) rotate(67.05)"/><path class="cls-2" d="M236.27,231.26a.48.48,0,0,1,.57-.23l.07,0a.49.49,0,0,0,.57-.22l.07-.12a.48.48,0,0,1,.59-.21.47.47,0,0,0,.58-.2l.19-.32a.4.4,0,0,0,0-.38l-3.21-7.6a.45.45,0,0,0-.29-.25l-.36-.08a.47.47,0,0,0-.55.28.49.49,0,0,1-.56.28l-.13,0a.49.49,0,0,0-.56.26l0,.06a.48.48,0,0,1-.56.26l-.1,0a.46.46,0,0,0-.56.26l0,.05a.89.89,0,0,0,0,.68l3.11,7.34a.87.87,0,0,0,.49.47l0,0a.48.48,0,0,0,.58-.22Z"/><line class="cls-29" x1="236.44" y1="226.56" x2="237.94" y2="230.1"/><line class="cls-29" x1="234.94" y1="223.02" x2="235.77" y2="224.98"/><line class="cls-29" x1="233.85" y1="222.87" x2="236.03" y2="228"/><line class="cls-29" x1="236.43" y1="228.97" x2="237.07" y2="230.48"/><line class="cls-29" x1="233.2" y1="223.75" x2="234.37" y2="226.5"/><line class="cls-29" x1="235.13" y1="228.29" x2="235.59" y2="229.4"/><line class="cls-29" x1="235.98" y1="225.47" x2="236.15" y2="225.87"/><g class="cls-30"><path class="cls-27" d="M268.44,224.77a14,14,0,0,0,.95-11.71c-.18-.44-.37-.87-.57-1.3a13,13,0,0,1-7.28,16.2c-5.4,2.09-10.31,1.09-14.92-3.3a3.41,3.41,0,0,0-3.42-1c-1.26.34-2.31,1.23-3.6,1.48a1.07,1.07,0,0,1-.59,0,1.19,1.19,0,0,1-.44-.33,8.72,8.72,0,0,1-2-4,.89.89,0,0,0-.14.25c-.47,1.07.31,2.16.72,3.1.49,1.13,1,2.25,1.45,3.38.35.8.67,2.19,1.63,2.5s1.92-.43,2.79-.65c2.29-.58,4.74.36,6.8,1.31a14.9,14.9,0,0,0,7.42,1.54A13.62,13.62,0,0,0,268.44,224.77Z"/></g><path class="cls-31" d="M111.19,88.51a3.89,3.89,0,0,1-3.89-3.86c-.14-18.26,5.5-28.36,11.62-36.56a3.89,3.89,0,0,1,6.23,4.65c-4.94,6.62-10.2,15.09-10.07,31.85a3.89,3.89,0,0,1-3.86,3.92Z"/><path class="cls-31" d="M134.61,41.06a3.82,3.82,0,0,1-2.42-.85,3.89,3.89,0,0,1-.62-5.46,15.5,15.5,0,0,1,3.91-3.57,3.89,3.89,0,0,1,4,6.67,8.27,8.27,0,0,0-1.82,1.75A3.89,3.89,0,0,1,134.61,41.06Z"/><path class="cls-5" d="M150.39,251c0,2.61-11.62,4.72-26,4.72S98.48,253.65,98.48,251s11.62-4.73,26-4.73S150.39,248.43,150.39,251Z"/><path class="cls-32" d="M141.56,240.15H118.89l11.31-3.69h23l-.09.24-10.92,3.35A2.17,2.17,0,0,1,141.56,240.15Z"/><path class="cls-27" d="M141.26,239.76H119.11l11.09-3.3h22.47l-10.8,3.2A1.77,1.77,0,0,1,141.26,239.76Z"/><path class="cls-33" d="M139.45,239.2h-14.7l7.37-2.19H147l-7.17,2.13A1.4,1.4,0,0,1,139.45,239.2Z"/><path class="cls-32" d="M153.19,236.46h-23l2.9-12.71a1.09,1.09,0,0,1,1.05-.71h20.72a1,1,0,0,1,1,1.25Z"/><path class="cls-32" d="M152.67,236.46H130.2l2.9-12.71a1.09,1.09,0,0,1,1.05-.71h20.21a1,1,0,0,1,1,1.25Z"/><path class="cls-27" d="M151.68,235.67H131.41l2.6-11.83h20.28Z"/><polyline class="cls-34" points="149.59 233.14 149.37 234.12 148.37 234.12"/><line class="cls-35" x1="145.55" y1="234.12" x2="136.81" y2="234.12"/><polyline class="cls-34" points="135.4 234.12 134.4 234.12 134.62 233.14"/><polyline class="cls-36" points="135.19 230.53 136.33 225.39 136.33 225.38 148.96 225.38"/><polyline class="cls-34" points="150.3 225.38 151.3 225.38 151.08 226.36"/><line class="cls-37" x1="150.55" y1="228.78" x2="149.85" y2="231.93"/><line class="cls-38" x1="124.75" y1="238.6" x2="143.19" y2="238.6"/><line class="cls-39" x1="128.15" y1="237.66" x2="146.59" y2="237.66"/><path class="cls-40" d="M122.84,237.43a6.62,6.62,0,0,1,3.12-.93,16.69,16.69,0,0,1,3,0c.57,0,.43.7-.07.78a6.2,6.2,0,0,1-1.72,0,2.72,2.72,0,0,1-1.51,1,5.9,5.9,0,0,1-1.83.17c-.17,0-.39,0-.43-.21"/><line class="cls-41" x1="147.05" y1="229.8" x2="142.84" y2="225.59"/><path class="cls-3" d="M147,229.76a.21.21,0,1,1,0,.29A.21.21,0,0,1,147,229.76Z"/><path class="cls-3" d="M145.43,231.2a.21.21,0,1,1,0,.29A.21.21,0,0,1,145.43,231.2Z"/><path class="cls-3" d="M141.05,226.82a.21.21,0,1,1,0,.29A.21.21,0,0,1,141.05,226.82Z"/><path class="cls-3" d="M142.69,225.44a.21.21,0,1,1,0,.29A.21.21,0,0,1,142.69,225.44Z"/><path class="cls-41" d="M141.2,227a3.31,3.31,0,0,1,4.37,4.38"/><path class="cls-3" d="M142.17,228.06l2.72-.42-2.1,2.26a.61.61,0,0,0-.86,0,.6.6,0,0,0,0,.86.62.62,0,0,0,.87,0,.6.6,0,0,0,0-.86h0l2.19-2.16s-.32,1.88-.42,2.82a31.76,31.76,0,0,0-3.3,2c-.11.08-1.25-1.1-1.2-1.16C140.78,230.51,142.17,228.06,142.17,228.06Z"/><path class="cls-3" d="M139.23,231.3l.45-.45a.21.21,0,0,1,.31,0l1.84,1.83a.23.23,0,0,1,0,.3h0l-.46.46a.21.21,0,0,1-.31,0l-1.83-1.84A.21.21,0,0,1,139.23,231.3Z"/><path class="cls-42" d="M106,239a45.36,45.36,0,0,0-.66,4.51c-.45,2.42-.62,5.22,1,7.07a4.79,4.79,0,0,0,4,1.87c1.5,0,3-.25,4.5-.29,1,0,4.11.25,5.12.29,4.5.18,7-.82,11.51-1.37a106,106,0,0,0,11.71-2.35c11.54-3.16,7.36-7.81,4.81-8.56-.56-.16-3.07-1-3.07-1l-3.37,1h-11.8a56.55,56.55,0,0,1-7-.73"/><path class="cls-40" d="M139.65,232.67a6.8,6.8,0,0,1,.71.48,8.82,8.82,0,0,0,1.6.79l1.62.65a1,1,0,0,1,.32.18.94.94,0,0,1,.19.48,11.85,11.85,0,0,1,.22,5.24,6.91,6.91,0,0,1-.95-1.9,2,2,0,0,0-.44-.92,3.06,3.06,0,0,0-.52-.33A5.57,5.57,0,0,1,141,236a.9.9,0,0,1-.23-.43.47.47,0,0,0,0-.17.28.28,0,0,0-.12-.12l-2-1.28"/><path class="cls-7" d="M107.94,239c-.93-.68-1.94-1.45-2.9-2.25-2.19-1.84-4.14-3.84-4.39-5.29-.53-3.26-.11-13,.15-17.52,0-.28,0-.54,0-.78.26-4.32,2.58-6.23,3.74-6.94.6,5.62,1.93,18.3,2,18.95C106.76,226,107.94,239,107.94,239Z"/><path class="cls-21" d="M107.94,239c-.92-.68-1.93-1.45-2.9-2.25-.08-3.58-1.38-2.8-2.87-9a41.63,41.63,0,0,1-.43-15.08l3.57.54c.59,5.56,1.24,11.56,1.31,12C106.77,226,107.94,239,107.94,239Z"/><path class="cls-40" d="M110.17,203.74a12.18,12.18,0,0,0,.43-4.5c-.34-1.91-1.49-5.35-1.06-7.93s3.68-4.73,7.12-4.4,4.45,3.63,5,5.54a20,20,0,0,1,.34,6.41,4.46,4.46,0,0,1-1.58,3.15c-.57.33-2.73-.11-3.11.31a10.19,10.19,0,0,0-.67,2.84"/><path class="cls-7" d="M108.54,205.79a4.33,4.33,0,0,1,.77-2c.57-.53,4.39-.53,5.54-.39a17.47,17.47,0,0,1,4.35,1.74c.37.28-.37,1.73-.37,1.73Z"/><path class="cls-42" d="M110.31,200.48s4.78.41,5.69,0a3.62,3.62,0,0,0,2.34-2.91c.12-1.63-.22-2.13.4-3s1.17-.6,1.27.27.13,2.41.36,2.52.66-.94.55-2.6a10.23,10.23,0,0,0-.7-3.51c-.43-1-.66-.9-1-1.07a3,3,0,0,0,1.7-1.52,2.37,2.37,0,0,0-2.1-3.81c-4.43,0-9.13.88-9.23,4.16,0,0-1.55-.24-1.6,2.74s1.87,6.6,2,7.53S109.83,200.27,110.31,200.48Z"/><path class="cls-7" d="M123.59,235.59c.18,1.5,1.49,3.81.59,4.14a17.55,17.55,0,0,1-3.61-.11h-.13c-1.59-.13-3.4-.31-4.92-.43-6.08-.26-9.18,1-9.79.61-.29-.17-.3-.7-.21-1.24a14,14,0,0,0,.1-4c-.15-1.13-.36-2.47-.65-4-1-5.33-3-13.46-3.26-18.35-.47-7.66,7.74-6.93,7.74-6.93,10.45-.66,15.35,2.35,15.92,6.84q.06.48.09,1c.27,4.63-1.14,12.1-1.81,17.69A27.64,27.64,0,0,0,123.59,235.59Z"/><path class="cls-21" d="M123.59,235.59c.18,1.5,1.49,3.81.59,4.14a17.55,17.55,0,0,1-3.61-.11c1.62.12,1.92-1.12,1.56-2a11.74,11.74,0,0,1-1-4.95c.08-2.22.91-7.23,1.41-12a38.77,38.77,0,0,0,0-8.31c.25.5,1,1.2,3,1.67,0,4.66-1.23,11.48-1.85,16.67A27.64,27.64,0,0,0,123.59,235.59Z"/><path class="cls-7" d="M118.45,206.25s4.79-.38,6.9,1.39c1.68,1.41,4.91,19.28,4.91,19.28l-4.47,1.85s-4.87-12.21-6.14-12"/><path class="cls-7" d="M125.61,228.33c1.52,4.81,13.92,6.63,13.92,6.63l.69-2.21s-7.57-5.64-10.3-6.41"/><path class="cls-43" d="M141.62,240.34c1.1.06,2.22.25,3.32.24.13,0,.17-.21,0-.24a26.69,26.69,0,0,0-3.35-.25c-.15,0-.15.24,0,.25Z"/><path class="cls-43" d="M138.73,249.61c-4.12-.2-8.18.77-12.25,1.37s-8.39.79-12.15-.89a1.53,1.53,0,0,0-2,.23,6,6,0,0,1-2.22,1.08,5.53,5.53,0,0,1-2.63-.24.5.5,0,0,0-.34,0s0,0,0,.06a4.83,4.83,0,0,0,3.29,1.23c1.5,0,3-.25,4.5-.29,1,0,4.11.25,5.12.29,4.5.18,7-.82,11.51-1.37,1.85-.23,4.61-.73,7.17-1.28A.58.58,0,0,0,138.73,249.61Z"/><path class="cls-7" d="M254.73,85.82a6.46,6.46,0,0,0-2-.93c-1-.29-.51-1.06-1.58-.87-2,.34-6.75,1.28-9.6,2.07h-.08c-1.43.35-1.92,0-1.92,0l-.6.68L239,87a2.28,2.28,0,0,0-.88,1.65c0,.15-.17.73-.23,1.3s-.06,1,.17,1.24h0l.08,0a8.12,8.12,0,0,0,2.64.37,66.8,66.8,0,0,0,8.31-.8c2-.28,4-.54,5.19-.67a2.19,2.19,0,0,0,1.26-.57,1.93,1.93,0,0,0,.62-1.07A2.7,2.7,0,0,0,254.73,85.82Z"/><path class="cls-7" d="M241.23,90a2.12,2.12,0,0,1-.31.58c-.06.08-.12.14-.18.21-2.11,2.11-4.78,0-6.32-1.25-2.2-1.77-4.8-4.87-6.85-6.81-.06-.06-.82-.71-.74-.82l1.89-2.47s5.06,4.59,8,5.63a19.31,19.31,0,0,1,3.47,1.41l.31.21A3.59,3.59,0,0,1,241.23,90Z"/><path class="cls-21" d="M249.14,90.82a66.8,66.8,0,0,1-8.31.8,8.12,8.12,0,0,1-2.64-.37l-.08,0h0c-2-.83-3.16-2.67-.17-1.24a9.77,9.77,0,0,0,1.69.68,6.61,6.61,0,0,0,1.12.11h.17C243.67,90.74,251.74,84.69,249.14,90.82Z"/><path class="cls-7" d="M262.36,102.52a8.52,8.52,0,0,0-.39,4.92c.73,3.26-.1,3.48-.1,3.48a41.53,41.53,0,0,1-8.1,4c-2.63.82-4.88.69-4.82-2.22v0c0-.18,0-.35,0-.51.12-6.55-1.24-6.88-1.58-14.2-.34-7.52-.27-12,2.14-13.18a15.94,15.94,0,0,1,11.34-1c3.84.91,5.11,1.93,5.08,4.77a22.37,22.37,0,0,1-.42,3.5A62.67,62.67,0,0,1,262.36,102.52Z"/><path class="cls-21" d="M262.36,102.52a8.52,8.52,0,0,0-.39,4.92c.73,3.26-.1,3.48-.1,3.48a41.53,41.53,0,0,1-8.1,4l-3.43-.32L249,113.47v-.86c0-.18,0-.35,0-.51a26.12,26.12,0,0,0,5.19-.14,22,22,0,0,0,5.09-1.27,2,2,0,0,0,1.25-2.21,28.83,28.83,0,0,1-.48-4.56,24.47,24.47,0,0,1,1.22-5.63,11.28,11.28,0,0,0,.46-4.16,36.67,36.67,0,0,1,0-4.75l2.72-1.47,1.52.56a22.37,22.37,0,0,1-.42,3.5A62.67,62.67,0,0,1,262.36,102.52Z"/><path class="cls-42" d="M250.72,72.65a6.48,6.48,0,0,1-1.46-4.59,3.6,3.6,0,0,1,3-3.68c1.3-.31,3.14.66,4.46,2.13,4.11.35,5.45,3.18,5.61,6.39l-4.83-1.08Z"/><path class="cls-40" d="M261.45,74.71a7.88,7.88,0,0,1-3.27,5.82l.22,3.35-2.15,1.39-1.47,1-.84-1.76-.12-2.17a1.11,1.11,0,0,0-.88-1A4.07,4.07,0,0,1,250.85,80a1,1,0,0,1-.13-.16h0c-1.39-1.9-1.92-9.17,2.85-11.23S261.55,71,261.45,74.71Z"/><path class="cls-44" d="M253.08,86.42s-2.11,13.07-1.31,19.33l1.47,2.67,1.61-2.91s-1.54-10.92-.69-18.87Z"/><path class="cls-45" d="M252.8,85.31l0,.17a3.36,3.36,0,0,0,.26.94h0l1.08.22.94-.7L254,84.69l-.17,0a2.38,2.38,0,0,0-1,.57Z"/><path class="cls-21" d="M258.37,82.32a3.26,3.26,0,0,1,1,1.06,13,13,0,0,0-1.32.69c-.56.34-3.27,2.26-3.27,2.26L254,84.69A21.37,21.37,0,0,1,258.37,82.32Z"/><path class="cls-21" d="M254,84.69a2.29,2.29,0,0,0-1.24,1,3.38,3.38,0,0,1,.13-2.58,4.16,4.16,0,0,1,.92-.66Z"/><g class="cls-46"><path class="cls-5" d="M238.69,175c0,1.55,9.45,2.8,21.1,2.8s21.11-1.25,21.11-2.8-9.45-2.8-21.11-2.8S238.69,173.5,238.69,175Z"/></g><path class="cls-40" d="M249.81,171.36a4.62,4.62,0,0,0-.33,1.59c.05.64,2.06.68,2.29.35a17.07,17.07,0,0,0,.35-3.22"/><path class="cls-47" d="M252.3,173.86a13.6,13.6,0,0,1-.18,1.73H249.8l-.11-.38a3.76,3.76,0,0,1-1.35.38h-2c-1.44,0-2.25-.18-2.29-.43-.15-1,1.56-1,2-1,1.28,0,2.67-.6,3-1.25.22-.47.12-.59.38-.5a.66.66,0,0,1,.4.34,1.18,1.18,0,0,0,1.21.66,1.45,1.45,0,0,0,.79-.37A.83.83,0,0,1,252.3,173.86Z"/><path class="cls-40" d="M272.37,169.18a20.1,20.1,0,0,0,.7,2.26c.28.57,2.17-.13,2.26-.52a17.44,17.44,0,0,0-.87-3.13"/><path class="cls-47" d="M276,171.24c.25.61.61,1.8.61,1.8l-1.76,1.05-.34-.26a3.5,3.5,0,0,1-.93,1,7.35,7.35,0,0,1-1.74.72c-1.6.37-2.84.19-3,0-.53-.92,1.6-1.43,2-1.59a2.88,2.88,0,0,0,1.77-2.35c0-.51-.1-.59.18-.61a.64.64,0,0,1,.49.18,1.19,1.19,0,0,0,1.37.16,1.36,1.36,0,0,0,.59-.64A.84.84,0,0,1,276,171.24Z"/><path class="cls-42" d="M264.22,123.94s3.15-7.54-2.35-13a30.3,30.3,0,0,1-8.44,2.35,18.85,18.85,0,0,1-4.46-.1,95,95,0,0,0-.3,14.1Z"/><path class="cls-42" d="M252.4,172.09h-.28a15.92,15.92,0,0,1-3.07-.21v-.57c.11-8.64-.94-22.75-1.14-27.22a4.66,4.66,0,0,1,0-.85c.34-3.27,3.71-2.84,5.13.16a12.07,12.07,0,0,1,.8,2.31,21.17,21.17,0,0,1,.52,3.26C255.05,156.44,253,166.52,252.4,172.09Z"/><path class="cls-42" d="M258.25,127.43c0,.08,0,.18-.05.27-.75,3.94-3.17,14.56-4.33,18h0a2.1,2.1,0,0,1-1.49,1.09c-1.69.46-4.23-.17-4.44-3.56a8.35,8.35,0,0,1,0-1.22c.22-2.75.83-18,1-19.42s.38-3.6,1.16-3.88C253.92,117.4,259.26,121.93,258.25,127.43Z"/><path class="cls-43" d="M254.65,143.07c1.24-4.6,2.94-12.18,3.55-15.37l-.82-3.64-4-4.74-2.2-.31a41.18,41.18,0,0,0,2.94,12.86s0,8.08-1.09,11.54l-.95,2.66s.11.26.26.74a24.18,24.18,0,0,1,1,10.35c-.79,6.12-1.27,14.94-1.27,14.94h.28c.56-5.38,2.51-15,2-22.33a3.3,3.3,0,0,0-.06-.78,18.89,18.89,0,0,1,.26-5.91Z"/><path class="cls-42" d="M266,143.19c-2.62-2.46-6.25-1.29-4.56,2.52,1.82,4.09,7.44,15.42,10.49,23.51l.21.52a16.61,16.61,0,0,0,3.19-1c-1.45-5.25-2.51-14.29-5.52-20.59A17.12,17.12,0,0,0,266,143.19Z"/><path class="cls-42" d="M251.21,119c-.5-6.07,7.07-2,10.7,0a5.14,5.14,0,0,1,2.29,4.12c.21,1.59,2.17,18,2.56,21,.89,6.74-5,3-5.54,1.19C259.81,140.53,251.49,122.32,251.21,119Z"/><path class="cls-42" d="M266.24,139.88a16.27,16.27,0,0,0,2.95,7.19,51.86,51.86,0,0,1-4.64-2.34,16.63,16.63,0,0,1-.91-3.76C263.73,140.64,266.24,139.88,266.24,139.88Z"/><path class="cls-3" d="M214.46,65.13c3.39-2.07,4.37-4.06,4.37-4.06a7.69,7.69,0,0,0,.08-1.28,5.34,5.34,0,0,0-3.3-5.3c-4.11-1.51-6.76,1.28-9.6-3.64a.31.31,0,0,1,0,.07C206.75,55.52,206,65.16,214.46,65.13Z"/><path class="cls-48" d="M214.46,65.13c3.39-2.07,4.37-4.06,4.37-4.06a7.69,7.69,0,0,0,.08-1.28c-9.47,8.93-12.66-7.61-12.88-8.87C206.75,55.52,206,65.16,214.46,65.13Z"/><g class="cls-49"><path class="cls-50" d="M206,50.92a8.92,8.92,0,0,0,2.7,3.54,6.43,6.43,0,0,0,1.9,1.08,9.6,9.6,0,0,0,2.17.44,9.41,9.41,0,0,1,2.28.49,4.51,4.51,0,0,1,1.9,1.44,4.44,4.44,0,0,1,.46,4.45,4.59,4.59,0,0,0-.84-4.15A4.11,4.11,0,0,0,214.88,57a12.33,12.33,0,0,0-2.16-.44,10.82,10.82,0,0,1-2.27-.53,7,7,0,0,1-2-1.27A7.92,7.92,0,0,1,206,50.92Z"/></g><g class="cls-49"><path class="cls-50" d="M206,50.92a14.3,14.3,0,0,0,1.7,3.85,9.59,9.59,0,0,0,2.86,2.95,14.09,14.09,0,0,0,1.86,1,10.2,10.2,0,0,1,1.86,1.14,5.2,5.2,0,0,1,1.39,1.7,4.11,4.11,0,0,1,.38,2.12A4.6,4.6,0,0,0,214,60.2a9.66,9.66,0,0,0-1.8-1,10,10,0,0,1-1.93-1A9.17,9.17,0,0,1,207.37,55,11.11,11.11,0,0,1,206,50.92Z"/></g><path class="cls-21" d="M269.29,125.85a2,2,0,0,1-.64-.14c-2.44-.95-3.08-6.45-3.14-7.07l-.07-.71.68.22c.6.19,5.89,2,6.39,4.45a2.34,2.34,0,0,1-1,2.27A3.2,3.2,0,0,1,269.29,125.85Zm-2.76-6.57c.29,1.84,1.06,5,2.46,5.56.54.21,1.19,0,1.93-.67a1.47,1.47,0,0,0,.68-1.38C271.31,121.34,268.3,119.94,266.53,119.28Z"/><rect class="cls-51" x="239.09" y="55.44" width="5.97" height="72.86" transform="translate(-0.05 183.61) rotate(-41.53)"/><rect class="cls-52" x="214.27" y="62.76" width="5.97" height="2.08" transform="translate(12.32 160.09) rotate(-41.53)"/><rect class="cls-16" x="239.09" y="55.44" width="5.97" height="72.86" transform="translate(-0.05 183.61) rotate(-41.53)"/><rect class="cls-53" x="214.27" y="62.76" width="5.97" height="2.08" transform="translate(12.32 160.09) rotate(-41.53)"/><polygon class="cls-15" points="265.65 119.63 263.96 121.13 215.71 66.55 214.33 64.99 216.02 63.49 217.4 65.04 265.65 119.63"/><rect class="cls-21" x="262.83" y="118.15" width="5.97" height="1.16" transform="translate(-11.89 206.1) rotate(-41.53)"/><path class="cls-40" d="M259.77,113l-1.57-1.3s-.59.77-.89.86a2,2,0,0,1-.33,0,2.82,2.82,0,0,0-1.26.39c-.37.17-.86.32-.88.47s.24.38.49.36l.13,0a.49.49,0,0,0,0,.15c.11.33,1.65,2.48,3.18.14A4.41,4.41,0,0,1,259.77,113Z"/><path class="cls-7" d="M261.18,92.29A59.28,59.28,0,0,0,264,100.7l.09.19,0,0a2.18,2.18,0,0,0,.11.32,2.56,2.56,0,0,0,2.5,1.72c.08,0,.28,0,.54,0s.69,0,1,0,.82-.11.94-.33a0,0,0,0,0,0,0,.71.71,0,0,0,.05-.22.35.35,0,0,0,0-.12s0-.08,0-.12l0-.36a1.09,1.09,0,0,0,0-.18,11.66,11.66,0,0,0-.15-1.76c-.22-2.42-2.61-10-3.42-13.14a2.17,2.17,0,0,0-.74-1.16,2,2,0,0,0-1.14-.45h0a1.08,1.08,0,0,0-.18,0A2.77,2.77,0,0,0,261.51,87a6.29,6.29,0,0,0-.63,2.1A7.46,7.46,0,0,0,261.18,92.29Z"/><path class="cls-7" d="M257.55,112.12l1.32,1.2h0l.34.3s2.68-2.32,4.77-4.29a23.59,23.59,0,0,0,5.12-6.32c.06-.11.12-.24.17-.35v0a.71.71,0,0,0,.05-.22.35.35,0,0,0,0-.12s0-.08,0-.12l0-.36a1.09,1.09,0,0,0,0-.18,2.23,2.23,0,0,0-.49-1.42l-.1-.11a2.12,2.12,0,0,0-.52-.38,2.57,2.57,0,0,0-.39-.17,3.71,3.71,0,0,0-3,.41l-.26.27c-.18.19-.36.41-.55.65a10.6,10.6,0,0,0-1.44,2.4A87.64,87.64,0,0,1,257.55,112.12Z"/><path class="cls-42" d="M250.13,70.22a9.5,9.5,0,0,1,5.59.68,4.48,4.48,0,0,0,4,.13l.92-.43s-.91-1-1-1.14a8.44,8.44,0,0,0-1.39-1.17c-.47-.2-2.45-.84-2.7-.88a5.47,5.47,0,0,0-1.59,0,4.08,4.08,0,0,0-1.24.42c-.32.16-1.23.73-1.23.73Z"/><path class="cls-40" d="M227.3,81.27s-2.28-2-2.4-3.37c-.13-1.54.95-2.28,1.67-1.43a5.49,5.49,0,0,1,.91,3.52l.42.49Z"/><path class="cls-21" d="M258.87,113.32h0l.34.3s2.68-2.32,4.77-4.29a23.59,23.59,0,0,0,5.12-6.32c.06-.11.12-.24.17-.35v0a.71.71,0,0,0,.05-.22.35.35,0,0,0,0-.12s0-.08,0-.12l0-.36a1.09,1.09,0,0,0,0-.18,11.66,11.66,0,0,0-.15-1.76c-.22-2.42-2.61-10-3.42-13.14a2.17,2.17,0,0,0-.74-1.16,2,2,0,0,0-1.14-.45h0a1.08,1.08,0,0,0-.18,0,20.92,20.92,0,0,1,2,5.73c1.06,4.38,1.82,7,2.12,8.71a5.93,5.93,0,0,1,.13,1.83,5.69,5.69,0,0,1-.76,1.59C265.45,106,260.78,112,258.87,113.32Z"/><path class="cls-42" d="M258.18,80.53a12.36,12.36,0,0,1-.34-2.73s1.56-1.11,1.56-2.23c0-1.57-1.74,0-1.74,0a11.64,11.64,0,0,1-.45-2.21c-.14-1.76,2.82-3,2.82-3l1.55,1.13.74,1.46S262.39,79,258.18,80.53Z"/><rect class="cls-54" x="181.23" y="125" width="23.08" height="4.1" rx="0.53" transform="translate(-37.68 113.19) rotate(-29.95)"/><g class="cls-55"><g class="cls-56"><path class="cls-57" d="M200.86,121.1a.09.09,0,0,1-.12,0l-.42-.73.16-.09.42.73A.1.1,0,0,1,200.86,121.1Z"/><path class="cls-57" d="M200.28,120.82a0,0,0,0,1-.06,0l-.18-.32.08,0,.18.31A0,0,0,0,1,200.28,120.82Z"/></g><g class="cls-56"><path class="cls-57" d="M200.2,121.48a.1.1,0,0,1-.13,0l-.42-.73.16-.09.42.73A.09.09,0,0,1,200.2,121.48Z"/><path class="cls-57" d="M199.61,121.21a0,0,0,0,1-.06,0l-.18-.31.08,0,.18.32A0,0,0,0,1,199.61,121.21Z"/></g><g class="cls-56"><path class="cls-57" d="M199.53,121.87a.11.11,0,0,1-.13,0l-.42-.74.16-.09.42.73A.1.1,0,0,1,199.53,121.87Z"/><path class="cls-57" d="M199,121.59a0,0,0,0,1-.07,0l-.18-.32.08,0,.18.31S199,121.58,199,121.59Z"/></g><g class="cls-56"><path class="cls-57" d="M198.86,122.25a.1.1,0,0,1-.13,0l-.42-.73.16-.09.42.73A.09.09,0,0,1,198.86,122.25Z"/><path class="cls-57" d="M198.27,122s0,0-.06,0l-.18-.31.08-.05.18.32A0,0,0,0,1,198.27,122Z"/></g><g class="cls-56"><path class="cls-57" d="M198.19,122.64a.11.11,0,0,1-.13,0l-.42-.74.16-.09.42.74A.09.09,0,0,1,198.19,122.64Z"/><path class="cls-57" d="M197.61,122.36a0,0,0,0,1-.06,0l-.19-.32.08,0,.18.31A0,0,0,0,1,197.61,122.36Z"/></g><g class="cls-56"><path class="cls-57" d="M197.52,123a.08.08,0,0,1-.12,0l-.43-.73.16-.09.42.73A.08.08,0,0,1,197.52,123Z"/><path class="cls-57" d="M196.94,122.75a.06.06,0,0,1-.07,0l-.18-.32.08,0,.18.31S197,122.74,196.94,122.75Z"/></g><g class="cls-56"><path class="cls-57" d="M196.85,123.41a.11.11,0,0,1-.13,0l-.42-.73.16-.1.42.74A.08.08,0,0,1,196.85,123.41Z"/><path class="cls-57" d="M196.27,123.14a0,0,0,0,1-.06,0l-.19-.31.08,0,.18.32S196.29,123.12,196.27,123.14Z"/></g><g class="cls-56"><path class="cls-57" d="M196.18,123.8a.09.09,0,0,1-.12,0l-.43-.73.16-.09.42.73A.1.1,0,0,1,196.18,123.8Z"/><path class="cls-57" d="M195.6,123.52s0,0-.06,0l-.18-.32.07,0,.19.31A0,0,0,0,1,195.6,123.52Z"/></g><g class="cls-56"><path class="cls-57" d="M195.51,124.18a.08.08,0,0,1-.12,0l-.42-.73.15-.09.42.73A.08.08,0,0,1,195.51,124.18Z"/><path class="cls-57" d="M194.93,123.91a0,0,0,0,1-.06,0l-.18-.31.08,0,.18.32S195,123.89,194.93,123.91Z"/></g><g class="cls-56"><path class="cls-57" d="M194.84,124.57a.09.09,0,0,1-.12,0l-.42-.73.15-.09.42.73A.1.1,0,0,1,194.84,124.57Z"/><path class="cls-57" d="M194.26,124.29a0,0,0,0,1-.06,0L194,124l.07,0,.19.31A0,0,0,0,1,194.26,124.29Z"/></g><g class="cls-56"><path class="cls-57" d="M194.17,125a.08.08,0,0,1-.12,0l-.43-.73.16-.09.43.73A.1.1,0,0,1,194.17,125Z"/><path class="cls-57" d="M193.59,124.68a0,0,0,0,1-.06,0l-.18-.31.08,0,.18.32A0,0,0,0,1,193.59,124.68Z"/></g><g class="cls-56"><path class="cls-57" d="M193.5,125.34a.09.09,0,0,1-.12,0l-.42-.74.15-.09.42.74A.09.09,0,0,1,193.5,125.34Z"/><path class="cls-57" d="M192.92,125.06a0,0,0,0,1-.06,0l-.18-.32.08,0,.18.31A0,0,0,0,1,192.92,125.06Z"/></g><g class="cls-56"><path class="cls-57" d="M192.83,125.72a.08.08,0,0,1-.12,0l-.42-.73.15-.09.43.73A.09.09,0,0,1,192.83,125.72Z"/><path class="cls-57" d="M192.25,125.45a0,0,0,0,1-.06,0l-.18-.31.08-.05.18.32A0,0,0,0,1,192.25,125.45Z"/></g><g class="cls-56"><path class="cls-57" d="M192.16,126.11a.1.1,0,0,1-.12,0l-.42-.74.16-.09.42.74A.09.09,0,0,1,192.16,126.11Z"/><path class="cls-57" d="M191.58,125.83a0,0,0,0,1-.06,0l-.18-.31.08-.05.18.32A0,0,0,0,1,191.58,125.83Z"/></g><g class="cls-56"><path class="cls-57" d="M191.5,126.49a.09.09,0,0,1-.13,0l-.42-.73.16-.09.42.73A.09.09,0,0,1,191.5,126.49Z"/><path class="cls-57" d="M190.91,126.22s0,0-.06,0l-.18-.32.08,0,.18.31A0,0,0,0,1,190.91,126.22Z"/></g><g class="cls-56"><path class="cls-57" d="M190.82,126.88a.09.09,0,0,1-.12,0l-.42-.73.16-.09.42.73A.09.09,0,0,1,190.82,126.88Z"/><path class="cls-57" d="M190.24,126.61a0,0,0,0,1-.06,0l-.18-.31.08,0,.18.32S190.27,126.59,190.24,126.61Z"/></g><g class="cls-56"><path class="cls-57" d="M190.16,127.27a.1.1,0,0,1-.13,0l-.42-.73.16-.09.42.73A.11.11,0,0,1,190.16,127.27Z"/><path class="cls-57" d="M189.57,127a0,0,0,0,1-.06,0l-.18-.32.08,0,.18.31A0,0,0,0,1,189.57,127Z"/></g><g class="cls-56"><path class="cls-57" d="M189.49,127.65a.1.1,0,0,1-.13,0l-.42-.73.16-.09.42.73A.09.09,0,0,1,189.49,127.65Z"/><path class="cls-57" d="M188.9,127.38a0,0,0,0,1-.06,0l-.18-.31.08,0,.18.32A0,0,0,0,1,188.9,127.38Z"/></g><g class="cls-56"><path class="cls-57" d="M188.82,128a.1.1,0,0,1-.13,0l-.42-.73.16-.09.42.73A.1.1,0,0,1,188.82,128Z"/><path class="cls-57" d="M188.24,127.76a0,0,0,0,1-.07,0l-.18-.32.08,0,.18.31S188.26,127.75,188.24,127.76Z"/></g><g class="cls-56"><path class="cls-57" d="M188.15,128.42a.1.1,0,0,1-.13,0l-.42-.73.16-.09.42.73A.09.09,0,0,1,188.15,128.42Z"/><path class="cls-57" d="M187.56,128.15a0,0,0,0,1-.05,0l-.19-.31.08,0,.18.32S187.59,128.14,187.56,128.15Z"/></g><g class="cls-56"><path class="cls-57" d="M187.48,128.81a.11.11,0,0,1-.13,0l-.42-.74.16-.09.42.74A.09.09,0,0,1,187.48,128.81Z"/><path class="cls-57" d="M186.9,128.53a0,0,0,0,1-.06,0l-.18-.32.07,0,.18.31A0,0,0,0,1,186.9,128.53Z"/></g><g class="cls-56"><path class="cls-57" d="M186.81,129.19a.08.08,0,0,1-.12,0l-.43-.73.16-.09.42.73A.08.08,0,0,1,186.81,129.19Z"/><path class="cls-57" d="M186.23,128.92s0,0-.06,0l-.19-.32.08-.05.18.32A0,0,0,0,1,186.23,128.92Z"/></g><g class="cls-56"><path class="cls-57" d="M186.14,129.58a.11.11,0,0,1-.13,0l-.42-.73.16-.1.42.74A.08.08,0,0,1,186.14,129.58Z"/><path class="cls-57" d="M185.56,129.3a0,0,0,0,1-.06,0l-.19-.31.08,0,.18.32S185.58,129.29,185.56,129.3Z"/></g><g class="cls-56"><path class="cls-57" d="M185.47,130a.09.09,0,0,1-.12,0l-.43-.73.16-.09.42.73A.1.1,0,0,1,185.47,130Z"/><path class="cls-57" d="M184.89,129.69s0,0-.06,0l-.18-.32.07,0,.19.31A0,0,0,0,1,184.89,129.69Z"/></g><g class="cls-56"><path class="cls-57" d="M184.8,130.35a.08.08,0,0,1-.12,0l-.42-.73.15-.09.42.73A.08.08,0,0,1,184.8,130.35Z"/><path class="cls-57" d="M184.22,130.08a0,0,0,0,1-.06,0l-.18-.31.08-.05.18.32S184.24,130.06,184.22,130.08Z"/></g><g class="cls-56"><path class="cls-57" d="M184.13,130.74a.09.09,0,0,1-.12,0l-.42-.73.15-.09.43.73A.1.1,0,0,1,184.13,130.74Z"/><path class="cls-57" d="M183.55,130.46a0,0,0,0,1-.06,0l-.18-.32.07,0,.19.31A0,0,0,0,1,183.55,130.46Z"/></g></g><path class="cls-5" d="M236.15,237.21c0,1.55-8.36,2.81-18.66,2.81s-18.66-1.26-18.66-2.81,8.35-2.81,18.66-2.81S236.15,235.66,236.15,237.21Z"/><path class="cls-40" d="M222.31,231.25s.06,2.57.11,3.23,2.13.7,2.38.36a18.62,18.62,0,0,0,.36-3.35"/><path class="cls-47" d="M225.35,235.42a13.87,13.87,0,0,1-.19,1.79h-2.4l-.12-.4a3.79,3.79,0,0,1-1.39.4h-2c-1.49,0-2.33-.19-2.37-.45-.15-1.09,1.62-1,2.08-1,1.33,0,2.76-.62,3.08-1.3.22-.48.12-.61.4-.52a.73.73,0,0,1,.41.36,1.22,1.22,0,0,0,1.25.68,1.38,1.38,0,0,0,.81-.39A.87.87,0,0,1,225.35,235.42Z"/><path class="cls-40" d="M213.88,230.56a19,19,0,0,0,.73,2.35c.29.59,2.24-.14,2.34-.54a18.21,18.21,0,0,0-.9-3.24"/><path class="cls-47" d="M217.68,232.7c.25.63.63,1.86.63,1.86l-1.83,1.09-.35-.27a3.53,3.53,0,0,1-1,1,7.88,7.88,0,0,1-1.8.75c-1.67.38-3,.19-3.08,0-.55-1,1.65-1.48,2.08-1.65a3,3,0,0,0,1.84-2.42c0-.54-.11-.62.18-.64a.68.68,0,0,1,.51.18,1.22,1.22,0,0,0,1.42.17,1.5,1.5,0,0,0,.61-.66A.88.88,0,0,1,217.68,232.7Z"/><path class="cls-58" d="M226.71,172.24c.86-.64,1.8-1.36,2.69-2.1,2-1.71,3.86-3.57,4.09-4.92.49-3,.11-12.05-.14-16.3,0-.26,0-.5,0-.72-.25-4-2.41-5.81-3.49-6.46-.55,5.23-1.79,17-1.9,17.63C227.8,160.15,226.71,172.24,226.71,172.24Z"/><path class="cls-57" d="M226.7,172.24c.87-.64,1.81-1.36,2.7-2.1.08-3.33,1.07-8,2.46-13.77,1.65-7.33.61-8.67.61-8.67l-3.32.5c-.55,5.17-1.15,10.76-1.22,11.17C227.8,160.15,226.7,172.24,226.7,172.24Z"/><path class="cls-42" d="M218.72,199.74a78.78,78.78,0,0,0,1,10.22c.44,2.26,7.56,2.68,6.64.93-1.32-2.53,1-10.48,2.12-24,.16-2.06,1.08-2.29,1.7-6.51a13,13,0,0,0-1.72-7.89l-9.89-.92-.12,12.31,0,4.16S218.43,193.72,218.72,199.74Z"/><path class="cls-42" d="M225.53,209.31A10.07,10.07,0,0,1,227.2,216c-.27,4.35-1.79,17.31-1.79,17.31a9.26,9.26,0,0,1-3.43-.09s-2.45-24.05-2.46-26.78S225.53,209.31,225.53,209.31Z"/><path class="cls-43" d="M218.72,199.74a77.76,77.76,0,0,1,2.88-8,15.27,15.27,0,0,1,2.8-4.34c5-5.26,1.56-12.06,1.56-12.06s-4.08,3.38-4.37,3.73-1.9,3.2-3.1,4.77l0,4.16S218.43,193.72,218.72,199.74Z"/><path class="cls-42" d="M207,198.12s-2.24,7.38-1.89,9.69,8.55,23.94,8.55,23.94a8.25,8.25,0,0,0,3.29-.82s-.18-9.52-1.78-15.47-3.48-9.61-5.08-10.14S207.45,199.36,207,198.12Z"/><path class="cls-44" d="M214.25,202.5s-2.43,3.87-.93,7.35-2.51,2.89-2.51,2.89-2-5.82-1.55-6.57,2.09-3.29,2.62-3.43S214.25,202.5,214.25,202.5Z"/><path class="cls-42" d="M211.8,171.74s-5.2,24.07-5.88,30.55c-.29,2.75,2.6,7.3,5.27,4.81,3.19-3,8.34-16.56,9.94-19s7.59-4.6,3.5-16.78"/><path class="cls-40" d="M224.64,139.4a11.25,11.25,0,0,1-.4-4.18c.31-1.78,1.38-5,1-7.38s-3.43-4.41-6.63-4.09-4.13,3.37-4.67,5.15a18.55,18.55,0,0,0-.31,6,4.14,4.14,0,0,0,1.47,2.93c.53.31,2.54-.1,2.89.29a9.61,9.61,0,0,1,.62,2.65"/><path class="cls-58" d="M226.15,141.31a4.11,4.11,0,0,0-.71-1.91c-.54-.49-4.09-.49-5.16-.36a16,16,0,0,0-4,1.62c-.35.26.33,1.61.33,1.61Z"/><path class="cls-40" d="M189,127.36c0-.26.35-.14.44.07,0,0,0,.09,0,.18,0-.41-.05-.75,0-.84s.32-.15.43,0c0-.17,0-.3,0-.35,0-.31.36-.18.44.07a3.39,3.39,0,0,1,.08.43c0-.11,0-.2,0-.24,0-.25.32-.19.41,0s0,.19.09.49.11.52.15.78a6.39,6.39,0,0,0,.16.72,3.06,3.06,0,0,0,1.17.9l.69-.37a9.46,9.46,0,0,1,.17,1.6c-.05.38-.32.84-.29,1.07a5.41,5.41,0,0,0,.29.82l-1.92.8a4.7,4.7,0,0,0-.51-1.41,16.74,16.74,0,0,1-1.31-1.57,9.74,9.74,0,0,1-.28-.95l-.14-.71-.06-.7S189,127.44,189,127.36Z"/><path class="cls-58" d="M190.94,133.12s.64,3.74,1.28,6.73a29.72,29.72,0,0,0,2.23,6.9s0,0,0,.05c.63,1.37,1.8,3,2.6,3.21a23.22,23.22,0,0,0,3.61,0,81.36,81.36,0,0,0,9.85-1l.17,0c1.73-.23,3.32-.44,4.41-.56a2.25,2.25,0,0,0,1.34-.59,2,2,0,0,0,.65-1.13s0,0,0,0a2.87,2.87,0,0,0-1.57-2.87l-.15-.1c1.27-1.26,2.57-2.63,2.57-2.63s-3.58.17-5.58.3c-1.36.09-10.64,2.57-11.75,2.92l-.24.09a2.42,2.42,0,0,0-.35.06l-.22.07a11.42,11.42,0,0,0-1.35-2.54,92.75,92.75,0,0,1-5.23-9.58l-1.8.54h0Z"/><path class="cls-42" d="M224.5,136.37s-4.44.38-5.29,0a3.36,3.36,0,0,1-2.17-2.71c-.12-1.51.2-2-.38-2.82s-1.09-.56-1.18.24-.12,2.25-.33,2.35-.62-.87-.52-2.42a9.69,9.69,0,0,1,.65-3.26c.4-.89.62-.84,1-1a2.76,2.76,0,0,1-1.58-1.41,2.21,2.21,0,0,1,2-3.55c4.11,0,8.49.82,8.58,3.87,0,0,1.44-.22,1.48,2.55s-1.73,6.14-1.86,7S225,136.17,224.5,136.37Z"/><path class="cls-58" d="M212.15,169c-.17,1.4-1.39,3.55-.55,3.85a15.62,15.62,0,0,0,3.36-.1h.12c1.48-.12,3.16-.28,4.58-.39,5.65-.24,8.54.88,9.1.56.28-.16.28-.65.2-1.15a12.75,12.75,0,0,1-.09-3.75c.14-1,.33-2.3.6-3.73.93-5,2.76-12.52,3-17.07.44-7.13-7.2-6.45-7.2-6.45-9.72-.61-14.28,2.19-14.81,6.36,0,.3-.06.62-.08.95-.25,4.31,1.06,11.26,1.68,16.45A26.88,26.88,0,0,1,212.15,169Z"/><path class="cls-57" d="M212.15,169c-.17,1.4-1.39,3.55-.55,3.85a15.62,15.62,0,0,0,3.36-.1c-1.51.11-1.79-1-1.45-1.81a11,11,0,0,0,1-4.6c-.07-2.07-.84-6.74-1.3-11.15a35.13,35.13,0,0,1,0-7.72c-.23.46-.9,1.12-2.78,1.55,0,4.33,1.14,10.68,1.71,15.5A26.88,26.88,0,0,1,212.15,169Z"/><path class="cls-54" d="M92.61,79.3l10.84-25.87-8.06,1.63-.12,0L79.16,58.34l-.27,0L62.66,61.67l-.27,0-7.91,1.61ZM95.32,60,90.18,72.3,71.94,64.65Z"/><g class="cls-46"><path class="cls-59" d="M58.89,62.43l.17,0,.24,1.17a.09.09,0,0,1-.07.11.08.08,0,0,1-.1-.07Z"/><path class="cls-59" d="M59.32,62.35l.12,0,.12.58s0,.07-.05.07a.06.06,0,0,1-.08,0Z"/></g><g class="cls-46"><path class="cls-59" d="M59.71,62.27l.18,0,.23,1.17a.09.09,0,0,1-.06.11.09.09,0,0,1-.11-.07Z"/><path class="cls-59" d="M60.14,62.18l.13,0,.11.58a.06.06,0,0,1-.05.08s-.07,0-.07-.05Z"/></g><g class="cls-46"><path class="cls-59" d="M60.54,62.1l.17,0L61,63.24a.09.09,0,0,1-.07.11.1.1,0,0,1-.11-.08Z"/><path class="cls-59" d="M61,62l.13,0,.12.57a.08.08,0,0,1-.05.08.07.07,0,0,1-.08,0Z"/></g><g class="cls-46"><path class="cls-59" d="M61.36,61.93l.18,0,.23,1.17a.09.09,0,0,1-.06.11.1.1,0,0,1-.11-.07Z"/><path class="cls-59" d="M61.79,61.84l.12,0,.12.58a.06.06,0,0,1-.05.07s-.06,0-.07,0Z"/></g><g class="cls-46"><path class="cls-59" d="M62.19,61.77l.18,0,.23,1.17a.09.09,0,1,1-.18,0Z"/><path class="cls-59" d="M62.62,61.68l.12,0,.12.58a.09.09,0,0,1,0,.08.08.08,0,0,1-.08-.05Z"/></g><g class="cls-46"><path class="cls-59" d="M63,61.6l.18,0,.24,1.17a.1.1,0,0,1-.08.11.1.1,0,0,1-.1-.08Z"/><path class="cls-59" d="M63.44,61.52l.12,0,.12.57a.06.06,0,0,1,0,.08s-.06,0-.07,0Z"/></g><g class="cls-46"><path class="cls-59" d="M63.84,61.44l.18,0,.23,1.17a.09.09,0,0,1-.07.11.1.1,0,0,1-.11-.07Z"/><path class="cls-59" d="M64.27,61.35l.12,0,.11.58a.06.06,0,0,1,0,.07.07.07,0,0,1-.08,0Z"/></g><g class="cls-46"><path class="cls-59" d="M64.66,61.27l.18,0,.24,1.17a.09.09,0,0,1-.18,0Z"/><path class="cls-59" d="M65.09,61.18l.13,0,.11.57a.06.06,0,0,1-.12,0Z"/></g><g class="cls-46"><path class="cls-59" d="M65.49,61.1l.17,0,.24,1.17a.09.09,0,1,1-.17,0Z"/><path class="cls-59" d="M65.92,61,66,61l.12.57a.07.07,0,0,1,0,.08.08.08,0,0,1-.08,0Z"/></g><g class="cls-46"><path class="cls-59" d="M66.31,60.93l.18,0,.24,1.17a.09.09,0,0,1-.07.11.1.1,0,0,1-.11-.08Z"/><path class="cls-59" d="M66.74,60.85l.13,0,.11.58s0,.06,0,.07a.06.06,0,0,1-.07,0Z"/></g><g class="cls-46"><path class="cls-59" d="M67.14,60.77l.17,0,.24,1.17a.09.09,0,0,1-.07.11.08.08,0,0,1-.1-.07Z"/><path class="cls-59" d="M67.57,60.68l.12,0,.12.57s0,.07,0,.07a.06.06,0,0,1-.08,0Z"/></g><g class="cls-46"><path class="cls-59" d="M68,60.6l.18,0,.23,1.16a.09.09,0,0,1-.06.11.09.09,0,0,1-.11-.07Z"/><path class="cls-59" d="M68.39,60.51l.13,0,.11.57a.06.06,0,0,1,0,.08s-.07,0-.07,0Z"/></g><g class="cls-46"><path class="cls-59" d="M68.79,60.43l.17,0,.24,1.17a.09.09,0,0,1-.07.11A.1.1,0,0,1,69,61.6Z"/><path class="cls-59" d="M69.22,60.35l.12,0,.12.57a.08.08,0,0,1,0,.08.07.07,0,0,1-.08,0Z"/></g><g class="cls-46"><path class="cls-59" d="M69.61,60.27l.18,0L70,61.4a.1.1,0,0,1-.08.11.1.1,0,0,1-.1-.07Z"/><path class="cls-59" d="M70,60.18l.12,0,.12.57a.06.06,0,0,1,0,.07s-.06,0-.07,0Z"/></g><g class="cls-46"><path class="cls-59" d="M70.44,60.1l.18,0,.23,1.17a.09.09,0,1,1-.18,0Z"/><path class="cls-59" d="M70.87,60,71,60l.12.57a.07.07,0,1,1-.13,0Z"/></g><g class="cls-46"><path class="cls-59" d="M71.26,59.93l.18,0,.24,1.17a.1.1,0,0,1-.07.11.09.09,0,0,1-.11-.08Z"/><path class="cls-59" d="M71.69,59.85l.12,0,.12.57a.06.06,0,0,1-.05.08s-.06,0-.07,0Z"/></g><g class="cls-46"><path class="cls-59" d="M72.09,59.77l.17,0,.24,1.17a.09.09,0,0,1-.07.11.1.1,0,0,1-.11-.07Z"/><path class="cls-59" d="M72.52,59.68l.12,0,.12.58s0,.06-.05.07a.06.06,0,0,1-.08,0Z"/></g><g class="cls-46"><path class="cls-59" d="M72.91,59.6l.18,0,.24,1.17a.09.09,0,1,1-.18,0Z"/><path class="cls-59" d="M73.34,59.51l.13,0,.11.57a.06.06,0,0,1-.12,0Z"/></g><g class="cls-46"><path class="cls-59" d="M73.74,59.43l.17,0,.24,1.17a.09.09,0,1,1-.17,0Z"/><path class="cls-59" d="M74.17,59.35l.12,0,.12.57a.07.07,0,1,1-.13,0Z"/></g><g class="cls-46"><path class="cls-59" d="M74.56,59.26l.18,0L75,60.4a.09.09,0,0,1-.06.11.1.1,0,0,1-.11-.08Z"/><path class="cls-59" d="M75,59.18l.13,0,.11.58s0,.06,0,.07a.06.06,0,0,1-.07,0Z"/></g><g class="cls-46"><path class="cls-59" d="M75.39,59.1l.17,0,.24,1.17a.09.09,0,1,1-.18,0Z"/><path class="cls-59" d="M75.81,59l.13,0,.12.57s0,.07,0,.07a.06.06,0,0,1-.08-.05Z"/></g><g class="cls-46"><path class="cls-59" d="M76.21,58.93l.18,0,.23,1.16a.09.09,0,0,1-.07.11.09.09,0,0,1-.1-.07Z"/><path class="cls-59" d="M76.64,58.84l.13,0,.11.57a.07.07,0,0,1,0,.08.08.08,0,0,1-.07,0Z"/></g><g class="cls-46"><path class="cls-59" d="M77,58.76l.18,0,.23,1.17a.09.09,0,0,1-.07.11.1.1,0,0,1-.11-.08Z"/><path class="cls-59" d="M77.47,58.68l.12,0,.12.57a.08.08,0,0,1,0,.08.07.07,0,0,1-.08,0Z"/></g><g class="cls-46"><path class="cls-59" d="M77.86,58.6l.18,0,.24,1.17a.1.1,0,0,1-.08.11.1.1,0,0,1-.1-.07Z"/><path class="cls-59" d="M78.29,58.51l.12,0,.12.57a.05.05,0,0,1,0,.07s-.06,0-.07-.05Z"/></g><g class="cls-46"><path class="cls-59" d="M78.69,58.43l.18,0,.23,1.17a.09.09,0,1,1-.18,0Z"/><path class="cls-59" d="M79.12,58.34l.12,0,.11.57a.07.07,0,0,1,0,.08.08.08,0,0,1-.08,0Z"/></g><g class="cls-46"><path class="cls-59" d="M79.51,58.27l.18,0,.24,1.17a.1.1,0,0,1-.07.11.1.1,0,0,1-.11-.08Z"/><path class="cls-59" d="M79.94,58.18l.13,0,.11.56a.06.06,0,0,1-.05.08.06.06,0,0,1-.07,0Z"/></g><g class="cls-46"><path class="cls-59" d="M80.34,58.1l.17,0,.24,1.16a.09.09,0,0,1-.07.11.09.09,0,0,1-.1-.08Z"/><path class="cls-59" d="M80.77,58l.12,0,.12.57a.08.08,0,0,1-.05.07.06.06,0,0,1-.08-.05Z"/></g><g class="cls-46"><path class="cls-59" d="M81.16,57.93l.18,0,.23,1.16a.09.09,0,0,1-.06.11.09.09,0,0,1-.11-.07Z"/><path class="cls-59" d="M81.59,57.85l.13,0,.11.57a.06.06,0,0,1-.12,0Z"/></g><g class="cls-46"><path class="cls-59" d="M82,57.77l.17,0,.24,1.17a.1.1,0,0,1-.07.11.11.11,0,0,1-.11-.08Z"/><path class="cls-59" d="M82.42,57.68l.12,0,.12.57a.07.07,0,1,1-.13,0Z"/></g><g class="cls-46"><path class="cls-59" d="M82.81,57.6l.18,0,.23,1.17a.09.09,0,0,1-.06.11.1.1,0,0,1-.11-.08Z"/><path class="cls-59" d="M83.24,57.51l.13,0,.11.57s0,.06,0,.07a.06.06,0,0,1-.07-.05Z"/></g><g class="cls-46"><path class="cls-59" d="M83.64,57.43l.17,0,.24,1.16a.09.09,0,1,1-.18,0Z"/><path class="cls-59" d="M84.07,57.35l.12,0,.12.57s0,.07,0,.07a.06.06,0,0,1-.08-.05Z"/></g><g class="cls-46"><path class="cls-59" d="M84.46,57.27l.18,0,.24,1.16a.1.1,0,0,1-.08.11.09.09,0,0,1-.1-.07Z"/><path class="cls-59" d="M84.89,57.18l.13,0,.11.57a.07.07,0,0,1,0,.08.08.08,0,0,1-.07,0Z"/></g><g class="cls-46"><path class="cls-59" d="M85.29,57.1l.18,0,.23,1.17a.09.09,0,0,1-.07.11.1.1,0,0,1-.11-.08Z"/><path class="cls-59" d="M85.72,57l.12,0,.11.56a.06.06,0,0,1,0,.08.07.07,0,0,1-.08-.05Z"/></g><g class="cls-46"><path class="cls-59" d="M86.11,56.93l.18,0,.24,1.16a.09.09,0,0,1-.07.11.09.09,0,0,1-.11-.07Z"/><path class="cls-59" d="M86.54,56.84l.12,0,.12.57a.06.06,0,0,1-.12,0Z"/></g><g class="cls-46"><path class="cls-59" d="M86.94,56.77l.18,0,.23,1.16a.09.09,0,1,1-.18,0Z"/><path class="cls-59" d="M87.37,56.68l.12,0,.12.57a.07.07,0,0,1,0,.08.08.08,0,0,1-.08,0Z"/></g><g class="cls-46"><path class="cls-59" d="M87.77,56.6l.17,0,.24,1.17a.1.1,0,0,1-.07.11.1.1,0,0,1-.11-.08Z"/><path class="cls-59" d="M88.19,56.51l.13,0,.11.56a.06.06,0,0,1-.05.08.06.06,0,0,1-.07-.05Z"/></g><g class="cls-46"><path class="cls-59" d="M88.59,56.43l.17,0L89,57.56a.09.09,0,0,1-.07.11.09.09,0,0,1-.1-.08Z"/><path class="cls-59" d="M89,56.34l.12,0,.12.57s0,.07-.05.07a.06.06,0,0,1-.08-.05Z"/></g><g class="cls-46"><path class="cls-59" d="M89.41,56.26l.18,0,.23,1.16a.09.09,0,0,1-.06.11.09.09,0,0,1-.11-.07Z"/><path class="cls-59" d="M89.84,56.18l.13,0,.11.57a.06.06,0,0,1-.12,0Z"/></g><g class="cls-46"><path class="cls-59" d="M90.24,56.1l.17,0,.24,1.17a.1.1,0,0,1-.07.11.11.11,0,0,1-.11-.08Z"/><path class="cls-59" d="M90.67,56l.12,0,.12.57a.07.07,0,1,1-.13,0Z"/></g><g class="cls-46"><path class="cls-59" d="M91.06,55.93l.18,0,.23,1.17a.09.09,0,0,1-.07.11.1.1,0,0,1-.1-.08Z"/><path class="cls-59" d="M91.49,55.84l.13,0,.11.57s0,.06,0,.07-.06,0-.07-.05Z"/></g><g class="cls-46"><path class="cls-59" d="M91.89,55.76l.18,0,.23,1.16a.09.09,0,1,1-.18,0Z"/><path class="cls-59" d="M92.32,55.68l.12,0,.12.57a.07.07,0,0,1-.06.07s-.06,0-.07,0Z"/></g><g class="cls-46"><path class="cls-59" d="M92.71,55.6l.18,0,.24,1.16a.1.1,0,0,1-.08.11.08.08,0,0,1-.1-.07Z"/><path class="cls-59" d="M93.14,55.51l.12,0,.12.57a.06.06,0,0,1,0,.08.08.08,0,0,1-.07-.05Z"/></g><g class="cls-46"><path class="cls-59" d="M93.54,55.43l.18,0L94,56.56a.09.09,0,0,1-.07.11.1.1,0,0,1-.11-.08Z"/><path class="cls-59" d="M94,55.34l.12,0,.11.56a.06.06,0,0,1,0,.08.07.07,0,0,1-.08-.05Z"/></g><g class="cls-46"><path class="cls-59" d="M94.36,55.26l.18,0,.24,1.16a.09.09,0,0,1-.07.11.1.1,0,0,1-.11-.07Z"/><path class="cls-59" d="M94.79,55.17l.13,0,.11.57a.06.06,0,0,1-.12,0Z"/></g><g class="cls-46"><path class="cls-59" d="M95.19,55.09l.17,0,.24,1.16a.09.09,0,0,1-.07.11.08.08,0,0,1-.1-.07Z"/><path class="cls-59" d="M95.62,55l.12,0,.12.56a.09.09,0,0,1,0,.08.08.08,0,0,1-.08-.05Z"/></g><g class="cls-46"><path class="cls-59" d="M96,54.93l.17,0,.23,1.16a.1.1,0,0,1-.06.11.1.1,0,0,1-.11-.08Z"/><path class="cls-59" d="M96.44,54.85l.13,0,.11.56a.06.06,0,0,1-.05.08.06.06,0,0,1-.07-.05Z"/></g><g class="cls-46"><path class="cls-59" d="M96.84,54.77l.17,0,.24,1.16a.09.09,0,0,1-.07.11.1.1,0,0,1-.11-.08Z"/><path class="cls-59" d="M97.27,54.68l.12,0,.12.57s0,.07-.05.07a.06.06,0,0,1-.08,0Z"/></g><g class="cls-46"><path class="cls-59" d="M97.66,54.6l.18,0,.23,1.16a.09.09,0,0,1-.06.11.09.09,0,0,1-.11-.07Z"/><path class="cls-59" d="M98.09,54.51l.13,0,.11.56a.07.07,0,0,1,0,.08.07.07,0,0,1-.07-.06Z"/></g><g class="cls-46"><path class="cls-59" d="M98.49,54.43l.17,0,.24,1.16a.1.1,0,0,1-.07.11.1.1,0,0,1-.11-.08Z"/><path class="cls-59" d="M98.92,54.34l.12,0,.12.56a.08.08,0,0,1,0,.08.07.07,0,0,1-.08-.05Z"/></g><path class="cls-60" d="M58.09,61.16c-.82,6.29,1.77,12.65,4.38,10.89,4.1-2.75,10.19-11.77,10.78-11.79.34,0,.65.19,1.65.2a9.11,9.11,0,0,0,1.78-.26c.1,0,.22-.08.22-.18a.21.21,0,0,0-.1-.16,1.21,1.21,0,0,0-.72-.18c-.21,0-.48,0-.54-.23a.32.32,0,0,1,.14-.32A.79.79,0,0,1,76,59c.64-.17,1.45-.32,2.1-.48-.4-.12-1-.25-1.36-.35a5.57,5.57,0,0,0-.91-.15,12.16,12.16,0,0,0-1.91.07,5.76,5.76,0,0,0-2,.77,8.27,8.27,0,0,0-1.36.91c-1.11.87-5.31,5.79-6.23,6.48"/><path class="cls-60" d="M82.83,82.32a28.75,28.75,0,0,0-1.92,6.77c-.45,3.07,1.27,8,1.07,11.55a11.4,11.4,0,0,1-.42,2.87c-.33.61-1.06,1.29-1.14,2.11a1.28,1.28,0,0,0,.82,1.23c.57.26,1,0,1.16,0,1.19.1,1.41,1,3.46,1.22a3.22,3.22,0,0,0,2.14-.59.43.43,0,0,0,.08-.61c-.12-.17-1.64-.62-2.32-1A4.15,4.15,0,0,1,84.27,104a17.68,17.68,0,0,1,.31-3.24c.88-5.76,2-13.87,2.56-17.23"/><path class="cls-42" d="M88.17,107.59c.14-.25.17-.62,0-.71a10.83,10.83,0,0,0-1.28-.69c-.4-.16-1-.3-.81-.19s-.18.55-.55.54c-1.28,0-2.24-.83-3-1A2,2,0,0,1,81.23,104a4.86,4.86,0,0,0-.94,1.38,2.26,2.26,0,0,0-.14,1.06,2.25,2.25,0,0,1,.13,1,2.11,2.11,0,0,0,.76.23,3.15,3.15,0,0,0,.82,0l.08-.63a3.1,3.1,0,0,1,.65,0,2.1,2.1,0,0,1,1,.5c.16.15.31.4.51.47a4.09,4.09,0,0,0,1.65.34C87.12,108.42,87.92,108,88.17,107.59Z"/><path class="cls-60" d="M65.35,74.67,56.06,80a5.86,5.86,0,0,0,4.79,4.39c2.44.52,6.28-.18,7.29-.13s17,.63,17,.63,1.59.35,1.88-.9c.44-2,0-2.59-1.32-3.46C83.51,79,75,76.24,65.35,74.67Z"/><path class="cls-61" d="M82.65,83.56a28.89,28.89,0,0,0,0,7c.42,3.08,3.59,8.22,4.39,11.71a11.61,11.61,0,0,1,.39,2.87c-.15.68-.67,1.54-.51,2.34a1.26,1.26,0,0,0,1.12,1c.62.09.9-.3,1.1-.34,1.18-.23,1.63.53,3.67.22a3.3,3.3,0,0,0,1.9-1.16.43.43,0,0,0-.09-.6c-.17-.14-1.75-.15-2.52-.34a4.25,4.25,0,0,1-1.93-1.35,16.35,16.35,0,0,1-.6-3.2C88.84,95.93,87.38,86.19,87,82.8"/><path class="cls-42" d="M94.92,107.29c.08-.28,0-.64-.15-.69a13,13,0,0,0-1.43-.31c-.43-.05-1.07,0-.83,0s0,.58-.38.67c-1.24.32-2.38-.17-3.12-.12a2,2,0,0,1-1.74-1.12,4.9,4.9,0,0,0-.53,1.58,2.36,2.36,0,0,0,.16,1.06,2.34,2.34,0,0,1,.4.92,2.15,2.15,0,0,0,.8,0,3.1,3.1,0,0,0,.78-.24l-.1-.63a3,3,0,0,1,.64-.14,2.13,2.13,0,0,1,1.1.21,2,2,0,0,0,.62.31,4.2,4.2,0,0,0,1.68-.13C94.15,108.38,94.8,107.77,94.92,107.29Z"/><path class="cls-61" d="M65.54,75.33l-9.29,5.31s.38,3.38,4.58,4.28c2.44.52,6.49-.07,7.5,0s17,.63,17,.63,1.57.33,1.65-1c.11-1.71.23-2.54-1.09-3.41C83.7,79.69,75.19,76.9,65.54,75.33Z"/><path class="cls-42" d="M58.05,72.38S55.14,78,55.89,80.45s2.16,4.69,6.15,4.72,14,0,14,0A15,15,0,0,1,77.25,81a12.35,12.35,0,0,1,2.3-2.89s-10.14-3.13-10.84-3.8a8.87,8.87,0,0,1-1.4-2.16"/><path class="cls-58" d="M59.74,54.06a19.83,19.83,0,0,0-2.11,8,24.13,24.13,0,0,0,4,.58"/><path class="cls-58" d="M67.49,51.93c.53.18.33,1.45.86,1.62s1.15,0,1.5.16c1.88,1.06,1.4,3.17,1.62,5.79.8,2,1,3.83.38,5-.79,1.39-1.62,1.79-2.59,2.94-.72.86-1,2.64-1.1,4.54,0,.33.24.91.17,1.23-.16.61-1.09.8-2.13.82-2.38,0-6-.82-7.07-.78s-2-.45-1.85-1c.07-.41.48-.58.65-1.38.36-1.76.63-6.16.91-7.66a42.16,42.16,0,0,1,2.81-10.19"/><path class="cls-57" d="M72.91,61.1a17.88,17.88,0,0,0-2.16-2.84l-2,.92c1,1.84,1.13,4,1.57,6a5,5,0,0,0,1.18-.12c.2-.32.12-.16.39-.63A8.31,8.31,0,0,0,72.91,61.1Z"/><path class="cls-61" d="M74.3,46.77a10.16,10.16,0,0,0,.35-2.64c-.06-1.52-.25-3.71-2.77-4.62s-5.3-.36-6.13,1.46-.63,4.57-.75,6a9.05,9.05,0,0,1-1.2,3.23l5.43,2.34a10.47,10.47,0,0,1,1.25-2.16c.36-.23.49.69,1.7.59.51,0,1.06-1,1.48-2.1a.56.56,0,0,1,0-.12,5.28,5.28,0,0,0,.64,0c.38-.11.35-.28.26-.52A6.36,6.36,0,0,1,74.3,46.77Z"/><path class="cls-61" d="M83.12,76.56a2.89,2.89,0,0,0,1.78,1.56,1,1,0,0,0,.62-.11c.31.08,1.26,0,.82-.46a2.65,2.65,0,0,0,2.07.11c.25,0,.19-.34-.38-.4A2.81,2.81,0,0,1,86.1,76.1c.1-.1.22,0,.53,0s.51-.18.5-.33-.44-.18-.54-.23l-1.13-.51a2.07,2.07,0,0,0-1.14-.22c-.08,0-.81.17-.58.41"/><path class="cls-61" d="M70.44,62.14s2.85,7.68,3.34,8.31c2,2.47,9.62,6.36,9.62,6.36a1.51,1.51,0,0,0,1-1.68c-2.36-1-6.72-5.81-7.67-6.4-.62-.38-3.35-9.76-3.35-9.76"/><path class="cls-58" d="M71.61,53.6c-2.07-.78-4-.79-5.62-2.37-1.6,1.23,1.94,8.36,2.81,8.56s2.06,4.13,2.28,4.66c2.86-.07,3.9-1.63,3.9-1.63C73.81,59.24,73.6,54.37,71.61,53.6Z"/><path class="cls-42" d="M70,53.8c-.14-.54-.55-1-.64-1.51a2.51,2.51,0,0,1,.31-1.63,2.94,2.94,0,0,1,.7-.66c1.14-.9,1.53-1.64,1.15-3a3.6,3.6,0,0,1-.19-1.34c0-.41.12-.84.57-.89a.5.5,0,0,1,.61.3c.07.18-.08,1.48.35.74a3,3,0,0,0,.76-2.38c0-.19-.07-1,.05-1.09a3,3,0,0,1,1.06,2.18,1.57,1.57,0,0,0,.73-1.36,3.68,3.68,0,0,0-.3-1.63,4.79,4.79,0,0,0-2.91-2.88,6.55,6.55,0,0,0-2.68-.7c-.92,0-2.07.3-2.34,1a2.23,2.23,0,0,0-2.33,1.2,6.68,6.68,0,0,0-1,1.91c-.33,1-.41,2.1-.67,3.14A4.59,4.59,0,0,1,62,47.52c-.63.56-1.51.62-2.19,1.13a3.42,3.42,0,0,0-1.3,2.85c.05,1.09.61,2.26,0,3.26-.22.33-.52.59-.73.91a2.5,2.5,0,0,0,0,2.56A4.6,4.6,0,0,0,60,60.13a6.52,6.52,0,0,0,2.4.33c1.56-.09,2.88,0,4.53-1.41.94-.8.34-1.26,1.24-2.11.5-.48,1.22-.73,1.59-1.35A2.47,2.47,0,0,0,70,53.86S70,53.82,70,53.8Z"/><rect class="cls-2" x="26.61" y="156.52" width="21.13" height="21.13" rx="4.46" transform="translate(-100.4 65.24) rotate(-40.95)"/><path class="cls-3" d="M32.07,164.12c.35-.31.71-.61,1.06-.93a.38.38,0,0,1,.51-.06c.57.35,1.13.72,1.7,1.08l1.75,1.06,1.23.79,1.22.75,1.27.79,1.16.73c.54.33,1.08.64,1.61,1,0,0,0,.22,0,.27-.29.28-.61.54-.91.81l-.87.75a.27.27,0,0,1-.4,0c-.62-.4-1.26-.78-1.88-1.17a1.24,1.24,0,0,1-.18-.14.38.38,0,0,0-.58,0c-.69.61-1.39,1.21-2.09,1.81-.14.12-.15.21-.07.39.33.67.65,1.35.94,2s.22.56-.24,1L36,176.19c-.18.17-.3.15-.4-.07-.19-.45-.39-.89-.59-1.34s-.42-.93-.63-1.39-.37-.86-.56-1.28l-.87-2c-.28-.62-.56-1.25-.83-1.88l-.87-1.93c-.1-.24-.22-.47-.32-.71A.46.46,0,0,1,31,165c.36-.27.69-.58,1-.88Zm1.31,1.64c0,.06,0,.1,0,.12l.63,1.29.83,1.66c.15.31.32.62.48.93s.2.18.34.05l1.51-1.31c.14-.11.14-.2,0-.3a8.42,8.42,0,0,1-.76-.45L34,166.12Z"/><path class="cls-3" d="M43.76,163.85c.84,1,1.68,1.94,2.53,2.9.17.2.19.32,0,.5-.51.42-1,.86-1.49,1.3-.2.18-.33.16-.51-.05l-5-5.79c-.31-.35-.3-.36,0-.67s.93-.78,1.37-1.19c.22-.2.36-.19.55,0l2.56,3Z"/><path class="cls-3" d="M37.54,158.71a1.32,1.32,0,0,1,2,.1,1.25,1.25,0,0,1-.22,1.91,1.29,1.29,0,0,1-1.94-.09A1.32,1.32,0,0,1,37.54,158.71Z"/></g></g></g></svg>