<svg xmlns="http://www.w3.org/2000/svg" xmlns:xlink="http://www.w3.org/1999/xlink" viewBox="0 0 2761.35 1207.97"><defs><style>.cls-1{isolation:isolate;}.cls-2{fill:#bbd070;}.cls-3{fill:#97a43c;}.cls-4{fill:#48753a;}.cls-25,.cls-5{fill:#fff;}.cls-6{fill:url(#linear-gradient);}.cls-7{fill:url(#linear-gradient-2);}.cls-8{fill:#ff9f55;}.cls-9{fill:#eff7fe;}.cls-10{fill:url(#linear-gradient-3);}.cls-11{fill:#5284fc;}.cls-12{fill:url(#linear-gradient-4);}.cls-13{fill:url(#linear-gradient-5);}.cls-14{fill:url(#linear-gradient-6);}.cls-15{fill:url(#linear-gradient-7);}.cls-16{fill:url(#linear-gradient-8);}.cls-17{fill:#f08533;}.cls-18{fill:#fae6de;}.cls-19{fill:url(#linear-gradient-9);}.cls-20{fill:#495da1;}.cls-21{fill:#deccc5;}.cls-22{fill:#eea886;}.cls-23{fill:url(#linear-gradient-10);}.cls-24{fill:url(#linear-gradient-11);}.cls-25{mix-blend-mode:hard-light;}.cls-26{fill:#e8e8e8;}.cls-27{fill:#c1dbd1;}.cls-28{fill:#152b3d;}.cls-29{fill:#323657;}.cls-30{fill:#254380;}.cls-31{fill:#353a3d;}.cls-32{fill:#e55353;}.cls-33{fill:#fb5;}.cls-34{fill:#213a70;}.cls-35{fill:#303669;}.cls-36{fill:#3a3f47;}.cls-37{fill:#a77860;}.cls-38{fill:#968a86;}.cls-39{fill:#807571;}.cls-40{fill:#dbcac2;}.cls-41{fill:#b0a29c;}.cls-42{fill:#ffc055;}.cls-43{fill:#33373b;}.cls-44{fill:#23263d;}.cls-45{fill:#c49441;}.cls-46{fill:#eea987;}.cls-47{fill:#7d699c;}.cls-48{fill:#ab3434;}.cls-49{fill:#1d2033;}.cls-50{fill:#2e334d;}.cls-51{fill:#5a954b;}.cls-52{fill:#ebe2d8;}.cls-53{fill:#2b4724;}</style><linearGradient id="linear-gradient" x1="764.71" y1="676.89" x2="2761.35" y2="676.89" gradientUnits="userSpaceOnUse"><stop offset="0" stop-color="#6b9e34"/><stop offset="0.14" stop-color="#61933c"/><stop offset="1" stop-color="#1f4a6e"/></linearGradient><linearGradient id="linear-gradient-2" x1="317.96" y1="1109.17" x2="317.96" y2="959.71" gradientUnits="userSpaceOnUse"><stop offset="0" stop-color="#ff9f55"/><stop offset="1" stop-color="#ffd255"/></linearGradient><linearGradient id="linear-gradient-3" x1="312.69" y1="772.17" x2="312.69" y2="979.07" gradientUnits="userSpaceOnUse"><stop offset="0" stop-color="#40d5e6"/><stop offset="1" stop-color="#57f"/></linearGradient><linearGradient id="linear-gradient-4" x1="455.08" y1="782.1" x2="455.08" y2="627.41" gradientTransform="translate(910.16 1441.44) rotate(-180)" xlink:href="#linear-gradient-2"/><linearGradient id="linear-gradient-5" x1="278.04" y1="366.2" x2="278.04" y2="539.98" xlink:href="#linear-gradient-3"/><linearGradient id="linear-gradient-6" x1="409.21" y1="280.51" x2="409.21" y2="419.51" xlink:href="#linear-gradient-3"/><linearGradient id="linear-gradient-7" x1="-9154.1" y1="843.6" x2="-9450.56" y2="843.6" gradientTransform="matrix(1, 0, 0, -1, 11491.38, 1687.19)" xlink:href="#linear-gradient-2"/><linearGradient id="linear-gradient-8" x1="-9014.84" y1="1090.49" x2="-9308.43" y2="1090.49" gradientTransform="matrix(1, 0, 0, -1, 11310.21, 2180.97)" xlink:href="#linear-gradient-2"/><linearGradient id="linear-gradient-9" x1="-9666.33" y1="978.81" x2="-9106.36" y2="978.81" gradientTransform="matrix(1, 0, 0, -1, 11673.1, 1957.62)" gradientUnits="userSpaceOnUse"><stop offset="0" stop-color="#609ff0"/><stop offset="1" stop-color="#5a3f9e"/></linearGradient><linearGradient id="linear-gradient-10" x1="1130.12" y1="168.39" x2="1380" y2="168.39" xlink:href="#linear-gradient-2"/><linearGradient id="linear-gradient-11" x1="1388.15" y1="60.82" x2="1502.71" y2="60.82" xlink:href="#linear-gradient-2"/></defs><title>bg-articles</title><g class="cls-1"><g id="Layer_2" data-name="Layer 2"><g id="Слой_1" data-name="Слой 1"><path class="cls-2" d="M2459.61,562.87s-273-117.3-378.39,41.68,42.27,149.09,42.27,149.09,8.2,73.5,147.62-100.46C2336.83,571.19,2459.61,562.87,2459.61,562.87Z"/><path class="cls-3" d="M2507.21,109.66s-242.3-75.15-401.83,232.2-303,331.63-303,331.63S2350.46,771.83,2507.21,109.66Z"/><path class="cls-4" d="M1903.18,691.23c21.22,102.19,255.11-94.85,278.14-271.55S2158.49,113.34,2205,0C2205,0,1798.7,188.06,1903.18,691.23Z"/><path class="cls-5" d="M1839.9,179.39a93.59,93.59,0,0,1,27.37,4c11.2-27.18,39-46.43,71.6-46.43,36.2,0,66.56,23.79,74.72,55.81a57.09,57.09,0,0,1,20.21-3.67c30.13,0,54.56,23.22,54.56,51.87H1763C1763,207,1797.45,179.39,1839.9,179.39Z"/><path class="cls-5" d="M2322,384.3a71.42,71.42,0,0,1,20.86,3.06c8.54-20.72,29.77-35.4,54.6-35.4,27.61,0,50.75,18.14,57,42.56a43.55,43.55,0,0,1,15.41-2.8c23,0,41.61,17.71,41.61,39.55H2263.34C2263.34,405.33,2289.59,384.3,2322,384.3Z"/><path class="cls-6" d="M2363.61,538.22a396,396,0,0,0-185.91,46.06c-108.27-147.47-282.86-243.23-479.82-243.23-235.14,0-438.4,136.45-535,334.47A283.09,283.09,0,0,0,1049,651.71C892,651.71,764.71,779,764.71,936a283,283,0,0,0,10.52,76.77H2753.91a395.61,395.61,0,0,0,7.44-76.77C2761.35,716.31,2583.26,538.22,2363.61,538.22Z"/><path class="cls-7" d="M73.64,982.17H600.75a0,0,0,0,1,0,0v139.36a0,0,0,0,1,0,0H73.64a38.46,38.46,0,0,1-38.46-38.46v-62.43A38.46,38.46,0,0,1,73.64,982.17Z"/><path class="cls-8" d="M691.27,996.52V1107.2h9.25v14.34H318.45A38.46,38.46,0,0,1,280,1083.08v-62.44a38.46,38.46,0,0,1,38.46-38.46H700.52v14.34Z"/><path class="cls-9" d="M346.65,996.52H691.26a0,0,0,0,1,0,0v110.67a0,0,0,0,1,0,0H346.65a38.46,38.46,0,0,1-38.46-38.46V1035A38.46,38.46,0,0,1,346.65,996.52Z"/><path class="cls-10" d="M48.33,820.1h577a0,0,0,0,1,0,0V982.17a0,0,0,0,1,0,0h-577A48.33,48.33,0,0,1,0,933.84V868.43A48.33,48.33,0,0,1,48.33,820.1Z"/><path class="cls-11" d="M727.73,836.79v128.7h8v16.69H421.85a48.33,48.33,0,0,1-48.33-48.33V868.43a48.33,48.33,0,0,1,48.33-48.33H735.69v16.69Z"/><path class="cls-9" d="M446.14,836.78H727.72a0,0,0,0,1,0,0V965.49a0,0,0,0,1,0,0H446.14a48.33,48.33,0,0,1-48.33-48.33V885.11A48.33,48.33,0,0,1,446.14,836.78Z"/><path class="cls-12" d="M261.94,621.37H700.52a0,0,0,0,1,0,0v198.7a0,0,0,0,1,0,0H261.94a52.3,52.3,0,0,1-52.3-52.3v-94.1A52.3,52.3,0,0,1,261.94,621.37Z" transform="translate(910.16 1441.44) rotate(180)"/><path class="cls-8" d="M131.07,641.83v157.8h-8v20.45H435.73a52.3,52.3,0,0,0,52.3-52.3v-94.1a52.29,52.29,0,0,0-52.3-52.3H123v20.45Z"/><path class="cls-9" d="M183.06,641.82H459.58a0,0,0,0,1,0,0v157.8a0,0,0,0,1,0,0H183.06a52,52,0,0,1-52-52V693.81A52,52,0,0,1,183.06,641.82Z" transform="translate(590.65 1441.44) rotate(180)"/><path class="cls-13" d="M73,422.62H538.06a0,0,0,0,1,0,0v198.7a0,0,0,0,1,0,0H73a55,55,0,0,1-55-55V477.61a55,55,0,0,1,55-55Z"/><path class="cls-11" d="M621.3,443.08v157.8h8.5v20.45H298.11a55,55,0,0,1-55-55V477.61a55,55,0,0,1,55-55H629.8v20.45Z"/><path class="cls-9" d="M326.74,443.07H621.29a0,0,0,0,1,0,0v157.8a0,0,0,0,1,0,0H326.74A54.75,54.75,0,0,1,272,546.12V497.83A54.75,54.75,0,0,1,326.74,443.07Z"/><path class="cls-14" d="M183.32,272.2H669.23a0,0,0,0,1,0,0V422.57a0,0,0,0,1,0,0H183.32a34.13,34.13,0,0,1-34.13-34.13V306.33A34.13,34.13,0,0,1,183.32,272.2Z"/><path class="cls-11" d="M752.46,287.68V407.1H761v15.48H408.42a34.13,34.13,0,0,1-34.13-34.13V306.33a34.13,34.13,0,0,1,34.13-34.13H761v15.48Z"/><path class="cls-9" d="M434.35,287.68h318.1a0,0,0,0,1,0,0V407.09a0,0,0,0,1,0,0H434.35A34.13,34.13,0,0,1,400.23,373V321.8A34.13,34.13,0,0,1,434.35,287.68Z"/><path class="cls-15" d="M2019.25,769.05h420.68a0,0,0,0,1,0,0V918.14a0,0,0,0,1,0,0H2019.25a27.49,27.49,0,0,1-27.49-27.49v-94.1A27.49,27.49,0,0,1,2019.25,769.05Z" transform="translate(4431.7 1687.19) rotate(180)"/><path class="cls-16" d="M1878.8,1039.47h512.67a0,0,0,0,1,0,0v102a0,0,0,0,1,0,0H1878.8a19.76,19.76,0,0,1-19.76-19.76v-62.51A19.76,19.76,0,0,1,1878.8,1039.47Z" transform="translate(4250.52 2180.97) rotate(180)"/><path class="cls-17" d="M1804.43,1050.63v79.72H1790.9v11.15h240.53a13.65,13.65,0,0,0,13.65-13.65v-74.72a13.65,13.65,0,0,0-13.65-13.65H1790.9v11.15Z"/><path class="cls-18" d="M1817.56,1050.63h215.33a0,0,0,0,1,0,0v79.72a0,0,0,0,1,0,0H1817.56a13.12,13.12,0,0,1-13.12-13.12v-53.48A13.12,13.12,0,0,1,1817.56,1050.63Z" transform="translate(3837.33 2180.97) rotate(180)"/><path class="cls-17" d="M1920,784.4V902.8h-7.33v15.35h304.82a28.42,28.42,0,0,0,28.42-28.42V797.47a28.41,28.41,0,0,0-28.42-28.41H1912.7V784.4Z"/><path class="cls-18" d="M1948.45,784.4h281.89a0,0,0,0,1,0,0V902.79a0,0,0,0,1,0,0H1948.45A28.42,28.42,0,0,1,1920,874.38V812.81A28.42,28.42,0,0,1,1948.45,784.4Z" transform="translate(4150.38 1687.19) rotate(180)"/><path class="cls-19" d="M2117.75,918.15h413a0,0,0,0,1,0,0v121.33a0,0,0,0,1,0,0h-413a35.13,35.13,0,0,1-35.13-35.13V953.27A35.13,35.13,0,0,1,2117.75,918.15Z" transform="translate(4613.41 1957.62) rotate(180)"/><path class="cls-20" d="M2010.88,930.64V1027h-7.32v12.49h298.11a35.12,35.12,0,0,0,35.12-35.13V953.28a35.12,35.12,0,0,0-35.12-35.13H2003.56v12.49Z"/><path class="cls-18" d="M2046,930.63h276.13a0,0,0,0,1,0,0V1027a0,0,0,0,1,0,0H2046a35.13,35.13,0,0,1-35.13-35.13v-26.1A35.13,35.13,0,0,1,2046,930.63Z" transform="translate(4333.04 1957.62) rotate(180)"/><rect class="cls-21" x="2059.6" y="961.36" width="118.28" height="3.05" transform="translate(4237.48 1925.76) rotate(180)"/><rect class="cls-21" x="2107.02" y="970.62" width="126.3" height="3.05" transform="translate(4340.35 1944.28) rotate(180)"/><rect class="cls-21" x="1832.88" y="1071.25" width="118.28" height="3.05" transform="translate(3784.04 2145.54) rotate(180)"/><rect class="cls-21" x="1880.31" y="1080.51" width="126.31" height="3.05" transform="translate(3886.92 2164.06) rotate(180)"/><rect class="cls-21" x="1966.99" y="1088.96" width="52.25" height="3.05" transform="translate(3986.24 2180.97) rotate(180)"/><rect class="cls-21" x="2058.32" y="864.46" width="126.3" height="3.05" transform="translate(4242.94 1731.96) rotate(180)"/><rect class="cls-21" x="2047.92" y="872.91" width="52.25" height="3.05" transform="translate(4148.09 1748.87) rotate(180)"/><path class="cls-22" d="M2066.67,884.53c0-1.52,1.64-3.86,4.19-1.85s-.6,9.35-2.66,8.7S2066.67,886.11,2066.67,884.53Z"/><path class="cls-23" d="M1359.38,141.37a107,107,0,0,0-11.46-27.61l11.66-17.54-16.17-16.17-16.18-16.18L1309.7,75.53a106.89,106.89,0,0,0-27.61-11.45l-4.16-20.63h-45.75L1228,64.08a106.75,106.75,0,0,0-27.61,11.45l-17.53-11.66-16.18,16.18-16.17,16.17,11.66,17.54a107,107,0,0,0-11.46,27.61l-20.62,4.15v45.75l20.62,4.15A107,107,0,0,0,1162.2,223l-11.66,17.54,16.17,16.17,16.18,16.18,17.53-11.66A107.45,107.45,0,0,0,1228,272.71l4.15,20.62h45.75l4.16-20.62a107.6,107.6,0,0,0,27.61-11.45l17.53,11.66,16.18-16.18,16.17-16.17L1347.92,223a107,107,0,0,0,11.46-27.61l20.62-4.15V145.52ZM1255.06,248.55a80.16,80.16,0,1,1,80.15-80.16A80.15,80.15,0,0,1,1255.06,248.55Z"/><path class="cls-24" d="M1493.25,48.43A49.19,49.19,0,0,0,1488,35.77l5.35-8-7.42-7.42-7.42-7.41-8,5.34A49.54,49.54,0,0,0,1457.82,13l-1.91-9.45h-21L1433,13a49.54,49.54,0,0,0-12.66,5.25l-8-5.34-7.41,7.41-7.42,7.42,5.34,8a49.54,49.54,0,0,0-5.25,12.66l-9.45,1.9v21l9.45,1.91a49.54,49.54,0,0,0,5.25,12.66l-5.34,8,7.42,7.42,7.41,7.41,8-5.34a49.19,49.19,0,0,0,12.66,5.25l1.9,9.46h21l1.91-9.46a49.19,49.19,0,0,0,12.66-5.25l8,5.34,7.42-7.41,7.42-7.42-5.35-8a49.19,49.19,0,0,0,5.25-12.66l9.46-1.91v-21Zm-47.82,49.13a36.75,36.75,0,1,1,36.74-36.74A36.74,36.74,0,0,1,1445.43,97.56Z"/><rect class="cls-25" x="842.19" y="324.5" width="949.26" height="657.09" rx="55.91"/><rect class="cls-26" x="1312.94" y="317.17" width="7.76" height="672.05"/><rect class="cls-27" x="906.28" y="393.74" width="348.78" height="13.18"/><rect class="cls-27" x="906.28" y="442.06" width="348.78" height="13.18"/><rect class="cls-27" x="906.28" y="490.39" width="348.78" height="13.18"/><rect class="cls-27" x="906.28" y="538.71" width="348.78" height="13.18"/><rect class="cls-27" x="906.28" y="587.04" width="348.78" height="13.18"/><rect class="cls-27" x="906.28" y="635.36" width="348.78" height="13.18"/><rect class="cls-27" x="906.28" y="683.69" width="348.78" height="13.18"/><rect class="cls-27" x="906.28" y="732.01" width="348.78" height="13.18"/><rect class="cls-27" x="906.28" y="780.34" width="348.78" height="13.18"/><rect class="cls-27" x="906.28" y="828.66" width="348.78" height="13.18"/><rect class="cls-27" x="906.28" y="876.99" width="348.78" height="13.19"/><rect class="cls-27" x="1376.62" y="393.74" width="348.78" height="13.18"/><rect class="cls-27" x="1376.62" y="442.06" width="348.78" height="13.18"/><rect class="cls-27" x="1376.62" y="490.39" width="348.78" height="13.18"/><rect class="cls-27" x="1376.62" y="538.71" width="348.78" height="13.18"/><rect class="cls-27" x="1376.62" y="587.04" width="348.78" height="13.18"/><rect class="cls-27" x="1376.62" y="635.36" width="348.78" height="13.18"/><rect class="cls-27" x="1376.62" y="683.69" width="348.78" height="13.18"/><rect class="cls-27" x="1376.62" y="732.01" width="348.78" height="13.18"/><rect class="cls-27" x="1376.62" y="780.34" width="348.78" height="13.18"/><rect class="cls-27" x="1376.62" y="828.66" width="348.78" height="13.18"/><rect class="cls-27" x="1376.62" y="876.99" width="348.78" height="13.19"/><path class="cls-22" d="M1515.28,508.57s-5.3-9.27,3.11-34.13c8.13-24.05,36.27-21.87,45.22-6.46s5.92,25-7.25,42.36S1520.75,516.52,1515.28,508.57Z"/><path class="cls-22" d="M1580.65,936.3s1.4,10.21,1.57,11.74,15.49-.9,15.49-.9L1599,935S1582.57,934.86,1580.65,936.3Z"/><path class="cls-28" d="M1582.06,946.74s-4.86,6.16-9.55,8.84-12.07,3.74-14.85,6.52c-2,2-7.29,10.63,12.2,10.45s28.9,1.22,31-2.09-3-24.41-3-24.41S1593.05,947.4,1582.06,946.74Z"/><path class="cls-22" d="M1474.59,936.3s1.39,10.21,1.57,11.74,15.49-.9,15.49-.9l1.24-12.16S1476.51,934.86,1474.59,936.3Z"/><path class="cls-28" d="M1476,946.74s-4.85,6.16-9.54,8.84-22,4.88-24.75,7.66c-2,2-5.33,10.07,22.1,9.31,19.49-.53,28.89,1.22,31-2.09s-3-24.41-3-24.41A80.66,80.66,0,0,1,1476,946.74Z"/><path class="cls-29" d="M1575.5,682.08s7.85,24.4,6.82,45.44,4.06,44,6.14,66c2.32,24.49,11.82,82.48,12.17,95.58s-1.48,54.94-1.48,54.94l-19,.46s-16-101.38-20.11-111.72-24.66-84.09-25.35-92.36S1575.5,682.08,1575.5,682.08Z"/><path class="cls-29" d="M1496.62,679.53s-11.54,64.54-12.92,77.41-2.3,62.3-3,70.34-4.6,105.29-8.28,117.24h21.21s21.78-70.69,21.78-104.13,14.42-72.71,23.73-94.78,30.62-22.59,36.35-63.53C1575.5,682.08,1504.37,666.55,1496.62,679.53Z"/><path class="cls-22" d="M1523,515.14s2.39,7,0,11.93,30.57,2,30.57,2-1.49-10.27,2.81-18.72S1523,515.14,1523,515.14Z"/><path class="cls-29" d="M1577,687.39s-11.86,12.18-81.47-1.89l1.06-6,79.13,3Z"/><path class="cls-22" d="M1518,528.68s-12.18,1.24-15.65,1.91-26.9-4.19-31.7-4.69-25.28-14.53-26-16.18-12.46-31.53-13.12-38-11.49-3.13-10.56,1.32c1.73,8.33,4,28.54,5.19,34.4,1.32,6.33,4.86,20.66,6.84,22.42s20.43,15.79,38.49,21.75a153.75,153.75,0,0,1,31.64,14.75h89s34.61-49.48,35.36-56.93-24.18-57-29.15-63.21-12.15,2-12.15,2,14.89,43.69,16.87,49.9-17.31,33.5-22.61,33.59-18.92-1.66-25-1.91a42.41,42.41,0,0,1-12.43-2.9Z"/><path class="cls-30" d="M1479.64,561.73s10.9,7.24,11.89,19.66a256.91,256.91,0,0,0,7,38.76c2,6.71-1.74,55.41-2.24,58.88s68.85,11.75,79.5,3.48c0,0,3-45.46,4.23-58.38s7.2-44.23,9.19-48.45,26.09-38,27.08-42.49c0,0-12.47-19.87-21.41-20.12,0,0-14.21,16.64-18.84,17.39s-33-4.46-33-4.5-3.1,4.22-19.57-.75c0,0-19.62,2.21-22.81,2.62-3.87.49-30.73-3.37-30.73-3.37s-10.78,18.2-8.89,27.38Z"/><path class="cls-22" d="M1432.19,475.61s-2.43-11.52.5-14.82c1.67-1.88,5.67-6.87,6-7.6s4.67-3.2,4.67-4.39-4.21-2.66-7.87.73-6,4.12-7.42,3.75-3.57-12.54-3.75-15.56-1.35-11-3.24-10.43-1.79,4-1.79,4-2.2-6-3.66-4.85-1.29,4.12-1.29,4.12-2.74-3.39-3.47-.92a8.47,8.47,0,0,0,0,4.67s-2.84-1.56-3,2.29.82,15.1,2.83,19.12,9.55,14.56,10.45,18.68S1432.19,475.61,1432.19,475.61Z"/><path class="cls-22" d="M1588.63,455.39s-8.28-13.92-11.09-15.16-6.79-2-10.27-4.43-8.08-4.56-7.83-5.39,4.35-.49,8.74,1.41,6.31,1,6.73,0-2.34-8-3.67-9.66-10.76-11.16-9.19-12.57,7.7,3.81,8.7,4.89c0,0-4.89-10.27-3-10.76s5.46,3.14,5.46,3.14-.41-8.78,9,5.47c0,0-2-4.72.91-3.15s5.72,10.44,6.63,14.91,5,18.72,8.56,22.15S1588.63,455.39,1588.63,455.39Z"/><path class="cls-31" d="M1556.36,510.34s-4.36.38-13.63-2.82-10-19.42-12-17.5c-4.09,3.92-8,1.21-9.5-1.1,0,0,4.52-6,2.43-8.84a22.17,22.17,0,0,0-5.52-5s6.53-31.45,36.22-17.12C1589.16,474.78,1556.36,510.34,1556.36,510.34Z"/><path class="cls-30" d="M1523,527.07l1-4.55s19-.38,29.29,1.12l1.09,5.43S1541.16,535.08,1523,527.07Z"/><path class="cls-22" d="M1527.65,486.05c1.72-2.87,8.09-4.79,8.84,3.31.58,6.28-11.38,13.14-11.49,7.29S1526.51,488,1527.65,486.05Z"/><path class="cls-32" d="M1431.74,473s-6.84.17-10.15,3.17a6.79,6.79,0,0,0,.55,3.4s5.93-2.76,10.47-3.28C1432.61,476.28,1432.54,473.79,1431.74,473Z"/><path class="cls-31" d="M1423.68,474.7a2.94,2.94,0,1,0,3.85-1.57A2.94,2.94,0,0,0,1423.68,474.7Z"/><polygon class="cls-33" points="1618.17 975.48 1432.46 975.48 1490.99 1155.23 1485.51 1157.02 1424.53 969.72 1622.35 969.72 1682.76 1155.23 1677.29 1157.02 1618.17 975.48"/><polygon class="cls-33" points="1554.97 1155.23 1613.5 975.48 1427.78 975.48 1368.67 1157.02 1363.19 1155.23 1423.6 969.72 1621.43 969.72 1560.44 1157.02 1554.97 1155.23"/><rect class="cls-33" x="1408.14" y="1026.32" width="227.31" height="5.76"/><rect class="cls-33" x="1386.91" y="1088.83" width="271.96" height="5.76"/><path class="cls-34" d="M2029.23,912.45s1.23,10.09,2.87,14.54,10.55,14.73,6.79,24.6c-4.08,10.71-21.89.39-29.15-2.88s-5.61-9.19-6.39-16.45-4.31-7.45-3-12.56,9.25-14.87,9.25-14.87Z"/><path class="cls-22" d="M2013,899.55s-4.55,6.37-4.43,6.55,19.53,12,20.88,8.15a39.49,39.49,0,0,0,1.52-7.45Z"/><path class="cls-34" d="M1947.27,919.58A73.57,73.57,0,0,0,1936,932.74c-5.31,8-19.42,8.4-20,19.28s19.18,11.21,29.56,7.67,12-14.17,18.24-16.83,9.54-4.8,9.06-10-4-13.61-4-13.61a42.39,42.39,0,0,1-6.19,1.5C1960.42,921,1952.7,921.1,1947.27,919.58Z"/><path class="cls-18" d="M2018.46,624.77s-4,23.67-7.19,39.31h0c-1.3,6.34-2.47,11.36-3.2,12.94-.92,2-8.39,10-17.54,19.43-16,16.52-37.24,37.32-37.24,37.32L1945,718s18.83-22.08,31.6-36.81c5.9-6.81,10.51-12.06,11.36-12.81,2.67-2.39,5.76-25.92,10.12-45.3s13.08-30.1,13.08-30.1Z"/><path class="cls-22" d="M1990.53,696.45c-16,16.52-37.24,37.32-37.24,37.32L1945,718s18.83-22.08,31.6-36.81C1980.51,683.15,1987.69,687.73,1990.53,696.45Z"/><path class="cls-22" d="M1948.19,912.33l-.92,7.25a35.71,35.71,0,0,0,21.64-.32l.23-6.45Z"/><path class="cls-18" d="M2094.4,730.57c.6,2.11-109.09,0-109.09,0s30.34-22.08,32.31-28-7.72-41.3-9-52.82c-1-9.21-3.55-50.45,2.53-56.75,6.35-6.58,29.22-13.48,29.22-13.48l33.33,1.24a52.56,52.56,0,0,1,9.44,3c3.93,1.83,26.42,9.84,30.08,21.08s-22.45,47.37-22.45,47.37-.05,1.62-.13,4.28h0c-.1,3.55-.25,8.94-.38,14.79-.18,7.58-.33,15.92-.33,22C2089.94,707.61,2093.81,728.46,2094.4,730.57Z"/><path class="cls-35" d="M2094.4,730.57s14.92,21.91,15.13,36.87-26.47,65.07-30.51,72.23c-12.14,21.55-45.44,68-45.44,68s-5.73-.15-23.64-7.1c0,0,22.15-61.39,25-67.77,11.9-27,18.55-46.2,14.54-50.84s-14.91-9.28-18.07-12-58.22,10.41-64,11.9c-14.94,3.87-8.13,29.87-4.82,41.52,5.53,19.49,10.36,89.9,10.36,89.9s-10.64,4.53-28.46.7c0,0-35-127.12-36.12-139.76s-1.68-33.49,84.56-49.34Z"/><path class="cls-22" d="M2049.52,507.11s-28.94-6.53-22.32,29.89,13.56,39.28,31,31.74,15.9-30.87,16.78-42.31S2058.75,507.5,2049.52,507.11Z"/><path class="cls-22" d="M2041.87,588.89s12.81,13.58,33.07,1.24c0,0-4.53-29.45-2.15-43.79s-26.43,22.22-26.43,22.22c.38.2.63,1.57.69,3.51a39.83,39.83,0,0,1-.3,5.84C2046.15,582.68,2044.67,587.71,2041.87,588.89Z"/><path class="cls-36" d="M2073.59,545.12s-.75-11.48-4.94-11.83-4.84,4.26-4.84,4.26l-4.23.8s1.34-10.06-2.85-11.82-27.11,5.54-30.47,2.59-1.78-23.36,4.3-26.15,22.85-9.05,35.15-.72c0,0,9.58-1.1,11,6.64S2076.19,539.37,2073.59,545.12Z"/><path class="cls-37" d="M2046.75,577.91c20.9-6.44,22.47-19,22.49-19.22-6.88,11.82-22.19,13.38-22.19,13.38A39.83,39.83,0,0,1,2046.75,577.91Z"/><path class="cls-22" d="M2083.49,583.91s-15.3,30.46-40,28.5-4.22-32.59-3.09-32.87S2065.73,573.22,2083.49,583.91Z"/><path class="cls-18" d="M1972.77,729s75.74,9.34,121.63,1.54l-87.68-11S2006.2,721.85,1972.77,729Z"/><path class="cls-22" d="M2029.42,716.17l-5.64,2.86s1.28,9,4.37,11.67l6.33-1.61S2033.16,719.26,2029.42,716.17Z"/><path class="cls-18" d="M2117.07,697.81c-1.13,1.31-16,7.3-32.84,13.78h0c-23,8.85-48.91,17.23-48.91,17.23l-5.9-12.65s27.15-14.75,45.49-25.1c8.67-4.89,15.37-8.79,16.32-9.69,2.94-2.81,3.71-7.32,1.54-15.17s-7.16-44-7.72-48.18,1.4-15.46,11.93-16,15.9,2.41,15.9,2.41,2.65,1.1,4.61,26.67S2119.74,694.72,2117.07,697.81Z"/><path class="cls-38" d="M2090.65,656.48h0c-.1,3.55-.25,8.94-.38,14.79-10.29-25.2-4.34-45.32-4.24-45.65C2084.91,632.46,2090.57,656.14,2090.65,656.48Z"/><path class="cls-38" d="M2011.27,664.08h0c-1.3,6.34-2.47,11.36-3.2,12.94-3.51-17-.35-38.75-.35-38.75C2008.2,648.66,2011.27,664.08,2011.27,664.08Z"/><path class="cls-22" d="M2084.23,711.59h0c-23,8.85-49.75,17.5-49.75,17.5l-5.06-12.92s27.15-14.75,45.49-25.1C2074.91,691.07,2081.59,694.32,2084.23,711.59Z"/><polygon class="cls-39" points="2027.79 729.84 1920.12 728.25 1974.48 755.86 2027.79 729.84"/><polygon class="cls-40" points="1974.48 755.86 2027.79 735.21 2027.79 729.84 1970.27 750.59 1974.48 755.86"/><path class="cls-22" d="M2025,719.22s-6.73-1.05-11.38-2.13c-3.6-.84-12.54.32-14.82,2.63s-9.52,18.39-10.89,19.37.7,3.25,3.11,2.11c0,0,2.21,7,7.66,4.41s9.15-8.39,12-9.4,19.48-6.13,19.48-6.13S2029.28,717.51,2025,719.22Z"/><path class="cls-22" d="M2000.44,718.66a47.35,47.35,0,0,0-5.44,3c-1.13.93-5.7,4.35-6.81,5.16s1.67,3.09,9.84-.45S2000.44,718.66,2000.44,718.66Z"/><polygon class="cls-40" points="1974.48 755.86 1942.46 668.42 1839.22 670.1 1869.74 750.68 1974.48 755.86"/><path class="cls-41" d="M1909.42,707.1c3.15,6.3,2.2,13.16-2.12,15.32s-10.39-1.19-13.54-7.49-2.2-13.15,2.13-15.32S1906.27,700.8,1909.42,707.1Z"/><path class="cls-22" d="M2063.9,532.69c.38-3.22,6.74-4.39,7.25.42s-2.89,13.27-5.3,12.44S2063.38,537.12,2063.9,532.69Z"/><path class="cls-22" d="M1252.93,884s-1,5.64-4.21,6.47c-2.69.71-5.65,3.57-6.57,4.45-1.22,1.17-6.32,3.38-4.86,4.94s8.59-3.24,10.28-3.94-.73,7.13,0,8.91,13.9,5.06,14.94-.51-1.52-12.21-1.15-13.16a34.14,34.14,0,0,0,.92-4Z"/><path class="cls-22" d="M1247.46,903.42s-2.06,17.27-1.23,18.54,1.77,1.32,2-.29,2.47-16.63,2.47-16.63,1,20.85,1.45,22c.26.69,2.08.91,2.3.06s.41-21.57.41-21.57,1,19.47,1.64,20.35a1.34,1.34,0,0,0,2.33-.9c0-1.45.15-19.57.15-19.57s1.6,14.12,2.6,14.53c.62.25,2.18.51,1.66-3.12s-.87-12.33-.87-12.33Z"/><path class="cls-22" d="M1067.44,672.06a47.47,47.47,0,0,1-3.8-9.52c-1-4.23-6.25-9.86-8.4-11.2s-17.73-12.49-19.53-12.49-.76,3.46.8,4.47,14.22,10.87,14.22,10.87-15.75-10.86-17.4-10.57-2.81,2.39-1,4.54c0,0-3.59,2.36.16,5.23l7.44,5.75s-4.38-2.27-2.76,1.25c.87,1.87,10,7.33,11.49,9s13,7.3,13,7.3Z"/><path class="cls-22" d="M1159.72,1156.08h-3.9s1.3-14.75-2.32-14.89-12.57,12-17.92,13.87-32.81,3.47-32.95-1.59,10.55-7.08,13.87-8.52,19.52-17.2,22.4-19.08,7.67-11.42,7.67-11.42h14.74s1.61,8,2.54,14.47a57.31,57.31,0,0,1,.64,6C1164.63,1140.47,1159.72,1156.08,1159.72,1156.08Z"/><path class="cls-22" d="M1227.54,1153.16h-3.25v-13.72c-2.71.22-11.82,8.84-14.63,11.34s-6.69,2.38-18.56,3.13-13-6.35-11.11-8.77,8-3.47,11.11-5,15.63-15.58,19-18.9,5.34-12.85,5.34-12.85l13.88,1.21a85,85,0,0,0,1.49,16h0a.13.13,0,0,1,0,.06q.21.93.45,1.83C1233.29,1135.13,1227.54,1153.16,1227.54,1153.16Z"/><path class="cls-22" d="M1195.09,694.5s6.77,14.29,3.15,26c0,0,20.84-2.84,21.46-5.27s-2.61-24.35-.2-31.07S1195.09,694.5,1195.09,694.5Z"/><path class="cls-42" d="M1194.59,715.74s-12.06,5.18-17.56,6.77-16.81,7.83-14.39,28.06,7.19,37.58,9.09,46.21,2.72,30.89,1.44,41.82c0,0,30.18,5.15,64.54-4.67,0,0-7.52-17.95-7.71-22.72s17.44-45.42,17.94-51.67,2.65-33.83-7.14-39.18-17.35-4-21.51-6.41S1200.24,713.39,1194.59,715.74Z"/><path class="cls-42" d="M1194.65,747.2s4.63-24.29-18.92-24.25c-20.71,0-40.27-3.89-43.55-5.72s-15.94-8-22.59-14.88-42.69-34.24-42.69-34.24l-10,10.07s38,41.28,44.14,45.3,57.59,32.76,64.12,33.67S1190.06,763,1194.65,747.2Z"/><path class="cls-42" d="M1268.66,822.28c.71,8.55-4,67.63-4,67.63L1248,891.84s1.19-58.35,2.13-71.8c.28-4-.64-10-2.07-16.63h0c-.91-4.19-2-8.58-3.17-12.77-3.17-11.57-6.59-21.62-6.59-21.62s-18.75-48.8,4.78-46.82A56.79,56.79,0,0,1,1255.49,746c3.7,14.8,7.94,37,8.1,45.8S1268.15,816,1268.66,822.28Z"/><path class="cls-29" d="M1177.21,838.12s-5.41,12.78-5.89,16-17.42,45.42-18.6,57.76-4.77,45.79-6,50.56,2.86,26.08,3.5,30.85.32,82.67-5.41,121.15c0,0,13.36,5.72,23.53,0,0,0,16.86-60.1,15.9-94.76s-5.35-49.29,0-63.28,36.86-56,40-60.42,23.1-29,4.24-55.7S1177.21,838.12,1177.21,838.12Z"/><path class="cls-29" d="M1242.31,952c-1.68,11.13.08,25.75,3.58,66.46s-6.12,90-6.12,90c-12.08,4.14-26,0-26,0,.31-2.86,0-99.21,0-107.79s-2.47-18.33-3.11-28.19c-.43-6.71-3.55-19.09-7.07-31.73-1-3.79-2.14-7.6-3.2-11.28h0c-.6-2.06-1.18-4.1-1.74-6.06-5-17.17-11.61-83.48-11.61-83.48s36.9-29.72,54.87-1.74,8.74,48.34,8.11,51.83S1244,940.83,1242.31,952Z"/><path class="cls-42" d="M1170.79,788.11s3.28,52.68-6.52,82.32c0,0,39,6.5,88.68-10.25,0,0-13.67-35.41-13.2-40.95s14.86-70,8-84.44S1173.25,740.84,1170.79,788.11Z"/><path class="cls-22" d="M1202.63,635.77c-8.91-.36-31.66,3.09-27.42,37.38s16.61,31.31,28.88,26.76,25.24-32.28,24.72-39.41S1228.05,636.8,1202.63,635.77Z"/><path class="cls-43" d="M1175.33,657.3s10.88,12,21.11,14.29c0,0,8.7,13.21,22.4,15.75,0,0,26.67-29.49,1.08-48.36S1174.41,646.79,1175.33,657.3Z"/><path class="cls-22" d="M1194.21,667c.2-1.91,4.09-6,7.62-2s-1.62,14.46-3.84,14.63S1193.46,674.22,1194.21,667Z"/><path class="cls-44" d="M1227,892.16c-.29.63-18.68,41.45-23.41,48.53-1-3.79-2.14-7.6-3.2-11.28h0S1226.39,893.06,1227,892.16Z"/><path class="cls-45" d="M1248.84,761.56s1.3,25.94-.82,41.84c-.91-4.19-2-8.58-3.17-12.77C1244.94,790,1248.5,765.66,1248.84,761.56Z"/><path class="cls-42" d="M1167.65,741.42s-8,28.46-9.65,34.43c-2.19,7.76,8.86,19.19,17.85,14.7S1167.65,741.42,1167.65,741.42Z"/><path class="cls-29" d="M1227.54,1153.16h-3.25v-13.72c-2.71.22-11.82,8.84-14.63,11.34s-6.69,2.38-18.56,3.13-13-6.35-11.11-8.77,8-3.47,11.11-5c12.7.68,28.2-17.18,35.63-17.14,4,0,3.92,2.21,4,2.62h0a.13.13,0,0,1,0,.06q.21.93.45,1.83C1233.29,1135.13,1227.54,1153.16,1227.54,1153.16Z"/><path class="cls-29" d="M1159.72,1156.08h-3.9s1.3-14.75-2.32-14.89-12.57,12-17.92,13.87-32.81,3.47-32.95-1.59,10.55-7.08,13.87-8.52c11.33,0,29.75-12.5,35.46-15a20.59,20.59,0,0,1,11.89-1,57.31,57.31,0,0,1,.64,6C1164.63,1140.47,1159.72,1156.08,1159.72,1156.08Z"/><path class="cls-43" d="M1209.49,633.55s31-.71,26.34,52.56c-3.58,40.94,11.48,61.17,9.36,67.14s-9.39,15.94-25.67,6.94-5.56-55.92-14.3-74.18-27.94-26.72-27.94-26.72S1180.65,628.2,1209.49,633.55Z"/><path class="cls-46" d="M747.45,1035.93c-3.26,7-49.42,70.25-52.22,77.4s-21.85,37.29-21.85,37.29l-11.72-8.23s30.44-86,39.94-97.83h0a7.63,7.63,0,0,1,.63-.7c1.19-1.17,2.45-2.4,3.73-3.68h0c8.08-8.06,10.88-15.41,4.84-23.72-7-9.64-30.18-64.75-31.27-70.19s-42-79.42,45.38-49.11c0,0,14.76,46.15,16.93,80.19S750.72,1028.94,747.45,1035.93Z"/><path class="cls-37" d="M706,1040.18s0,22.64-1,29.71a161.18,161.18,0,0,0-1,17.07s-9.54-28.4-2.45-42.4h0a7.63,7.63,0,0,1,.63-.7C703.42,1042.69,704.68,1041.46,706,1040.18Z"/><path class="cls-22" d="M796,763.38s2.73-6.66,3.74-8.18-2.14-4.82-4.11-.86-3.19,6.49-3.19,6.49Z"/><path class="cls-47" d="M793.29,769.64,802.54,741a3.32,3.32,0,0,0-2.51-4.27l-13.94-2.75a3.32,3.32,0,0,0-3.87,2.48l-7,29.46a3.32,3.32,0,0,0,2.67,4l11.71,2A3.34,3.34,0,0,0,793.29,769.64Z"/><path class="cls-22" d="M797.07,767.72s1.17-2.48-2.9-6.64c-5.41-5.53-13-11.91-14.78-11.64-2.58.39-2.07,2.43,1.57,5.32l4.84,3.82s-7.81-3.74-10-3.44-3.09,2.5-1.9,3.36a36.89,36.89,0,0,0,4.24,2.22s-3.48-1.13-4.33.13c-.63.93-1.29,2.34,1.74,4.14,0,0-3.1,1.64-.37,4.42s3.09,4.47,2.67,8.1,1.88,9.35,1.88,9.35l10.55-1.18s1.94-9.47,3.31-11.68S797.07,767.72,797.07,767.72Z"/><path class="cls-29" d="M791.43,786.86c0,2.67-41.35,55.9-44.63,55.95-5.1.07-11.42-7.58-16.25-14.82,0,0,.24-1.19,1.78-14.3s-4.08-21.75-4.08-21.75-4.27,18.38-2.65,28c-1.55-2.72-2.49-4.55-2.49-4.55s-39.88-42.83-14.41-54.26c0,0,13.28,4.46,19.11,14.73s8.3,21.37,10.29,27.64c0,0,6.06,13,7.73,11.83s9.8-12.49,16.46-17.79,13.92-17.88,13.92-17.88S791.41,783.84,791.43,786.86Z"/><path class="cls-48" d="M732.33,813.69c-1.54,13.11-1.78,14.3-1.78,14.3-2-2.92-3.66-5.78-4.95-8h0c-1.62-9.64,2.65-28,2.65-28S733.88,800.59,732.33,813.69Z"/><path class="cls-46" d="M695.78,1189.44c0,3.61.23,5.6-10,5.74s-20.14-13-27-22.28-15.88-13.67-10.24-19.94c.7-.77,1.43-1.56,2.19-2.33,5.35-5.57,11.71-11,12.55-12.14.95-1.27,10.17,12.13,10.17,12.13s-.78,6.72.87,10.65,4.26,18.16,9.12,20.52h0C688.24,1184.15,695.78,1188.65,695.78,1189.44Z"/><path class="cls-46" d="M757.5,1207.62c-7.35-.14-28.17-1.21-39.74,0s-16.06-.55-15.24-8.85c0-.46.09-.91.15-1.38,1-8.11,4.29-18.32,4.51-21.71.24-3.59,14.88-1.6,14.88-1.6s7.68,11.34,11.9,13.66,17,7,21.89,9.21c.35.16.74.3,1.15.44h0c5.17,1.76,13.93,2,15.19,4.77C773.56,1205.17,764.85,1207.76,757.5,1207.62Z"/><path class="cls-46" d="M655.24,893.88s-20.8,32.3-15.67,61.67,24,61.42,27.22,73.78,2.5,25.36,2.52,35.17c0,15.61,9.18,45,16.24,59.45,6.87,14.08,22.27,54.34,22.27,54.34l14.69-2.1s-21.22-99.31-21.45-106.53,1.63-28.68-.46-38-11.19-72.5-14.22-84.15S693.78,874.3,655.24,893.88Z"/><path class="cls-29" d="M724.14,886.9s3.92,14.4,5.33,18.58,13.62,57.13,18.86,97.47c0,0-18.68,30-86.66,28.91,0,0-25.25-62.24-24.61-84.42.75-25.81,13.7-60.29,22-66.68C666.52,875.07,724.14,886.9,724.14,886.9Z"/><path class="cls-49" d="M732.33,813.69c-1.54,13.11-1.78,14.3-1.78,14.3-2-2.92-3.66-5.78-4.95-8h0c-1.62-9.64,2.65-28,2.65-28S733.88,800.59,732.33,813.69Z"/><path class="cls-29" d="M649.91,817.1c4.56,8.86,7.16,23.31,9.78,26.72,5,6.46,3.51,15.54,3.49,18.44,0,8.45-10.85,29.17-10.85,29.17,5.22,2.78,73,5.17,71.81-4.53s.54-43.9,1.25-51.09-.24-14.31.4-17.45,4-8.77,4.3-17.41-6.1-16.11-8.63-22.24c-3.06-7.42-8.7-17.6-14-17.84-4.79-.21-11.55-3.15-11.55-3.15l-18.95-1.46a58.86,58.86,0,0,1-13.34,2.42c-8.06.6-12.44,1.47-20.58,5.93s-4.27,34.95-4.27,34.95A97.35,97.35,0,0,1,649.91,817.1Z"/><path class="cls-22" d="M697,737.46s-.35,2.22-.64,5.5c-.15,1.67-.28,3.61-.34,5.67-.17,5.69.2,12.26,2.26,16.38,0,0-10.34,6.72-22.09-8.63,0,0,.54-19.48-6.24-29.64S697,737.46,697,737.46Z"/><path class="cls-22" d="M671.54,757.61s5.33,27.49,21.94,23.87S696.82,758,696.82,758,689.71,751.47,671.54,757.61Z"/><path class="cls-22" d="M644.79,833.63a83,83,0,0,0,11.41,5c3.38,1,10.51,5.86,11.53,8.6s.86,17.91,1.64,19.25-1.88,2.1-3.47.17c0,0-4.64,4.23-8.23-.17s-4.47-10.33-6.49-12.36-14.12-13.29-14.12-13.29S641.83,830.44,644.79,833.63Z"/><path class="cls-29" d="M709.34,714.26s-3.26,32.12,2.68,40.17c0,0-15.71-3.42-19.35-8.83S709.34,714.26,709.34,714.26Z"/><path class="cls-22" d="M688,678.11s19.2-.5,22.74,22.24-4.64,42.72-7.84,45.92-22.41.77-26.93-11-11.15-20.42-10.16-30.58S664.42,677.72,688,678.11Z"/><path class="cls-29" d="M711.59,709s5.15-28.36-20.35-33.44-34.44,12.37-36.87,22.74.45,39.63.45,39.63,17,14.9,27.15,18.76c0,0-8.5-31.12-5.3-53.42,0,0,20.71,3.25,34.47-.14C711.14,703.08,711.56,707.73,711.59,709Z"/><path class="cls-37" d="M696.4,747.52s-6.68,0-15.75-5.94c0,0,6.39,8,15.28,10.95C695.93,752.53,696.46,748.54,696.4,747.52Z"/><path class="cls-29" d="M757.5,1207.62c-7.35-.14-28.17-1.21-39.74,0s-16.06-.55-15.24-8.85c0-.46.09-.91.15-1.38,2.79-1.93,22.85-.76,34.71.78s19.62-.78,19.62-.78h0c5.17,1.76,13.93,2,15.19,4.77C773.56,1205.17,764.85,1207.76,757.5,1207.62Z"/><path class="cls-29" d="M696.1,1189.31c0,3.61-.09,5.73-10.35,5.87s-20.14-13-27-22.28-15.88-13.67-10.24-19.94c.7-.77,1.43-1.56,2.19-2.33.31.27,13.58,12.26,17.82,20.63,7,13.91,14.56,10.47,14.89,10.53h0C688.24,1184.15,696.1,1188.52,696.1,1189.31Z"/><path class="cls-29" d="M669.25,769c-1.67-4.27-15.22-10.74-26.76-4.07s-20.39,14-27.15,16.9-30.51,20.89-33,25.14c-2.19,3.76-3.76,6.17,5.94,12.37,9.92,6.33,48.84,24.16,48.84,24.16L645.83,833s-10.43-6.65-18.14-11.61-4.78-3.48-13.53-8.27c0,0,14.57-8.84,20.1-10.76S676.81,788.18,669.25,769Z"/><path class="cls-5" d="M167.29,311.05s-7.81-14.33-12.25-19.49-19.19-9-17.19-15.61,21.78-3.73,27.22,2.72,22.06,8.74,22.63,11.46-5.77,17.62-9.33,20.06S167.29,311.05,167.29,311.05Z"/><path class="cls-5" d="M134.11,323.19s-12.72-10.09-18.84-13.06-21.2-.66-22-7.5,18.5-12.07,26.06-8.31,23.72-.74,25.32,1.53,1.7,18.46-.6,22.11S134.11,323.19,134.11,323.19Z"/><path class="cls-22" d="M162.35,349.44s5.55-38,5.3-44.56c-.07-1.87,11.42-1.18,10.89,2.44-1.17,7.88,4.13,38.39,3.21,44S161.87,353,162.35,349.44Z"/><path class="cls-22" d="M145,360.35s-10.4-36.87-12.82-43c-1.08-2.73,9.52-7,11-2.09,2.26,7.63,19,33.59,20.42,39.08S145.92,363.76,145,360.35Z"/><path class="cls-29" d="M152.18,386s-11.18-37.67-12.9-41.68l17.62-10.89s8.17,24.07,9.32,30.08S152.18,386,152.18,386Z"/><path class="cls-50" d="M464.07,286.42s-17,4.31-25.11,17.17-15.1,27.69-30.31,34.41-15.31,24.05-14.12,26.72,47.91,55.2,58.11,57.23,29.29.62,27.24-12.87-22.05-42.54-10.82-57.19,14.07-28.14,14.07-28.14Z"/><path class="cls-22" d="M461.1,349.25a6.46,6.46,0,0,0-1.33-.25,8.43,8.43,0,0,0-5.54,1.26c-4,2.38-13.61,8.85-14.9,9-1.5.18-.23-22.14-.23-22.14s5.09-9,5.73-14.95S461.1,349.25,461.1,349.25Z"/><path class="cls-29" d="M341.41,372.57s-18.69-13.11-40.61-9-24.28,14.33-31.8,14.79-32.66-1.69-53.29,4.33-38,6.66-40.4,4.94,12.89-36.1,12.89-40.82l-25.57-6.66s-7.3,30.51-10.17,37.38c-3.06,7.36-9,21.2-.57,33.24s31.8,6.61,46,9,77.66.87,88.75.28c12-.65,48.34-2.37,48.34-2.37Z"/><path class="cls-22" d="M495,304.63s1.19,18.47-2.91,24a26.48,26.48,0,0,1-3.5,4.07,8.16,8.16,0,0,0-2.34,3.39c-1.26,3.55-2,8.55-3.05,9.61s-4.29-1.79-5.45-1.8-12.4,9.7-15.09,7.72-19.1-18.64-17.72-30.06,6.41-28.46,24.89-28.36S493.53,300,495,304.63Z"/><path class="cls-51" d="M439.11,392.77c-.36.76-7.15,11.61-14.6,17.9-3.09,2.62-6.29,4.45-9.18,4.45-.89,0-1.75,0-2.59,0-8.54.23-15.1,1.54-26.64,2.11-12,.6-41-1.07-41.9-1.07s-9.24,1.5-9.24,1.5c-3-3.65,5-44.9,6.45-45.12s11.17,3.44,20.41,1.93,12.89-2.36,26.65-18.47,27.5-20.2,33.3-18.91,17.34,0,17.34,0S439.61,391.69,439.11,392.77Z"/><rect class="cls-52" x="504.71" y="428.87" width="71.34" height="7.74"/><polygon class="cls-52" points="593.34 361.29 568.72 434.15 576.08 436.56 600.68 363.74 593.34 361.29"/><path class="cls-50" d="M487.18,317.86s3.45,8.92,5.27,10.15c0,0,6.65-7,2.38-24.37s-20.37-19-30.76-17.22c-12.94,2.2-26,46-25.3,50.24S453.94,314,466.64,316.2,479.45,319.07,487.18,317.86Z"/><path class="cls-37" d="M459.77,349a10,10,0,0,0-3.94.57,8.31,8.31,0,0,0-1.6.69c-3-4.64-5.72-15.63-5.81-16C450.4,340.28,459.77,349,459.77,349Z"/><path class="cls-53" d="M424.51,410.67c-3.09,2.62-6.29,4.45-9.18,4.45-.89,0-1.75,0-2.59,0l3.52-34.2Z"/><path class="cls-22" d="M439.94,377.57s1.06,26.94,1.6,31.46-.05,7.16,4.82,7.59,38.59,4.3,48.9,6,14.2-2.32,16.06-2.9,13.55-.94,17,.21c3.65,1.21,8.38,4.08,11.39,4.51s7.16,2.12,6.87,3.55-6.94,1.22-9,1.22-34.06-.86-35.63-.08c-2,1-27.9,2.3-32.63,2.3s-42.26,2.93-45.55-1.65-7.52-51.86-7.09-54S437.61,372.54,439.94,377.57Z"/><path class="cls-51" d="M441.61,378.16s1.29-35.9-10.38-35.46c-14.76.57-17,18.63-15,38.25C416.26,381,438.32,381.17,441.61,378.16Z"/></g></g></g></svg>