<svg xmlns="http://www.w3.org/2000/svg" xmlns:xlink="http://www.w3.org/1999/xlink" viewBox="0 0 474 362.28"><defs><style>.cls-1,.cls-11,.cls-12,.cls-45{fill:none;}.cls-2{isolation:isolate;}.cls-3{fill:#c8eefb;}.cls-4{fill:#5084da;}.cls-5{fill:#5193f4;}.cls-25,.cls-27,.cls-6{opacity:0.4;}.cls-17,.cls-21,.cls-25,.cls-27,.cls-30,.cls-31,.cls-34,.cls-35,.cls-36,.cls-38,.cls-42,.cls-44,.cls-6,.cls-8{mix-blend-mode:multiply;}.cls-7{opacity:0.23;}.cls-8{fill:#605aca;}.cls-15,.cls-23,.cls-31,.cls-36,.cls-8{opacity:0.5;}.cls-9{fill:#4ca1ff;}.cls-10{fill:#52d2bc;}.cls-11{stroke:#00ad9f;}.cls-11,.cls-12,.cls-45{stroke-linecap:round;stroke-linejoin:round;}.cls-12{stroke:#0b43a4;opacity:0.31;}.cls-13{fill:#4a84d8;}.cls-14{fill:#00ad9f;}.cls-15{mix-blend-mode:screen;}.cls-16{fill:#7ee8d4;}.cls-17{fill:#5a4fd1;opacity:0.37;}.cls-18{fill:#0056ec;}.cls-19{fill:#fff;}.cls-20{clip-path:url(#clip-path);}.cls-21{opacity:0.09;}.cls-22,.cls-23{fill:#94ebff;}.cls-22,.cls-30,.cls-34,.cls-35,.cls-44{opacity:0.3;}.cls-24,.cls-25,.cls-44{fill:#f9714e;}.cls-26,.cls-27{fill:#ffb255;}.cls-28,.cls-35{fill:#ffc2d3;}.cls-29,.cls-31{fill:#2e2c84;}.cls-32{fill:#001f64;}.cls-33,.cls-34{fill:#8fc2ff;}.cls-36{fill:#ffc87c;}.cls-37{fill:#f9acc8;}.cls-38{opacity:0.1;}.cls-39{fill:#4b48b5;}.cls-40{fill:#568edb;}.cls-41{fill:#5e9ce4;}.cls-42{opacity:0.16;}.cls-43{fill:#4e84d9;}.cls-45{stroke:#086356;}</style><clipPath id="clip-path"><circle class="cls-1" cx="241.99" cy="120.88" r="24.65"/></clipPath></defs><title>bg-login</title><g class="cls-2"><g id="Layer_2" data-name="Layer 2"><g id="BACKGROUND"><path class="cls-3" d="M445.28,129.85c6.64,12.07,16.3,23.45,17.13,37.05,1.34,21.86-20,38.34-28.68,58.59C423,250.35,432,279.65,422.53,305c-6.86,18.34-23.69,33-43.46,37.84-14.83,3.63-30.42,2-45.72,2.14-43.45.42-86.73,15.45-129.58,8.63-21.17-3.37-41.17-12-62.43-14.73-25.49-3.3-55.2.7-73.42-16.63C42.47,298,61.37,253.5,42.26,224.46c-6.15-9.35-16.06-16.66-19.38-27.24C19,184.86,25.29,171.69,33.1,161.16s17.47-20.23,21.7-32.49c3.84-11.12,1.49-23.22-3.23-34-7.24-16.57,12.91-54.55,52.87-51.7C122.75,44.24,131,23,151.09,17.14c23-6.73,51.89-1.32,68.84,4.32,17.22,5.72,38.51,8.73,48.39-5.9,13.94-20.65,55.49-23.88,74.15,9.66,6.82,12.25,12.89,21.78,27.39,20.84C448.48,41,435.41,111.91,445.28,129.85ZM231,16.54c0,2.81,0,7.64,12.4,6.85,3.8-.24,6.9-2.28,6.9-5.09s-3.09-5.09-6.9-5.09S231,12.05,231,16.54ZM108.87,30.19a2.53,2.53,0,0,0-.82,1,7.29,7.29,0,0,1-3.61,2.59A6.42,6.42,0,0,0,102.1,35a2.52,2.52,0,0,0,.24,3.63,4.85,4.85,0,0,0,3.3.72,20.83,20.83,0,0,0,11.85-4.43C121.85,31.45,111.27,28.89,108.87,30.19ZM97.1,36.67c-1.45-1-3.32-.41-4.77.34a1.31,1.31,0,0,0-.73.71c-.19.68.68,1.17,1.38,1.39a5.68,5.68,0,0,0,3.39.31C97.46,39.06,98.56,37.62,97.1,36.67ZM42.27,126.33c-1.07-3.28-3.61-4.91-7.46-3a14.05,14.05,0,0,0-5.26,5.26c-2.21,3.35-4.11,7.18-3.65,11.12a10.48,10.48,0,0,0,4.45,7.27,5.92,5.92,0,0,0,3.44,1.19,6.5,6.5,0,0,0,3.65-1.6,36,36,0,0,0,6.32-6.95A9.2,9.2,0,0,0,46,135.34C46.35,132,43.26,129.34,42.27,126.33Zm402,101a5.29,5.29,0,0,0-2.54,1.77,5.09,5.09,0,0,0-.65,2.29,45.85,45.85,0,0,0-.28,5c0,1.81.2,3.83,1.59,5.07,1.88,1.66,4.87,1.08,7.33.39a7.21,7.21,0,0,0,3.77-1.92,6,6,0,0,0,1.07-2.82c.59-3.31,2.42-8.34.4-10.05S447.77,225.87,444.24,227.31ZM305.37,355.73a5.85,5.85,0,0,0-1.28,1.58,3.49,3.49,0,0,0,1.8,4.62,7.19,7.19,0,0,0,2.85.34c8.27-.11,17.16-.41,23.77-5.16.81-.58,1.64-1.39,1.5-2.34-.18-1.16-1.61-1.65-2.8-1.89C322.94,351.29,312,349.5,305.37,355.73ZM148.38,343c-7.19-1-18.63-2.35-18.63,3.47,0,2.2,10.15,4.31,11.83,4.71a137.2,137.2,0,0,1,15.13,5c9.42,3.48,17-1.2,9.51-6.46A38.28,38.28,0,0,0,148.38,343Z"/></g><g id="OBJECTS"><path class="cls-4" d="M384.74,205.45a128.58,128.58,0,0,0,32.55-8c.5-.21.8,3.19.8,3.19s2.33-4.55,3.14-4.93c8.58-4,16.44-9.67,20.65-17.47,0,0,2.08,47.82-59.4,58.44Z"/><path class="cls-4" d="M405.18,260s20.29,10.76,60,12.63c0,0-27,24.63-88.74,16.15l2-28Z"/><path class="cls-5" d="M376.8,232.7a121.18,121.18,0,0,1,24-10.9c.59-.2,1.85,3.3,1.85,3.3s2-4.56,3.1-4.88c17.76-5.32,42.06-8.79,68.23-1.41,0,0-7.93,11.05-24.16,23.14-.69.52-5.27.11-5.27.11s1.92,2.32,1.29,2.76a155.34,155.34,0,0,1-65.84,26Z"/><g class="cls-6"><path class="cls-4" d="M474,218.81a227.79,227.79,0,0,1-23.89,13.24c-8.19,4-16.61,7.52-25.13,10.74-4.26,1.63-8.61,3-12.93,4.46l-6.55,2c-1.09.32-2.18.67-3.28,1l-3.31.83a224.62,224.62,0,0,1-26.8,5.27l6.68-1.38,3.34-.67c1.11-.25,2.21-.54,3.32-.81l6.63-1.57,6.56-1.82c4.39-1.17,8.7-2.61,13-3.93,4.29-1.49,8.61-2.89,12.84-4.55,8.53-3.11,16.91-6.63,25.16-10.42q6.19-2.83,12.28-5.91T474,218.81Z"/><path class="cls-4" d="M418.51,244.45c1.69-1.58,3.33-3.19,5-4.79s3.23-3.25,4.77-4.94,3-3.42,4.46-5.2,2.72-3.66,4-5.61a29.53,29.53,0,0,1-3.16,6.21,45.77,45.77,0,0,1-4.31,5.5A49.09,49.09,0,0,1,418.51,244.45Z"/><path class="cls-4" d="M393.94,251.82a44.33,44.33,0,0,0,5.12-4,39.61,39.61,0,0,0,4.43-4.64,38.31,38.31,0,0,0,3.69-5.24,56.26,56.26,0,0,0,2.94-5.8,24.53,24.53,0,0,1-2,6.28,26.12,26.12,0,0,1-3.58,5.6,27.09,27.09,0,0,1-4.8,4.59A22,22,0,0,1,393.94,251.82Z"/><path class="cls-4" d="M418.51,244.45a84.12,84.12,0,0,0,9.4,0c1.55-.09,3.09-.27,4.63-.49s3.07-.56,4.66-.85a17.85,17.85,0,0,1-4.44,1.86,23.33,23.33,0,0,1-4.76.8,25.85,25.85,0,0,1-4.82-.14A18.65,18.65,0,0,1,418.51,244.45Z"/><path class="cls-4" d="M394.43,251.86c1.91.23,3.81.41,5.69.61s3.77.33,5.65.41,3.76.08,5.64,0,3.75-.27,5.66-.56a21.41,21.41,0,0,1-5.57,1.59,33,33,0,0,1-5.79.26A35.58,35.58,0,0,1,394.43,251.86Z"/></g><g class="cls-7"><path class="cls-8" d="M435.56,190.65a35.47,35.47,0,0,1-7.79,11.92,51.46,51.46,0,0,1-11.31,8.83l-3.17,1.7c-1.05.58-2.18,1-3.27,1.48a60.31,60.31,0,0,1-6.74,2.45c-1.13.4-2.31.62-3.46.91l-3.48.83c-2.35.37-4.71.71-7.06,1,2.3-.6,4.62-1.07,6.92-1.65l3.4-1a33,33,0,0,0,3.37-1.07c2.19-.87,4.44-1.56,6.55-2.62,1.06-.51,2.17-.92,3.19-1.49l3.09-1.69a59.94,59.94,0,0,0,11.25-8.4c.84-.82,1.69-1.63,2.45-2.53.39-.44.79-.87,1.17-1.32l1.09-1.39A33.73,33.73,0,0,0,435.56,190.65Z"/></g><path class="cls-9" d="M452.18,276c-2.78.54-5.59.87-8.4,1.2s-5.65.47-8.48.62a146.13,146.13,0,0,1-17-.24c-2.83-.24-5.65-.57-8.46-1a73.89,73.89,0,0,1-8.35-1.68,57.47,57.47,0,0,1-15.73-6.36,62.28,62.28,0,0,0,7.84,3.15,73.85,73.85,0,0,0,8.12,2.22,117.32,117.32,0,0,0,16.68,2.37c5.6.49,11.24.6,16.87.55S446.55,276.49,452.18,276Z"/><path class="cls-9" d="M425.59,285.91a21.19,21.19,0,0,1-10.86-2.14,16.67,16.67,0,0,1-4.54-3.37,12.6,12.6,0,0,1-2.79-4.82,20.68,20.68,0,0,0,3.51,4.08,22.17,22.17,0,0,0,4.42,2.93,34,34,0,0,0,5,2A48.19,48.19,0,0,0,425.59,285.91Z"/><path class="cls-9" d="M410.8,286.79a21.29,21.29,0,0,1-10.14-4.44,17,17,0,0,1-3.7-4.27,12.71,12.71,0,0,1-1.68-5.32,20.76,20.76,0,0,0,2.54,4.75,22.13,22.13,0,0,0,3.68,3.81,34.84,34.84,0,0,0,4.43,3A52.82,52.82,0,0,0,410.8,286.79Z"/><path class="cls-10" d="M248.67,327.22a33,33,0,0,0-25-11.2c-7,.09-13.78,2.4-20.72,2a26.49,26.49,0,0,1-24.62-30.27c.8-5.5,3.67-11,8.66-13.48a16.69,16.69,0,0,1,8.86-1.4,24.78,24.78,0,0,1,8,2.13c5.76,2.56,10.77,7.06,14.77,12,3.64,4.52,11.94,11.18,17.55,15.47,3.29,2.51,5.66,4.21,5.66,4.21C245.75,310.34,246,322.56,248.67,327.22Z"/><path class="cls-11" d="M187.72,289.7c17.48,5,36.79,12,50.44,24"/><path class="cls-5" d="M300.37,287.24a22,22,0,0,1-2.26,8.51,19,19,0,0,1-3.78,4.82,27.85,27.85,0,0,1-2.43,2.06,35.5,35.5,0,0,1-10.61,5.56c-5.46,1.74-11.32,2.06-16.34,5.14a19.8,19.8,0,0,0-8.19,10.27l0-4.9c.53-5.42,1.08-10.94,3.1-16.12a45.86,45.86,0,0,1,5.25-9.46,65.89,65.89,0,0,1,11.43-12.86c3.53-3,7.57-5.5,11.89-6.14s8.89.95,10.87,4.74C300.54,281.3,300.64,284.33,300.37,287.24Z"/><path class="cls-12" d="M259.77,314.13a40.53,40.53,0,0,1,14.86-17.94c4-2.65,8.46-4.46,12.58-6.94s8.09-5.86,10-10.39"/><path class="cls-10" d="M253,318.58c7.69-7.63,18.6-11.12,29.32-12.66,8.94-1.28,18.34-1.33,26.7,2.08,2.62,1.07,5.21,2.56,6.76,4.93s1.77,5.79-.13,7.89c-1.59,1.78-4.19,2.21-6.57,2.29-7.86.29-15.54-2-23.23-3.61-13.22-2.77-27.62-3.44-39.64,2.73"/><path class="cls-11" d="M262.63,314.57c15.92-6.71,38.9-4.55,48.93,2.39"/><path class="cls-13" d="M74.4,236.51c-7.19-3.45-10.64-12.66-16.55-14.64-7.32-2.53-9.37,5.65-21.21,3.63-9.94-1.7-13-12.87-29.57-9.42C2,217.14-1.37,221.43.54,226.57c1.42,5.12,8.47,8.36,12.67,11,3.71,2.1,7,3.22,9.21,7.13,0,0,0,.08.07.13,1.48,3.17.89,6,4.35,8.32,8.11,5.94,18.22-3.49,27.45-3.21,6.51.19,6.32,7,14.15,8.91s5.21-5,21.47,1.3a1.14,1.14,0,0,0,1.47-.65h0a1.16,1.16,0,0,0-.24-1.19C79.76,246.37,85,241.6,74.4,236.51Z"/><path class="cls-14" d="M74.4,236.51c-7.19-3.45-10.64-12.66-16.55-14.64-7.32-2.53-9.37,5.65-21.21,3.63-9.94-1.7-13-12.87-29.57-9.42C2,217.14-1.37,221.43.54,226.57c1.42,5.12,8.47,8.36,12.67,11,3.71,2.1,7,3.22,9.21,7.13,0,0,0,.08.07.13,1.48,3.17.89,6,4.35,8.32,8.11,5.94,18.22-3.49,27.45-3.21,6.51.19,6.32,7,14.15,8.91s5.21-5,21.47,1.3a1.14,1.14,0,0,0,1.47-.65h0a1.16,1.16,0,0,0-.24-1.19C79.76,246.37,85,241.6,74.4,236.51Z"/><g class="cls-15"><path class="cls-9" d="M83.6,252c-6.18-3.2-9.75-9.94-16.27-12.6a11.51,11.51,0,0,0-4.62-.91c-2.27.06-4.49,1-6.77.75-3.27-.33-5.32-3.18-8.22-4.38-3.31-1.36-6.69.75-10.12-.08s-6.32-3.39-9.08-5.53A31,31,0,0,0,9,222.37c-.37,0-.21,1,.21,1,8.05,0,14.5,3.22,20.71,8,2.33,1.81,4.81,3.71,7.73,4.41,3.5.85,7-1.32,10.38.23,2.63,1.21,4.57,3.69,7.54,4.17,3.64.59,7-1.32,10.71-.17,7.07,2.2,10.78,9.6,17.21,12.93.46.23.44-.74.11-.91Z"/></g><path class="cls-16" d="M144.4,284.86c-23.65,2.51-27.44,4.55-33.11,2.1-7.23-3.13-14.83-2.35-22.11-5.34s-15.2-5.27-23-4c-2.46.4-5.19,1.4-5.53,4.29a4.71,4.71,0,0,0,.91,3.27c1.71,2.38,4.51,3.19,7.19,3.92l8.94,2.47a2.83,2.83,0,0,1-.26,5.52h-.08a21.51,21.51,0,0,1-7.51-.71c-5.37-1.19-10.75-2.63-16.25-2.64-6.66,0-13.72,2.39-17,8.6a11.45,11.45,0,0,0-1.19,7.22c1.16,6.86,7.58,9.15,13.27,8.64,4-.36,7.79-1.91,11.57-3.28,9.24-3.34,17.14.35,27,.6C114.31,316.23,144.4,284.86,144.4,284.86Z"/><path class="cls-11" d="M42.77,306.52c16.85-1.93,33.82-3.88,50-9,4.74-1.5,10.85-1.92,24.23-11.79"/><path class="cls-16" d="M70.06,208.82a9.91,9.91,0,0,0,1.76,1.1c2.89,1.42,6.2,1.62,8.5,4.21,1.54,1.64,2.37,3.82,3.52,5.77a9.89,9.89,0,0,0,.79,1.23c3.55,4.88,7.05,5.44,10.8,5.36,1.53,0,3.12-.18,4.75-.18a15.77,15.77,0,0,1,8,1.89,21.76,21.76,0,0,1,5.7,4.64,1.2,1.2,0,0,0,1.51.1,1.29,1.29,0,0,0,.59-1.31A18.1,18.1,0,0,0,110.7,222c-6.63-6.27-16.41-6.77-17-19.71-.12-2.78.47-4.74,0-6.72a7,7,0,0,0-1.69-3.1c-2-2.16-4.89-3.12-7.45-4.84-6.95-5-3.64-13.07-4.26-20.79-.41-6.3-6.08-10.4-10.71-14-5.79-4.26-5.78-11.95-9.68-17.66s-13.62-8-18.78-.34c-5.49,7.67-2.47,17.26-.9,25a17.92,17.92,0,0,0,2.08,5.48c2.89,5,7.85,8.64,12.14,12.92a30.81,30.81,0,0,1,6.38,9,26,26,0,0,1,2,6.28l.3,1.54C64.12,200.44,65.3,205.24,70.06,208.82Z"/><g class="cls-15"><path class="cls-9" d="M45.42,134.93c.28,7.09.82,14.45,6.13,19.72,2.48,2.46,5.46,4.37,7.8,7a14.1,14.1,0,0,1,3.12,6.13,11.77,11.77,0,0,0,1.43,3.78,11.25,11.25,0,0,0,3.64,2.84,12.34,12.34,0,0,1,4.16,4.48c1.59,2.82,2.45,6,3.87,8.88a18,18,0,0,0,2.25,3.58c1.42,1.7,3.58,2.76,4.54,4.81,1.63,3.48.94,7.68,2.52,11.29,3.67,8.4,12.39,12.6,20.23,16.29.46.22.44-.75.1-.91C97.59,219.2,89,215.18,85.38,207c-1.49-3.34-1-6.94-2.14-10.34s-4.22-4.6-6-7.34c-3.07-4.64-3.6-10.86-7.92-14.68-1.42-1.27-3.45-1.88-4.69-3.34-1.48-1.73-1.52-4.27-2.33-6.33a17.34,17.34,0,0,0-5.14-6.54c-3.1-2.69-6.54-5.05-8.46-8.8C46.38,145.2,46.22,140,46,135.07c0-.51-.64-.81-.61-.14Z"/></g><path class="cls-17" d="M100.18,226.31a15.77,15.77,0,0,1,8,1.89c.26-4,1.59-4.8,2.49-6.25-6.63-6.27-16.41-6.77-17-19.71-.12-2.78.47-4.74,0-6.72-2,4.15-5.52,5-5.24,9.24s5.83,8.42,6.83,13.93C96.13,223.25,97.81,224.41,100.18,226.31Z"/><path class="cls-4" d="M164.31,291.54c-4.47-1.76-10.44-2.49-13.31,1.37-2.4,3.23-1.16,7.81.5,11.48,1.4,3.09,3.18,6.24,6.13,7.92a17.56,17.56,0,0,0,6.68,1.77,160.82,160.82,0,0,0,19.37,1.12,40.55,40.55,0,0,1,22.79,7.72C198.51,308.11,179.35,297.48,164.31,291.54Z"/><path class="cls-12" d="M156.46,301.17c5.69.24,11.43.64,16.89,2.25s27.07,11.51,30.43,15.71"/><path class="cls-16" d="M382.7,181.46a8.83,8.83,0,0,0-.19,2c0,3.08,1.25,6,0,9.08-.75,2-2.27,3.65-3.45,5.46a12.29,12.29,0,0,0-.72,1.2c-2.66,5.12-1.66,8.36,0,11.53.68,1.3,1.49,2.6,2.18,4a15.11,15.11,0,0,1,1.79,7.69,20.83,20.83,0,0,1-1.54,6.85,1.14,1.14,0,0,0,.56,1.34,1.26,1.26,0,0,0,1.37-.05,17.31,17.31,0,0,0,6-8.68c2.55-8.34-1.19-16.94,9.65-22.95,2.32-1.29,4.26-1.62,5.76-2.84a6.71,6.71,0,0,0,1.94-2.78c1-2.63.59-5.51,1-8.44,1.29-8.06,9.65-8.68,16-12.49,5.22-3,6.33-9.64,7.41-15.12,1.19-6.78,7.78-10,11-15.82s1.08-15.07-7.7-16.23c-8.91-1.43-15.84,5.23-21.83,9.89a17.38,17.38,0,0,0-3.82,4.11c-3.09,4.63-4.06,10.41-5.9,15.9a29.36,29.36,0,0,1-5,9.28,25.41,25.41,0,0,1-4.53,4.37c-.41.3-.8.61-1.2.91C387.35,172.79,383.74,175.85,382.7,181.46Z"/><g class="cls-15"><path class="cls-9" d="M435.41,128.73c-6.14,3.36-12.1,7-14.25,14-1,3.2-1.36,6.61-2.72,9.69a13.81,13.81,0,0,1-3.79,4.79,9.38,9.38,0,0,0-2.81,3.29c-.66,1.6-.44,3.41-.79,5.07a12.75,12.75,0,0,1-2.45,5c-1.92,2.54-4.34,4.67-6.13,7.32-2,2.9-1.83,7-4.47,9.36-2.44,2.18-5.47,3.37-7.64,5.92-5.73,6.71-5.56,16.13-5.39,24.43,0,.51.63.81.62.14-.18-8.29-.35-17.84,5.73-24.31,2.22-2.37,5.4-3.48,7.61-5.82s2-5.75,3.66-8.4c2.91-4.69,8.29-8,9.18-13.79.4-2.58.37-4.63,2.42-6.55a28.42,28.42,0,0,0,3.17-3c1.87-2.37,2.61-5.37,3.29-8.24,1-4.05,2-7.9,4.93-11s6.59-5,10.18-7c.33-.18,0-1.12-.35-.91Z"/></g><path class="cls-13" d="M356.86,304.9c6.81,3.84,9.59,13.07,15.24,15.38,7,3,9.53-4.92,21-2.18,9.61,2.3,11.84,13.42,28.31,11.11,5-.71,8.59-4.69,7.06-9.84-1.06-5.1-7.75-8.72-11.68-11.54-3.5-2.29-6.65-3.61-8.56-7.57a.5.5,0,0,1,0-.13c-1.25-3.19-.49-5.92-3.73-8.42-7.55-6.32-18,2.24-27,1.38-6.36-.61-5.74-7.21-13.27-9.62s-5.42,4.55-20.91-2.65a1.11,1.11,0,0,0-1.48.54h0a1.11,1.11,0,0,0,.16,1.18C352.25,294.92,346.83,299.24,356.86,304.9Z"/><path class="cls-14" d="M356.86,304.9c6.81,3.84,9.59,13.07,15.24,15.38,7,3,9.53-4.92,21-2.18,9.61,2.3,11.84,13.42,28.31,11.11,5-.71,8.59-4.69,7.06-9.84-1.06-5.1-7.75-8.72-11.68-11.54-3.5-2.29-6.65-3.61-8.56-7.57a.5.5,0,0,1,0-.13c-1.25-3.19-.49-5.92-3.73-8.42-7.55-6.32-18,2.24-27,1.38-6.36-.61-5.74-7.21-13.27-9.62s-5.42,4.55-20.91-2.65a1.11,1.11,0,0,0-1.48.54h0a1.11,1.11,0,0,0,.16,1.18C352.25,294.92,346.83,299.24,356.86,304.9Z"/><g class="cls-15"><path class="cls-9" d="M348.88,289.14c6,3.65,9.16,10.92,15.81,13.68,3.58,1.5,6.81-.06,10.43.57,3.28.57,5.06,3.64,8,4.92,3.09,1.37,6.47-.37,9.68.62,3.44,1.07,6.1,3.86,8.72,6.18a30.25,30.25,0,0,0,18.37,7.83c.45,0,.32-.95-.05-1-7.86-.5-14-4-19.74-9.14a23.06,23.06,0,0,0-6.7-4.64c-3.54-1.37-7.45.71-10.76-1.08-2.38-1.29-4.05-3.74-6.72-4.51-3.48-1-7,.75-10.55-.48-7-2.43-10.2-10.17-16.35-13.89-.43-.26-.42.72-.11.91Z"/></g><path class="cls-4" d="M113.55,286.24s-29.7-6.49-52.54-4.05c-.72.08.16-4.42.16-4.42s-4.7,5-5.89,5.18c-12.56,2-24.8,6.34-33.14,14.81,0,0,15.19-62.41,98.39-53.13Z"/><path class="cls-5" d="M130.81,289.59s-13.31-6-29.91-18.94c-.67-.51,2.34-4.5,2.34-4.5s-6.61,1.08-7.76.11c-19-16-40.81-40.73-51.78-75.54,0,0,18.23.77,43.74,10.09,1.09.39,4,5.84,4,5.84s1.18-3.87,2.14-3.48A208.46,208.46,0,0,1,171.19,258Z"/><g class="cls-6"><path class="cls-4" d="M43.7,191.57a304.56,304.56,0,0,1,32.43,17.07c10.52,6.25,20.66,13.11,30.55,20.31,5,3.57,9.7,7.45,14.52,11.22l7,5.91c1.16,1,2.35,1.95,3.5,3l3.37,3.11a298.83,298.83,0,0,1,25.63,26.19l-6.46-6.49L151,268.61c-1.09-1.06-2.23-2.08-3.34-3.13l-6.65-6.27-6.87-6c-4.54-4.07-9.32-7.84-14-11.75-4.83-3.71-9.58-7.53-14.55-11.05-9.76-7.29-19.88-14.1-30.21-20.58q-7.74-4.87-15.67-9.43T43.7,191.57Z"/><path class="cls-4" d="M113.31,235c-3-.74-6-1.4-9-2.06s-6-1.23-9-1.72-6.07-.87-9.12-1.17-6.12-.37-9.24-.36a40.36,40.36,0,0,1,9.3-1,62.09,62.09,0,0,1,9.34.81A65.22,65.22,0,0,1,113.31,235Z"/><path class="cls-4" d="M84.09,215c-2.15-.13-4.29-.21-6.42-.29s-4.26-.09-6.39-.05-4.24.15-6.36.32-4.22.51-6.34.9A27.93,27.93,0,0,1,64.79,214a42.67,42.67,0,0,1,6.47-.61A45.41,45.41,0,0,1,84.09,215Z"/><path class="cls-4" d="M139.66,257.14a59.36,59.36,0,0,0-8.24-2.82,54.64,54.64,0,0,0-8.47-1.57,51.43,51.43,0,0,0-8.6-.27,75.93,75.93,0,0,0-8.66,1,33,33,0,0,1,8.54-2.34,35.49,35.49,0,0,1,8.92-.11,36.4,36.4,0,0,1,8.68,2A29.35,29.35,0,0,1,139.66,257.14Z"/><path class="cls-4" d="M113.31,235a114.09,114.09,0,0,0-7-10.52c-1.23-1.68-2.57-3.28-4-4.85s-2.88-3-4.37-4.6a23.88,23.88,0,0,1,5.35,3.62,31,31,0,0,1,4.39,4.76,34.31,34.31,0,0,1,3.4,5.51A25.6,25.6,0,0,1,113.31,235Z"/><path class="cls-4" d="M139.34,256.55c-1.15-2.31-2.34-4.57-3.51-6.83s-2.4-4.47-3.69-6.64-2.67-4.28-4.11-6.35-3.07-4-4.8-5.94a28.12,28.12,0,0,1,5.88,5.07,44.29,44.29,0,0,1,4.56,6.32A47.65,47.65,0,0,1,139.34,256.55Z"/></g><g class="cls-15"><path class="cls-9" d="M34.92,284.11c3.79-5.17,9-9.19,14.5-12.45a69.49,69.49,0,0,1,17.87-7.16l4.72-1c1.58-.35,3.19-.46,4.78-.69a77,77,0,0,1,9.6-.63c1.6-.1,3.2.06,4.8.11l4.79.24c3.17.4,6.34.84,9.48,1.34-3.19-.1-6.36-.36-9.53-.47l-4.76,0a46.88,46.88,0,0,0-4.74.12c-3.15.3-6.32.35-9.43.94-1.55.26-3.13.36-4.67.72l-4.61,1a80.74,80.74,0,0,0-17.64,6.63,43.75,43.75,0,0,0-4.1,2.34c-.67.42-1.35.82-2,1.27l-1.92,1.38A45.7,45.7,0,0,0,34.92,284.11Z"/></g><g class="cls-15"><path class="cls-9" d="M86.28,263c-1.73,2.76-3.42,5.37-4.83,8.13a40.79,40.79,0,0,0-1.86,4.23,38.45,38.45,0,0,0-1.27,4.56,14.32,14.32,0,0,1,1.55-9.6,22.08,22.08,0,0,1,2.76-4.07A16.65,16.65,0,0,1,86.28,263Z"/></g><rect class="cls-18" x="217.4" y="283.02" width="49.18" height="33.82"/><rect class="cls-8" x="217.4" y="283.02" width="49.18" height="12.26"/><path class="cls-18" d="M291.9,316.31H192.08a5.71,5.71,0,1,0,0,11.41H291.9a5.71,5.71,0,0,0,5.71-5.71h0A5.71,5.71,0,0,0,291.9,316.31Z"/><path class="cls-8" d="M297.61,322a5.71,5.71,0,0,1-5.71,5.7H192.08a5.71,5.71,0,0,1-5.71-5.7,5.3,5.3,0,0,1,.18-1.39,5.7,5.7,0,0,0,5.53,4.33H291.9a5.68,5.68,0,0,0,5.53-4.33A4.91,4.91,0,0,1,297.61,322Z"/><rect class="cls-19" x="84.62" y="77.5" width="314.74" height="210.23" rx="3.5"/><path class="cls-18" d="M395.86,80a1,1,0,0,1,1,1V284.23a1,1,0,0,1-1,1H88.12a1,1,0,0,1-1-1V81a1,1,0,0,1,1-1H395.86m0-5H88.12a6,6,0,0,0-6,6V284.23a6,6,0,0,0,6,6H395.86a6,6,0,0,0,6-6V81a6,6,0,0,0-6-6Z"/><path class="cls-18" d="M401.86,283.82V264H82.12v19.87a6.77,6.77,0,0,0,6.77,6.77h306.2A6.76,6.76,0,0,0,401.86,283.82Z"/><circle class="cls-3" cx="241.99" cy="120.88" r="24.65"/><g class="cls-20"><path class="cls-4" d="M251.52,115.25a9.53,9.53,0,1,1-9.53-9.52A9.53,9.53,0,0,1,251.52,115.25Zm4.84,39.88V138.49A11.45,11.45,0,0,0,244.91,127h-5.84a11.45,11.45,0,0,0-11.45,11.45v16.64a3.17,3.17,0,0,0,3.17,3.18h22.4A3.17,3.17,0,0,0,256.36,155.13Z"/></g><path class="cls-3" d="M301,173.56H183a9.76,9.76,0,0,1-9.75-9.75h0a9.75,9.75,0,0,1,9.75-9.75H301a9.74,9.74,0,0,1,9.75,9.75h0A9.75,9.75,0,0,1,301,173.56Z"/><path class="cls-4" d="M296.87,166.36H187.12a2.55,2.55,0,0,1-2.55-2.55h0a2.55,2.55,0,0,1,2.55-2.55H296.87a2.55,2.55,0,0,1,2.54,2.55h0A2.55,2.55,0,0,1,296.87,166.36Z"/><path class="cls-3" d="M301.05,208.64H183.12a9.75,9.75,0,0,1-9.75-9.75h0a9.74,9.74,0,0,1,9.75-9.75H301.05a9.75,9.75,0,0,1,9.76,9.75h0A9.76,9.76,0,0,1,301.05,208.64Z"/><path class="cls-4" d="M186.14,201.61h0a2.55,2.55,0,0,1-2.55-2.55h0a2.55,2.55,0,0,1,2.55-2.55h0a2.55,2.55,0,0,1,2.54,2.55h0A2.55,2.55,0,0,1,186.14,201.61Zm10.11-2.55h0a2.55,2.55,0,0,0-2.54-2.55h0a2.55,2.55,0,0,0-2.55,2.55h0a2.55,2.55,0,0,0,2.55,2.55h0A2.55,2.55,0,0,0,196.25,199.06Zm7.58,0h0a2.55,2.55,0,0,0-2.55-2.55h0a2.55,2.55,0,0,0-2.55,2.55h0a2.55,2.55,0,0,0,2.55,2.55h0A2.55,2.55,0,0,0,203.83,199.06Zm7.57,0h0a2.55,2.55,0,0,0-2.55-2.55h0a2.55,2.55,0,0,0-2.54,2.55h0a2.55,2.55,0,0,0,2.54,2.55h0A2.55,2.55,0,0,0,211.4,199.06Zm7.57,0h0a2.55,2.55,0,0,0-2.54-2.55h0a2.55,2.55,0,0,0-2.55,2.55h0a2.55,2.55,0,0,0,2.55,2.55h0A2.55,2.55,0,0,0,219,199.06Zm7.58,0h0a2.55,2.55,0,0,0-2.55-2.55h0a2.55,2.55,0,0,0-2.55,2.55h0a2.55,2.55,0,0,0,2.55,2.55h0A2.55,2.55,0,0,0,226.55,199.06Zm7.57,0h0a2.55,2.55,0,0,0-2.55-2.55h0a2.55,2.55,0,0,0-2.54,2.55h0a2.55,2.55,0,0,0,2.54,2.55h0A2.55,2.55,0,0,0,234.12,199.06Z"/><path class="cls-4" d="M258.74,245.39h-33.5a9.76,9.76,0,0,1-9.75-9.76h0a9.76,9.76,0,0,1,9.75-9.75h33.5a9.75,9.75,0,0,1,9.75,9.75h0A9.75,9.75,0,0,1,258.74,245.39Z"/><path class="cls-21" d="M365.64,290.05V278.9a6.65,6.65,0,0,0-6.64-6.64h-.58V261.93a27.54,27.54,0,1,0-55.08,0v10.33h-.58a6.64,6.64,0,0,0-6.64,6.64v11.15Zm-53.2-28.12a18.44,18.44,0,0,1,36.88,0v10.33H312.44Z"/><path class="cls-21" d="M378.65,185.58a17.6,17.6,0,0,0-10-4c0-.36,0-.73,0-1.19,2-.33,3.78-2.11,4.79-4.52,2.75-2.65,4.62-5.92,3.72-10.06a.79.79,0,0,1,.1-.6c-1.19-2.12-3.37-3.14-5.78-5.33-8.13-7.36-17.8,2.87-14.14,7.09a7.49,7.49,0,0,1,1,2.32l0,.07a3.52,3.52,0,0,0,.6,2.78c0,.41.07.83.07,1.24a.61.61,0,0,1,.05.12,5,5,0,0,0,.68,1.74,6.47,6.47,0,0,0,4.15,4.86,5.26,5.26,0,0,0,.6.18,3,3,0,0,1,.08,1.32,16,16,0,0,0-6.5,2.18c-15.54,7.52-30.91,31.72-29.22,37.06s6,11.59,8.88,15.76l.45-.08c.24.8.47,1.61.7,2.41a2.27,2.27,0,0,0,.56,1.1,2.21,2.21,0,0,0,1.6.34,3,3,0,0,0,1.95-.55,2,2,0,0,0,.56-1,4.37,4.37,0,0,0-.51-3.11l.34-.06s-6.7-10-6.46-16.14c.09-2.24,5.32-7.5,9.57-11.42-.09,1.36-.15,2.75-.15,4.15l-2,48.73s1.76.34,4.58.79l2.74,29.1h11l.27-27.41.43,0,.38,0,1.63.11.56,0,.59,0,1.08,27.18h10.86l2.22-27.68h0q.67-.1,1.32-.24c.19,0,.38-.08.56-.12.36-.08.72-.16,1.06-.26l.55-.15c.35-.1.68-.21,1-.32l.46-.16c.46-.17.9-.36,1.32-.56l-.23-52.7c0-1.14,0-2.25-.1-3.32,0-.08,0-.16,0-.24-.07-1-.16-2-.28-2.94,0-.09,0-.18,0-.28l0-.26c2.15.43,4.95.94,8.6,1.56a15.53,15.53,0,0,0,6.9-.43V192.1C392.72,193.14,382.54,187.93,378.65,185.58Z"/><circle class="cls-22" cx="230.31" cy="198.08" r="16.94"/><circle class="cls-23" cx="230.31" cy="198.08" r="9.19"/><path class="cls-24" d="M324,234.39a27.57,27.57,0,0,0-27.54,27.54v26.49h55.08V261.93A27.57,27.57,0,0,0,324,234.39Zm-18.44,44.92V261.93a18.44,18.44,0,0,1,36.88,0v17.38Z"/><path class="cls-25" d="M324,239.83a22,22,0,0,0-22,22V283h44V261.82A22,22,0,0,0,324,239.83Zm18.44,39.48H305.57V261.93a18.44,18.44,0,0,1,36.88,0Z"/><rect class="cls-26" x="289.25" y="272.26" width="69.52" height="55.46" rx="6.77"/><path class="cls-24" d="M334.11,296.15a10.11,10.11,0,1,0-14.76,9V316h9.31V305.12A10.11,10.11,0,0,0,334.11,296.15Z"/><path class="cls-27" d="M352.13,272.26h-16.7a104.11,104.11,0,0,1-16.55,31.44c-6.72,8.73-17.29,19.81-29.25,19.58a6.63,6.63,0,0,0,6.26,4.44h56.24a6.64,6.64,0,0,0,6.64-6.64V278.9A6.64,6.64,0,0,0,352.13,272.26Z"/><path class="cls-28" d="M330.73,234.4l1.32,4.58a2.27,2.27,0,0,0,.56,1.1,2.21,2.21,0,0,0,1.6.34,3,3,0,0,0,2-.55,2,2,0,0,0,.56-1,4.48,4.48,0,0,0-.63-3.33,13.16,13.16,0,0,0-2.26-2.63"/><path class="cls-28" d="M413.05,181.67a36,36,0,0,1,2.17-6.21,3,3,0,0,1,.35,2.21A5,5,0,0,1,418,175.1a.57.57,0,0,1,.42-.07.55.55,0,0,1,.25.4,7,7,0,0,1-4.2,8.26"/><path class="cls-4" d="M368.07,324c3.89.94,7.15,2.09,8.93,3.69H362l.28-3.48Z"/><path class="cls-4" d="M349.73,324c-3.89.94-7.15,2.09-8.93,3.69h15l-.28-3.48Z"/><path class="cls-29" d="M376,236.64l-7.07,88a24.17,24.17,0,0,1-3.33.6,14.44,14.44,0,0,1-1.94-.27c-.82-.16-1.54-.33-1.54-.33l-2.64-66.52h-3.32l-.64,66.52a14.32,14.32,0,0,1-3.6.53,19.05,19.05,0,0,1-3.91-.53l-8.49-90.25Z"/><g class="cls-30"><path class="cls-31" d="M362.4,235.8,350,235c-.16,16.2,2.28,74.12,2.53,90.11a15.44,15.44,0,0,0,3-.51l.64-66.52h3.32l2.64,66.52s.72.17,1.54.33l.73.13C364.35,307,362.71,243.25,362.4,235.8Z"/></g><path class="cls-32" d="M352.18,173.43a.61.61,0,0,1,.05.12c.54,2.91,3.3,4.4,6.37,5.25,2.49.69,3.07,1,5.07-.46,4.16-3,7.86-7,6.66-12.48a.79.79,0,0,1,.1-.6c-1.18-2.12-3.37-3.14-5.78-5.33-8.13-7.36-17.8,2.87-14.14,7.09A12.91,12.91,0,0,1,352.18,173.43Z"/><path class="cls-33" d="M379.91,208.67c0-16.73-6.92-27.13-20.18-27.13s-20.22,14-20.22,30.71l-2,48.73s30.92,6.13,42.67.39Z"/><path class="cls-34" d="M379.91,208.67a44,44,0,0,0-1.61-12.47c-1.18,18.21-2.77,66.68-29.87,66.48,10.07,1.26,24.49,2.21,31.71-1.31Z"/><path class="cls-28" d="M366.54,171.47c-.5-3.29-3.43-6.59-7-4.88a7.24,7.24,0,0,1-6.55.22c-.06.63-.14,1.56-.21,2.53-.39-.73-1.06-.84-1.26.07s.05,2.78,1.1,3.12V173c.05,2.47,1.05,6.38,5.05,7.32a4,4,0,0,1-.11,2.31c.22.77,3.32,1.27,4.35.36a17.21,17.21,0,0,1-.08-2.56c2.36-.38,4.33-2.71,5.22-5.7C370.61,172.74,368.06,169.1,366.54,171.47Z"/><path class="cls-35" d="M366.54,171.47a7.45,7.45,0,0,0-1.62-3.59c.1,5.72-2.34,11-7.86,12.27a5.26,5.26,0,0,0,.6.18,4,4,0,0,1-.11,2.31c.22.77,3.32,1.27,4.35.36a17.21,17.21,0,0,1-.08-2.56c2.36-.38,4.33-2.71,5.22-5.7C370.61,172.74,368.06,169.1,366.54,171.47Z"/><path class="cls-33" d="M351.24,183.83c-15.54,7.52-30.91,31.72-29.22,37.06s6,11.59,8.88,15.76l5.65-1s-6.7-10-6.46-16.14c.15-3.77,15-16.19,15-16.19Z"/><path class="cls-33" d="M370.39,184.68c2.43,1.75,22.74,13.92,33.9,3.18,8.07-7.77,8.88-9.26,8.88-9.26l2.77,4.89s-12.62,22.28-27.89,19.7-15.65-3.37-15.65-3.37Z"/><path class="cls-21" d="M119.37,280a24.48,24.48,0,0,0-13.88,10.49h41.25A24.48,24.48,0,0,0,132.86,280V178.92H119.37v1.65H105v12.17h14.41v2.89H105V207.8h14.41Z"/><rect class="cls-26" x="113.79" y="180.57" width="17.28" height="12.17" transform="translate(244.87 373.31) rotate(180)"/><rect class="cls-26" x="113.79" y="195.63" width="17.28" height="12.17" transform="translate(244.87 403.44) rotate(180)"/><rect class="cls-36" x="126.67" y="180.57" width="4.41" height="12.17" transform="translate(257.75 373.31) rotate(180)"/><rect class="cls-36" x="126.67" y="195.63" width="4.41" height="12.17" transform="translate(257.75 403.44) rotate(180)"/><rect class="cls-26" x="128.2" y="178.92" width="13.49" height="105.74" transform="translate(269.9 463.59) rotate(180)"/><rect class="cls-36" x="133.92" y="182.56" width="2.06" height="105.74" rx="0.82" transform="translate(269.9 470.87) rotate(-180)"/><path class="cls-26" d="M110.6,303.38A24.35,24.35,0,1,1,135,327.72,24.37,24.37,0,0,1,110.6,303.38Zm12.56,0A11.79,11.79,0,1,0,135,291.59,11.8,11.8,0,0,0,123.16,303.38Z"/><path class="cls-36" d="M122,303.38A12.94,12.94,0,1,0,135,290.44,13,13,0,0,0,122,303.38Zm1.15,0A11.79,11.79,0,1,1,135,315.17,11.8,11.8,0,0,1,123.16,303.38Z"/><path class="cls-21" d="M223.48,201.61c-4.27,3.78-19.66,19.9-22.48,11.13-2.24-7-6.92-16.51-9.67-19.71a13.11,13.11,0,0,0-6.66-4.09v-1.11c2.67,0,6.85-.53,6.85-10.15a17.23,17.23,0,0,0-.78-6.08,2.92,2.92,0,0,0,.18-3.31c-.74-1.23-2.71-2.3-4-2.88-3.09-1.36-7.12-2-10.08-.08a12.76,12.76,0,0,0-3.73-3.26,9,9,0,0,0-4.06-1.31c-2.85,0-5.32,2.13-6.63,4.65a10.38,10.38,0,0,0-1.13,6.7,7.47,7.47,0,0,0,4,5.35,3.55,3.55,0,0,0,2,.39,4,4,0,0,0,2.26-1.37c1.52-1.58,1.78-3.47,2.9-5.18a1.9,1.9,0,0,1,.62-.58,12.46,12.46,0,0,0-.53,3.43,20.46,20.46,0,0,0,2.68,9.48,5.46,5.46,0,0,0,1.59,2.08c.69.48,2.49.95,3.22.48l-.3,2.36a16.93,16.93,0,0,0-6.26,1.83h0c-11.57,2.66-20.3,31.07-35.77,29.18v0c-1.89-.52-3.95-.67-4.06,1.17-.21,3.61,2,4.07,4.06,3.77v.08a29.54,29.54,0,0,0,22.61-10.21c-4.17,23.46-2.5,54.19-2.5,54.19,1.11.16,2.22.3,3.33.44l1.9,21.5h9.85l0-20.51c2,.08,4,.12,5.93.1l.23,20.41h11.42l2.21-21.4c2-.28,4-.62,6-1-.4-12.91-.46-29.77-1.31-44.38a4.66,4.66,0,0,0,2.11,1.21c1.35.33,7.13,7,11.29,1.93s13-15.76,16.28-21.23C226.32,203.81,224.45,203.28,223.48,201.61Z"/><polygon class="cls-37" points="185.98 185.32 185.33 190.3 190.56 190.88 190.56 185.62 185.98 185.32"/><path class="cls-38" d="M145.62,221.74s-6.93-3.42-7.13,0c-.38,6.47,7.13,2.82,7.13,2.82Z"/><path class="cls-28" d="M146.6,220.76s-6.93-3.42-7.13,0c-.38,6.47,7.13,2.82,7.13,2.82Z"/><path class="cls-28" d="M181.25,177.68c0,4.53,4.67,10.16,9.2,10.16,2.66,0,7-.4,7-10.16,0-10.26-3.44-8.19-8-8.19A8.19,8.19,0,0,0,181.25,177.68Z"/><path class="cls-35" d="M188.14,181.49a35.73,35.73,0,0,1,1.9-12l-.6,0a8.19,8.19,0,0,0-8.19,8.19c0,4.44,4.49,9.93,8.94,10.14A9.13,9.13,0,0,1,188.14,181.49Z"/><path class="cls-26" d="M195.68,172.2c-.73.11-1.5-.24-2.18,0-1.09.44-1.16,2.1-2.17,2.71-1.25.77-3.14-.55-4.24.43-.64.57-.57,1.59-.5,2.46a18.44,18.44,0,0,1-.75,6.8c-.15.51.52,1.42.12,1.77-.67.58-2.6.07-3.32-.44a5.4,5.4,0,0,1-1.59-2.09,20.9,20.9,0,0,1-2.68-9.59,10.86,10.86,0,0,1,4.11-8.75c3-2.14,7.15-1.49,10.32-.07,1.3.59,3.26,1.67,4,2.91S197.43,171.94,195.68,172.2Z"/><path class="cls-36" d="M194.81,166.54c-1.07,1-2.14,2.68-2.95,3.24a12.37,12.37,0,0,1-3.71,1.33c-5.82,1.79-6.23,10.72-3.68,15.5a2,2,0,0,0,1.49-.21c.4-.35-.27-1.26-.12-1.77a18.44,18.44,0,0,0,.75-6.8c-.07-.87-.14-1.89.5-2.46,1.1-1,3,.34,4.24-.43,1-.61,1.08-2.27,2.17-2.71.68-.27,1.45.08,2.18,0,1.75-.26,1.86-2.61,1.13-3.83A6.16,6.16,0,0,0,194.81,166.54Z"/><path class="cls-26" d="M179,162.09a8.91,8.91,0,0,0-4.06-1.33c-2.85,0-5.32,2.15-6.64,4.7a10.64,10.64,0,0,0-1.12,6.77,7.56,7.56,0,0,0,4,5.4,3.45,3.45,0,0,0,2,.39,4,4,0,0,0,2.27-1.38c1.52-1.6,1.78-3.5,2.9-5.23.9-1.4,2.88-.82,4.2-1.74C185.84,167.36,181.06,163.23,179,162.09Z"/><path class="cls-36" d="M180.51,168.25c-.61-.31-1.09-.88-1.69-1.19-.87-.94-5.29-1.43-6.22,4.73a7.28,7.28,0,0,1-3.14,4.66,6.19,6.19,0,0,0,1.69,1.18,3.45,3.45,0,0,0,2,.39,4,4,0,0,0,2.27-1.38c1.52-1.6,1.78-3.5,2.9-5.23.9-1.4,2.88-.82,4.2-1.74a2.58,2.58,0,0,0,1-1.08A3.54,3.54,0,0,1,180.51,168.25Z"/><path class="cls-24" d="M177.59,324c3.89.94,7.15,2.09,8.93,3.69h-15l.29-3.48Z"/><path class="cls-24" d="M191,324c3.89.94,7.15,2.09,8.94,3.69H185l.29-3.48Z"/><path class="cls-38" d="M229.92,198.25l-.32-.14c-.56-.15-1.08.24-1.55.58a26.18,26.18,0,0,0-3,2.63h0a3.5,3.5,0,0,0-.58.64,2.42,2.42,0,0,0-.19,2.6,2.23,2.23,0,0,0,1.8,1.06,4.65,4.65,0,0,0,3.15-1.38,2.2,2.2,0,0,0,.13-2.67,2.18,2.18,0,0,0-1.38-1.14,11.58,11.58,0,0,0,1.79-1.31,1.14,1.14,0,0,0,.32-.41A.39.39,0,0,0,229.92,198.25Z"/><path class="cls-28" d="M229.56,200.42a2.2,2.2,0,0,1-.14,2.67,4.63,4.63,0,0,1-3.15,1.38,2.23,2.23,0,0,1-1.79-1.05,2.43,2.43,0,0,1,.18-2.6C225.75,199.23,228.45,198.35,229.56,200.42Z"/><path class="cls-28" d="M227.79,199.53A11.68,11.68,0,0,0,230,198a1,1,0,0,0,.31-.41.37.37,0,0,0-.14-.46,2.92,2.92,0,0,0-.31-.14,1.94,1.94,0,0,0-1.55.58,26.31,26.31,0,0,0-3,2.63A5.45,5.45,0,0,0,227.79,199.53Z"/><path class="cls-24" d="M208.7,213.3a134.27,134.27,0,0,0,15-12.14.77.77,0,0,1,1.09.08c.92,1.09,2.43,2.73,2.27,3.42a2.37,2.37,0,0,1-.62,1l-14.11,15.64a15.27,15.27,0,0,1-3,2.81,5.2,5.2,0,0,1-3.95.83c-2.26-.56-3.53-2.89-4.76-4.87-6.08-9.76-5.08-13.28-4.33-16.29.51-2.09,1.17-4.16,1.54-6.28.12-.67-1.48-4.4-.57-4.45,2.75,3.2,6.86,13,9.67,19.71A1.23,1.23,0,0,0,208.7,213.3Z"/><path class="cls-39" d="M164.81,244.5l7.07,80.19a26.25,26.25,0,0,0,3.32.55,17.79,17.79,0,0,0,2-.24l1.53-.31.07-60.61h5.85l.68,60.61a15.72,15.72,0,0,0,3.61.48,21.05,21.05,0,0,0,3.91-.48l8.48-82.24Z"/><path class="cls-40" d="M183,250.51c0,2.72-.15,5.17.8,7.64a4.77,4.77,0,0,0,4.82,3.13c3.5-.07,5.93-2,5.94-5.51,0-.46.23-5.25.46-5.26Z"/><path class="cls-40" d="M166.39,250.52a30.3,30.3,0,0,0,.59,7.63c.53,1.93,1.71,3.2,3.38,3.16,2.44-.05,3.8-2.76,4.11-5.49.06-.45.14-5.24.3-5.25Z"/><path class="cls-41" d="M178.75,264.07h0a.14.14,0,0,0,.12-.16c-.94-5.45-.29-15.88-.29-16a.12.12,0,0,0,0-.11.15.15,0,0,0-.11,0c-.1,0-9.44.44-13.36-.55a.13.13,0,0,0-.17.1.14.14,0,0,0,.1.18c3.67.93,12,.62,13.28.57-.08,1.35-.58,10.78.3,15.89A.15.15,0,0,0,178.75,264.07Z"/><path class="cls-41" d="M179.92,264.07h0a.15.15,0,0,0,.13-.16,87.47,87.47,0,0,1-.2-15.8A122.93,122.93,0,0,0,200,245.93a.13.13,0,0,0,.11-.17.13.13,0,0,0-.17-.11,122.66,122.66,0,0,1-20.2,2.17.15.15,0,0,0-.14.13,87.51,87.51,0,0,0,.19,16A.15.15,0,0,0,179.92,264.07Z"/><g class="cls-42"><path class="cls-43" d="M177.15,325l1.53-.31.07-60.61h.49a.36.36,0,0,0-.49-.16,6.05,6.05,0,0,0-2.4,2.25,4.64,4.64,0,0,0-.91,2.63C175,287.49,176.06,301.71,177.15,325Z"/></g><path class="cls-41" d="M192.2,323a.15.15,0,0,1-.13-.16l.12-1.2a.15.15,0,0,1,.29,0l-.12,1.2a.15.15,0,0,1-.15.13Zm.36-3.53a.15.15,0,0,1-.13-.16l.24-2.33a.13.13,0,0,1,.16-.13.15.15,0,0,1,.13.16l-.24,2.33a.15.15,0,0,1-.15.13Zm.47-4.66a.15.15,0,0,1-.13-.16l.24-2.33c0-.08.09-.15.16-.13a.15.15,0,0,1,.13.16l-.24,2.33a.14.14,0,0,1-.14.13Zm.48-4.66a.15.15,0,0,1-.13-.16l.24-2.33a.14.14,0,0,1,.16-.13.15.15,0,0,1,.13.16l-.24,2.33a.14.14,0,0,1-.15.13Zm.48-4.66a.15.15,0,0,1-.13-.16l.23-2.33c0-.08.09-.15.16-.13a.15.15,0,0,1,.13.16l-.23,2.33a.14.14,0,0,1-.15.13Zm.47-4.66a.14.14,0,0,1-.13-.16l.24-2.33a.14.14,0,0,1,.16-.13.15.15,0,0,1,.13.16l-.24,2.33a.13.13,0,0,1-.14.13Zm.48-4.66a.14.14,0,0,1-.13-.16l.24-2.32a.13.13,0,0,1,.16-.13.14.14,0,0,1,.13.16l-.24,2.32a.15.15,0,0,1-.15.14Zm.47-4.65a.15.15,0,0,1-.13-.16l.24-2.33c0-.08.09-.16.16-.13a.14.14,0,0,1,.13.16l-.24,2.33a.14.14,0,0,1-.14.13Zm.48-4.66a.15.15,0,0,1-.13-.16l.24-2.33a.13.13,0,0,1,.16-.13.15.15,0,0,1,.13.16l-.24,2.33a.15.15,0,0,1-.15.13Zm.48-4.66a.15.15,0,0,1-.13-.16l.23-2.33a.14.14,0,0,1,.15-.13h0a.15.15,0,0,1,.13.16l-.23,2.33a.15.15,0,0,1-.15.13Zm.47-4.66a.15.15,0,0,1-.13-.16l.24-2.33c0-.08.09-.15.16-.13a.15.15,0,0,1,.13.16l-.24,2.33a.13.13,0,0,1-.14.13Zm.48-4.66a.15.15,0,0,1-.13-.16l.24-2.33a.13.13,0,0,1,.16-.13.15.15,0,0,1,.13.16l-.24,2.33a.14.14,0,0,1-.15.13Zm.47-4.65a.16.16,0,0,1-.13-.17l.24-2.33c0-.07.08-.15.16-.13a.15.15,0,0,1,.13.16L198,268.1a.14.14,0,0,1-.14.14Zm.48-4.66a.15.15,0,0,1-.13-.16l.24-2.33c0-.08.09-.15.16-.13a.14.14,0,0,1,.13.16l-.24,2.33a.15.15,0,0,1-.15.13Zm.48-4.66a.15.15,0,0,1-.13-.16l.23-2.33c0-.08.09-.16.16-.13a.15.15,0,0,1,.13.16l-.23,2.33a.16.16,0,0,1-.15.13Zm.47-4.66a.15.15,0,0,1-.13-.16l.24-2.33a.14.14,0,0,1,.16-.13.15.15,0,0,1,.13.16l-.24,2.33a.15.15,0,0,1-.14.13Zm.48-4.66a.15.15,0,0,1-.13-.16l.24-2.33A.13.13,0,0,1,200,247a.15.15,0,0,1,.13.16l-.24,2.33a.14.14,0,0,1-.15.13Z"/><path class="cls-24" d="M179.3,190.37c-11.57,2.66-20.3,31.07-35.78,29.18v5.06c7.25,0,17.14-2.32,25.25-13.43C180.49,195.11,179.3,190.37,179.3,190.37Z"/><path class="cls-44" d="M179.3,190.37c-11.57,2.66-20.3,31.07-35.78,29.18v5.06c7.25,0,17.14-2.32,25.25-13.43C180.49,195.11,179.3,190.37,179.3,190.37Z"/><path class="cls-24" d="M197.22,193c7.11,8.14,6.51,49.42,7.32,75.06-12.8,2.69-26.53,2.57-40.9.5,0,0-2.24-41.31,5-64.71C173.49,188,189.73,184.44,197.22,193Z"/><path class="cls-44" d="M173.43,247.47a91,91,0,0,1-3.82-26.84c0-7.66.21-16,2.22-23.55a25.2,25.2,0,0,0-3.23,6.8c-7.2,23.4-5,64.71-5,64.71a140.36,140.36,0,0,0,21.27,1.53A68.63,68.63,0,0,1,173.43,247.47Z"/><path class="cls-14" d="M60.39,180.14c1-.06,8.17-5.33,10.91-7.11a7.29,7.29,0,0,0,2.09-1.77,2.64,2.64,0,0,0,.4-2.6,3.26,3.26,0,0,0-3.33-2c-3.55,0-4.78,1.17-6.5,2.95C58.25,175.46,60.39,180.14,60.39,180.14Z"/><path class="cls-14" d="M92.31,201.41c3.1,1.39,6.42,2.78,9.79,2.35,1.3-.17,2.73-.77,3.17-2a3,3,0,0,0-1-3,6.84,6.84,0,0,0-3-1.37c-4.12-1-9.92-.45-14,.71A36.6,36.6,0,0,0,92.31,201.41Z"/><path class="cls-14" d="M112.73,155.62c-1.38-.87-2.91-2-2.91-3.68s1.71-2.89,3.35-2.89a6.89,6.89,0,0,1,4.4,2c5.21,4.58,4.56,9.8,4.56,9.8S114.27,156.59,112.73,155.62Z"/><path class="cls-14" d="M116.84,141.65a6.78,6.78,0,0,1-3.18-2.26,2.15,2.15,0,0,1-.32-1.83c.35-1,1-1.93,3.55-1.47,8.09,1.47,9.86,7,9.86,7S119,142.58,116.84,141.65Z"/><path class="cls-14" d="M140.56,153.92a12.8,12.8,0,0,0,8.65-4.44,8,8,0,0,0,1.74-3.22,3.51,3.51,0,0,0-.95-3.38,3.59,3.59,0,0,0-4.19,0,8.4,8.4,0,0,0-2.71,3.53C142.23,148.21,140.56,153.92,140.56,153.92Z"/><path class="cls-45" d="M82.57,272.33,59,251.54c-4.19-3.7-8.47-7.5-11.12-12.41-5.71-10.57-2.42-24.3,5.29-33.51S72.14,191,83.48,187s23.14-6.74,34-12c6.78-3.29,13.59-8.18,15.45-15.48a15.43,15.43,0,0,0-14-19.22"/><path class="cls-45" d="M146.06,146.38c-2.15,6.6-10.52,10.61-14.34,16.33"/><path class="cls-45" d="M116,154c1.65,1.74,3.62,3.18,5.06,5.09,3,4.05,3.29,10.64-1.21,14.72"/><path class="cls-45" d="M73.66,190.9a44.87,44.87,0,0,0,24.81,9.25"/><path class="cls-45" d="M57.78,200.64A24.51,24.51,0,0,1,66,174"/><path class="cls-14" d="M332.71,71.25a3.45,3.45,0,0,1,.5-3.46,2.53,2.53,0,0,1,2.71-.61c6.88,3,6.14,13.79,6.14,13.79S335.53,80,332.71,71.25Z"/><path class="cls-14" d="M332.54,91.41c-4.45,8.07,11.37,7.45,17.07,2.7C349.61,94.11,336.37,84.47,332.54,91.41Z"/><path class="cls-14" d="M352.53,71.87c-1.07-1.48-1.45-3.68-.28-5.08A3.92,3.92,0,0,1,356,65.68a8.76,8.76,0,0,1,4.18,2.56,13.65,13.65,0,0,1,2.75,12.85S354.29,74.28,352.53,71.87Z"/><path class="cls-14" d="M415.33,91.84a3.58,3.58,0,0,1,.68-3.67,3.1,3.1,0,0,1,2.31-.7,7.3,7.3,0,0,1,2.37.71,7.55,7.55,0,0,1,3.64,3.63c2,4,.63,9,.63,9S416.29,95,415.33,91.84Z"/><path class="cls-14" d="M395.58,106.64a10.15,10.15,0,0,0-10.49-1.7,5.45,5.45,0,0,0-2.24,1.69c-1.25,1.74-.81,4.27.49,6a13.09,13.09,0,0,0,5.2,3.61c3.52,1.6,9,1.92,12.72,2.88C401.26,119.09,401.25,111.63,395.58,106.64Z"/><path class="cls-45" d="M337.64,73c2.32,7.64,8.91,13.41,16.24,16.52s15.4,4,23.35,4.46,16,.77,23.67,2.87c7.49,2,14.94,6.28,18.16,13.37,3.91,8.62.45,18.93-5.05,26.64s-12.88,13.92-18.19,21.75c-2.44,3.6-4.48,7.81-4,12.13.66,5.76,5.5,10,10,13.65"/><path class="cls-45" d="M356,70.18A45.72,45.72,0,0,1,366.45,93"/><path class="cls-45" d="M338.25,92.75a36.49,36.49,0,0,0,9.17,1.62,14,14,0,0,0,9-3.9"/><path class="cls-45" d="M420.48,92.31a15.63,15.63,0,0,1,4.69,10.51c.14,3.93-2,8.7-4.64,11.63"/><path class="cls-45" d="M391,110.15A157.61,157.61,0,0,0,407.77,124c2.86,2,8.54,4.6,11.06,3.93"/></g></g></g></svg>