<svg xmlns="http://www.w3.org/2000/svg" xmlns:xlink="http://www.w3.org/1999/xlink" viewBox="0 0 425.64 329.72"><defs><style>.cls-1{isolation:isolate;}.cls-2{fill:#e6f5ff;}.cls-3{fill:#d4ecff;}.cls-11,.cls-4{fill:#b3d9ff;}.cls-4{opacity:0.18;}.cls-4,.cls-9{mix-blend-mode:multiply;}.cls-5{fill:#fa0;}.cls-26,.cls-6{fill:#fff;}.cls-13,.cls-7{fill:#53a4f4;}.cls-8{fill:#0d5dbc;}.cls-9{fill:#092b96;opacity:0.39;}.cls-10{fill:#328dd8;}.cls-12{fill:#0061ef;}.cls-13{opacity:0.56;}.cls-14{fill:#c3e2fc;}.cls-15{fill:#76b4ff;}.cls-16{fill:#ffa683;}.cls-17{fill:#084184;}.cls-18{fill:url(#linear-gradient);}.cls-19{fill:#ef8160;}.cls-20{fill:#2886f7;}.cls-21,.cls-22{fill:#ff6700;}.cls-22{opacity:0.28;}.cls-23{fill:#083766;}.cls-24{fill:#1764af;}.cls-25{fill:#3f3f3f;}.cls-26{font-size:33.38px;font-family:MyriadPro-Regular, Myriad Pro;}</style><linearGradient id="linear-gradient" x1="132.62" y1="251.49" x2="132.54" y2="251.36" gradientUnits="userSpaceOnUse"><stop offset="0" stop-color="#ff3688"/><stop offset="1" stop-color="#ff85bc"/></linearGradient></defs><title>bg-maincontent</title><g class="cls-1"><g id="Layer_2" data-name="Layer 2"><g id="OBJECTS"><ellipse class="cls-2" cx="215.55" cy="316.58" rx="210.09" ry="13.13"/><ellipse class="cls-3" cx="137.7" cy="322.66" rx="37.01" ry="2.64"/><ellipse class="cls-3" cx="295.69" cy="320.3" rx="52.22" ry="3.79"/><path class="cls-3" d="M33,151.91c47.73-31.73,29-122.1,112.86-122.1s36.81,46.48,121.3,27.89,49.85,102.15,99,119.92c59.18,21.41,77.25,79.66,32.59,134.21H28.12S-38.26,199.27,33,151.91Z"/><path class="cls-3" d="M125,31.82l-.14.12.26-.14Z"/><path class="cls-4" d="M398.21,311.72c44.66-54.54,26.59-112.79-32.59-134.2C316.5,159.75,351.14,39,266.65,57.59S229.23,29.7,145.34,29.7c-.49,0-1,0-1.46,0C153.15,31.61,165,38,177.41,54.82c27.83,37.73,47,51.34,90.91,40.82s-16.69,117.51,57.52,125.55c53.55,5.8,24.67,56-4.16,90.53Z"/><path class="cls-5" d="M390.78,148.23v25.44a12.19,12.19,0,0,1-12.16,12.15H353.18A12.19,12.19,0,0,1,341,173.67V148.23a12.19,12.19,0,0,1,12.15-12.16h25.44A12.19,12.19,0,0,1,390.78,148.23Z"/><path class="cls-6" d="M365.59,146.61a13.93,13.93,0,0,0-10.67,22.29,4.25,4.25,0,0,1,.74,3.5l-.89,3.83,4.69-2.07a4.26,4.26,0,0,1,2.86-.19,13.94,13.94,0,1,0,3.27-27.36Zm-5.69,14.73a.84.84,0,1,1,.83-.84A.84.84,0,0,1,359.9,161.34Zm6,0a.84.84,0,1,1,.84-.84A.84.84,0,0,1,365.85,161.34Zm6.29,0a.84.84,0,1,1,.83-.84A.84.84,0,0,1,372.14,161.34Z"/><rect class="cls-5" x="9.98" y="148.83" width="47.88" height="47.87" rx="11.7"/><path class="cls-6" d="M40.74,158.56H26.21a7,7,0,0,0-6.94,6.95V180A7,7,0,0,0,26.21,187H40.74A7,7,0,0,0,47.69,180V165.51A7,7,0,0,0,40.74,158.56ZM38.84,174l-8.66,5.23A1.38,1.38,0,0,1,28.09,178V167.56a1.38,1.38,0,0,1,2.09-1.18l8.66,5.23A1.38,1.38,0,0,1,38.84,174Z"/><rect class="cls-7" x="178.42" y="29.92" width="50.68" height="50.68" rx="12.38"/><path class="cls-8" d="M187.31,57.6a1.21,1.21,0,0,0-.74,1.56l.74,2.12a1.24,1.24,0,0,0,1.56.75l1.07-.39-1.57-4.41Z"/><path class="cls-8" d="M200.38,63.27,195.8,64.9l-.06,0L197.89,71a.47.47,0,0,0,.39.31l4.42.48a.48.48,0,0,0,.49-.63Z"/><path class="cls-8" d="M220.28,59.25,218.08,53a3.78,3.78,0,0,0,1.48-3,3.82,3.82,0,0,0-3.83-3.82h-.06l-2.18-6.17a1.62,1.62,0,0,0-3.05,1.08l6.79,19.18a1.62,1.62,0,1,0,3.05-1.08Z"/><path class="cls-8" d="M196.87,50.75l-5.44,1.93a3,3,0,0,0-1.8,3.77l1.81,5.11a3,3,0,0,0,3.7,1.82h0l.07,0h0l5.44-1.93h0s11.55-2.84,14.94-.69l-6.69-18.87C207.63,45.69,196.87,50.75,196.87,50.75Z"/><path class="cls-7" d="M76.55,289c-.09,0,6.75-5.39,11-13.06,4.42-7.43,6.28-17.16-.9-20.58-10.18-4.45-.9-20.5-8.56-21.6-7.4-.56-6.23,3.3-10.27-6.54-4.49-9.79-12-7.76-20.71-13.27-9.28-5.22-14.13,6.78-4.88,15.55,9,9.42-2.6,1.26-2.33,8.11.14,5.71,21.92,15.81,16.39,17.33-5.41,1-7.19,6-3.38,10.38C62.07,275.15,76.6,288.63,76.55,289Z"/><path class="cls-9" d="M76.32,295.72a.19.19,0,0,0,.09-.14,90.4,90.4,0,0,0-4.27-38.36l0-.11,0-.1a49.21,49.21,0,0,0,3.37-12.14c.24-1.38.45-2.78.66-4.18a.12.12,0,0,0-.07-.16.2.2,0,0,0-.27,0,.11.11,0,0,0,0,.08c-.21,1.37-.42,2.74-.64,4.09a51.48,51.48,0,0,1-3,11.28l-.24.58L71.7,256a85.27,85.27,0,0,0-8.58-17.14l-.09-.16.08-.14a.08.08,0,0,0,0-.08,48.37,48.37,0,0,0-2.34-13.87.2.2,0,0,0-.14-.14.22.22,0,0,0-.22.1.2.2,0,0,0,0,.13,48.06,48.06,0,0,1,2.3,12.73l0,.87-.5-.75a97,97,0,0,0-13.11-15.63c-.06-.06-.1-.06-.12,0a.19.19,0,0,0-.13.13.19.19,0,0,0,.06.22,94.12,94.12,0,0,1,16.72,21.58l.26.46-.5-.08a69.24,69.24,0,0,1-15.91-4.55c-.06,0-.1,0-.14,0a.28.28,0,0,0,0,.2.22.22,0,0,0,.11.12A69.85,69.85,0,0,0,66,244.63h.16l.07.14A83.51,83.51,0,0,1,71.7,257l0,.08v.07a.17.17,0,0,0,.06.16l.06.05,0,.07A82.88,82.88,0,0,1,74.93,269c0,.23.09.47.14.7l-.54-.46a66.35,66.35,0,0,0-16.07-10.11.16.16,0,0,0-.21,0,.2.2,0,0,0,0,.16.13.13,0,0,0,.08.09,66.38,66.38,0,0,1,16.81,10.75l.08.07v.1a92.1,92.1,0,0,1,.87,25.21.13.13,0,0,0,0,.13.24.24,0,0,0,.23,0Z"/><path class="cls-10" d="M96.75,305.9C96.55,306.66,90,289,72.36,276,56,262.45,28.46,253.67,15,260c-26.22,11.89-6.22,24.64,7.55,20.34,14.29-3.25,3,17,18.64,12.78,15.53-2.91,15.18,2.43,24,1.78C74.83,293.63,97.37,305.29,96.75,305.9Z"/><path class="cls-10" d="M361.85,278.67c0-.07-8.63-.63-16.5-4.52-7.84-3.63-14.88-10.6-10.9-17.48,5.88-9.43-10.84-17.42-5.16-22.66,5.79-4.65,7-.8,4.78-11.2-1.84-10.62,5.47-13.16,9.58-22.66,4.69-9.55,15.48-2.41,12.81,10.06-2.1,12.86,2.87-.43,6.52,5.37,3.11,4.79-9.15,25.44-3.72,23.57,5-2.26,9.32.88,8.65,6.65C366,259.08,361.6,278.41,361.85,278.67Z"/><path class="cls-9" d="M365.84,284.1a.19.19,0,0,1-.15-.07,90.41,90.41,0,0,1-18.18-34l0-.1-.09-.06a49.54,49.54,0,0,1-9.65-8.11c-1-1-1.94-2-2.91-3.07a.15.15,0,0,1,0-.18.22.22,0,0,1,.25-.12.18.18,0,0,1,.07,0c.95,1,1.89,2,2.84,3a51.61,51.61,0,0,0,8.85,7.61l.53.34c-.06-.21-.11-.43-.17-.64a86,86,0,0,1-2.62-19v-.19l-.16-.06a.17.17,0,0,1-.06-.06,48.07,48.07,0,0,1-5.91-12.76.2.2,0,0,1,0-.2.2.2,0,0,1,.23,0,.23.23,0,0,1,.07.11,48,48,0,0,0,5.3,11.8l.47.74c0-.3,0-.6,0-.9a95.74,95.74,0,0,1,2-20.31c0-.09.05-.1.06-.11a.22.22,0,0,1,.19,0,.23.23,0,0,1,.08.22,93.81,93.81,0,0,0-1.59,27.25c0,.18,0,.36,0,.53l.36-.35a69.35,69.35,0,0,0,10.55-12.75c0-.06.07-.08.14,0a.29.29,0,0,1,.12.16.14.14,0,0,1,0,.15,68.91,68.91,0,0,1-11,13.19l-.12.1v.16a84.31,84.31,0,0,0,2.42,13.16l0,.07.05,0a.18.18,0,0,1,0,.17l0,.08,0,.07a84.68,84.68,0,0,0,4,11.32c.1.21.19.43.29.64l.18-.67a66.38,66.38,0,0,1,7.54-17.44.16.16,0,0,1,.2-.07.18.18,0,0,1,.13.11s0,.05,0,.11a66.82,66.82,0,0,0-7.78,18.38l0,.09,0,.1A92.41,92.41,0,0,0,366,283.84c.06.07,0,.11,0,.13a.23.23,0,0,1-.19.13Z"/><path class="cls-7" d="M350.88,287.82c.09,0-5.22-6.89-7.5-15.37-2.45-8.29-1.86-18.18,5.93-19.74,11-1.81,5.92-19.64,13.61-18.84,7.32,1.28,5.23,4.74,11.56-3.8,6.76-8.39,13.5-4.59,23.34-7.78,10.28-2.78,12,10,.91,16.27-11,6.92,2.21,1.87.27,8.44-1.54,5.5-25.14,9.93-20.15,12.77,5,2.27,5.49,7.59.72,10.89C368.31,278,350.92,287.46,350.88,287.82Z"/><path class="cls-9" d="M349.44,294.4a.17.17,0,0,1,0-.16A90.29,90.29,0,0,1,363,258.11l.06-.1,0-.1a49,49,0,0,1-.28-12.6c.11-1.4.24-2.81.38-4.22a.14.14,0,0,1,.11-.14c.1,0,.23,0,.26.11a.14.14,0,0,1,0,.09c-.13,1.38-.27,2.75-.38,4.12a52.16,52.16,0,0,0,.13,11.66c0,.21.06.42.1.63l.37-.55a85.67,85.67,0,0,1,12.53-14.51l.13-.13-.05-.16a.11.11,0,0,1,0-.08A48.52,48.52,0,0,1,382,229.26a.2.2,0,0,1,.17-.1.22.22,0,0,1,.19.15.19.19,0,0,1,0,.12,48.19,48.19,0,0,0-5.36,11.78l-.24.84.66-.61a96.5,96.5,0,0,1,16.56-11.93c.07,0,.11,0,.12,0a.21.21,0,0,1,.1.16.2.2,0,0,1-.11.2,94.26,94.26,0,0,0-21.51,16.8l-.37.39.5.05a69.59,69.59,0,0,0,16.55-.51c.06,0,.1,0,.12.08a.29.29,0,0,1,0,.2.2.2,0,0,1-.13.08,69.08,69.08,0,0,1-17.16.47l-.15,0-.11.12a84.77,84.77,0,0,0-8.29,10.5l0,.07v.07a.18.18,0,0,1-.1.14l-.07,0,0,.06a82.94,82.94,0,0,0-5.84,10.49l-.3.65.63-.31a66.32,66.32,0,0,1,18.07-5.86.15.15,0,0,1,.18.1.17.17,0,0,1,0,.17.14.14,0,0,1-.1.07A66.39,66.39,0,0,0,356.91,270l-.09,0,0,.09a92.09,92.09,0,0,0-7,24.23c0,.09-.05.1-.07.11a.25.25,0,0,1-.23-.06Z"/><path class="cls-10" d="M329.63,300.54s60.49-46.23,79.52-42.24,7,24.08-5.21,23.35-1.41,19.24-16,16.85-14.83,2.81-23.55,1.12S329.63,300.54,329.63,300.54Z"/><rect class="cls-8" x="76.09" y="133.58" width="251.66" height="178.83" rx="7.96"/><rect class="cls-3" x="116.99" y="123.69" width="155.69" height="198.62" rx="1.48" transform="translate(417.83 28.16) rotate(90)"/><path class="cls-11" d="M292.66,145.15H97a1.48,1.48,0,0,0-1.48,1.48v4.24H285.8a1.49,1.49,0,0,1,1.48,1.49V300.84h5.38a1.49,1.49,0,0,0,1.49-1.48V146.63A1.49,1.49,0,0,0,292.66,145.15Z"/><path class="cls-6" d="M318.88,223a8.1,8.1,0,1,0-8.1,8.1A8.1,8.1,0,0,0,318.88,223Z"/><path class="cls-12" d="M97,300.84h106.9a144.92,144.92,0,0,1-18.64,11.57H84.05a8,8,0,0,1-8-8V141.54a8,8,0,0,1,8-8h170.4q2.1,5.68,3.72,11.57H97a1.48,1.48,0,0,0-1.48,1.49V299.36A1.48,1.48,0,0,0,97,300.84Z"/><path class="cls-6" d="M85.57,207.2h0a1.52,1.52,0,0,0-1.52,1.51v35.36a1.52,1.52,0,0,0,1.52,1.51h0a1.52,1.52,0,0,0,1.51-1.51V208.71A1.52,1.52,0,0,0,85.57,207.2Z"/><path class="cls-8" d="M131.06,256.36a6.32,6.32,0,0,1-.38-1.61C130.73,255,130.85,255.62,131.06,256.36Z"/><path class="cls-7" d="M299.86,118.18l.81-.56c-.26-1.49-1.56-3.72-6-6.35-8.26-4.87-16.39-13-16-17.32,0,0-3.9,11,1.9,15.52C286,113.72,296.83,111.48,299.86,118.18Z"/><path class="cls-10" d="M300.19,118l.48-.34c-.26-1.48-1.56-3.71-6-6.34-8.26-4.87-16.39-13-16-17.32,0,0-1.14,9.3,4.63,13.41S296.83,110.08,300.19,118Z"/><path class="cls-7" d="M298.41,112.58a22,22,0,0,1,1.58,4.33l.44-.23a35,35,0,0,0-5-17.29c-5.95-9.5-13.3-21.47-13.3-21.47S279,92.3,289.05,101A36.64,36.64,0,0,1,298.41,112.58Z"/><path class="cls-10" d="M289,94.2c5.26,7.69,10.21,16.81,10.94,21.41.1-.4.21-.83.33-1.27a34.42,34.42,0,0,0-4.86-15c-5.95-9.5-13.3-21.47-13.3-21.47S282.17,84.19,289,94.2Z"/><path class="cls-7" d="M302,115.5a18.73,18.73,0,0,1-3.53,2l.27.35A31.05,31.05,0,0,0,313,111c7.37-6.58,16.68-14.74,16.68-14.74s-13-.58-19,9.42A32,32,0,0,1,302,115.5Z"/><path class="cls-10" d="M316.56,104.63c-5.91,5.71-13.1,11.36-17,12.67l1.15.1A30.29,30.29,0,0,0,313,111c7.37-6.58,16.68-14.74,16.68-14.74S324.24,97.2,316.56,104.63Z"/><path class="cls-7" d="M300.78,118.8c.21,2.11.38,3.56.45,4.56h.42c.19-3.58.5-9.75.4-13.87-.16-6.08,1.7-8.56,2.87-18.78S303.36,66,303.36,66s-7.13,12.91-4.89,27.42S299.84,109.49,300.78,118.8Z"/><path class="cls-10" d="M301.26,123.36h.08l.38-1.38c.19-3.64.42-8.85.33-12.48-.16-6.08,1.7-8.56,2.87-18.78S303.36,66,303.36,66s-2.91,20.16-2.3,29.43C301.63,104,301.31,120.88,301.26,123.36Z"/><path class="cls-7" d="M316.14,77c-.35,2.33-7.05,16-11.18,25.1a27.48,27.48,0,0,0-1.83,16.42l.83,0c-.57-3.11-.76-2.63-.14-7.51.67-5.36,8.21-9.23,12.78-19.63S316.48,74.66,316.14,77Z"/><path class="cls-10" d="M316.39,76.54c.14,3.31.14,14.57-5.79,20.69-6.86,7.09-8.94,14.8-6.71,21.27H304c-.57-3.11-.76-2.63-.14-7.51.67-5.36,8.21-9.23,12.78-19.63C320.67,82.12,317.41,76.11,316.39,76.54Z"/><path class="cls-11" d="M288.55,117.52l2.37,14a2.71,2.71,0,0,0,2.67,2.26h13.7a2.71,2.71,0,0,0,2.67-2.26l2.37-14a2.07,2.07,0,0,0-2.05-2.42H290.6A2.07,2.07,0,0,0,288.55,117.52Z"/><path class="cls-13" d="M312.32,116.81h0a2.38,2.38,0,0,0-.11-.38v0a2.59,2.59,0,0,0-.17-.33l0,0a1.64,1.64,0,0,0-.2-.26.34.34,0,0,0-.09-.08,1.8,1.8,0,0,0-.2-.19l-.16-.09-.2-.11a1.84,1.84,0,0,0-.25-.09l-.16,0a2.14,2.14,0,0,0-.45-.05H290.6a2.07,2.07,0,0,0-2.07,2.13h17.59a2.83,2.83,0,0,1,0,.29l-2.37,14a2.72,2.72,0,0,1-2.68,2.26h6.24a2.71,2.71,0,0,0,2.67-2.26l2.37-14A2.11,2.11,0,0,0,312.32,116.81Z"/><path class="cls-6" d="M272.31,112.16V300.82H125.46V103.07a9.09,9.09,0,0,0,9.1,9.09Z"/><path class="cls-11" d="M256,93.76v16.88H134.55a7.58,7.58,0,0,1-7.57-7.57v-1.74a7.58,7.58,0,0,1,7.57-7.57Z"/><path class="cls-6" d="M136.46,99.36h125.8V97.83H136.46a3.93,3.93,0,0,0-3.92,3.92v.9a3.93,3.93,0,0,0,3.92,3.92h132.7v-1.52H136.46a2.4,2.4,0,0,1-2.39-2.4v-.9A2.39,2.39,0,0,1,136.46,99.36Z"/><path class="cls-6" d="M134.55,93.76H256V92.24H134.55a9.08,9.08,0,0,0-9.09,9.09v1.74a9.1,9.1,0,0,0,9.09,9.1H272.32v-1.53H134.55a7.58,7.58,0,0,1-7.57-7.57v-1.74A7.58,7.58,0,0,1,134.55,93.76Z"/><path class="cls-7" d="M269.17,106.57v4.07H134.55a7.44,7.44,0,0,1-2-.27v-7.72a3.93,3.93,0,0,0,3.92,3.92Z"/><rect class="cls-14" x="177.58" y="175.56" width="18.11" height="1.76"/><rect class="cls-14" x="177.58" y="180.32" width="18.11" height="1.76"/><rect class="cls-14" x="177.58" y="185.09" width="18.11" height="1.76"/><rect class="cls-14" x="177.58" y="189.85" width="18.11" height="1.76"/><rect class="cls-14" x="177.58" y="194.62" width="18.11" height="1.76"/><rect class="cls-14" x="177.58" y="199.39" width="18.11" height="1.76"/><rect class="cls-14" x="143.66" y="204.15" width="52.03" height="1.76"/><rect class="cls-14" x="143.66" y="208.92" width="52.03" height="1.76"/><rect class="cls-14" x="143.66" y="213.68" width="52.03" height="1.76"/><rect class="cls-14" x="143.66" y="218.45" width="52.03" height="1.76"/><rect class="cls-14" x="143.66" y="223.22" width="52.03" height="1.76"/><rect class="cls-14" x="230.28" y="262.05" width="25.27" height="1.71"/><rect class="cls-14" x="230.28" y="266.67" width="25.27" height="1.71"/><rect class="cls-14" x="230.28" y="271.29" width="25.27" height="1.71"/><rect class="cls-14" x="230.28" y="275.91" width="25.27" height="1.71"/><rect class="cls-14" x="230.28" y="280.53" width="25.27" height="1.71"/><rect class="cls-14" x="230.28" y="285" width="25.27" height="1.76"/><rect class="cls-14" x="230.28" y="289.77" width="25.27" height="1.76"/><rect class="cls-14" x="198.28" y="262.05" width="26.87" height="1.71"/><rect class="cls-14" x="198.28" y="266.67" width="26.87" height="1.71"/><rect class="cls-14" x="198.28" y="271.29" width="26.87" height="1.71"/><rect class="cls-14" x="198.28" y="275.91" width="26.87" height="1.71"/><rect class="cls-14" x="198.28" y="280.53" width="26.87" height="1.71"/><rect class="cls-14" x="198.28" y="285" width="26.87" height="1.76"/><rect class="cls-14" x="198.28" y="289.77" width="26.87" height="1.76"/><rect class="cls-14" x="230.05" y="204.15" width="25.5" height="1.76"/><rect class="cls-11" x="203.19" y="175.28" width="52.36" height="25.72"/><rect class="cls-7" x="143.66" y="229.98" width="111.89" height="25.72"/><rect class="cls-14" x="230.05" y="208.92" width="25.5" height="1.76"/><rect class="cls-11" x="203.6" y="204.13" width="21.85" height="20.85"/><rect class="cls-14" x="230.05" y="213.68" width="25.5" height="1.76"/><rect class="cls-14" x="230.05" y="218.45" width="25.5" height="1.76"/><rect class="cls-14" x="230.05" y="223.22" width="25.5" height="1.76"/><rect class="cls-7" x="143.66" y="175.56" width="30.64" height="25.36"/><polygon class="cls-11" points="143.66 261.01 191.83 261.37 191.83 291.65 143.66 291.29 143.66 261.01"/><rect class="cls-5" x="143.66" y="122.53" width="111.89" height="43.51"/><path class="cls-15" d="M262.26,99.36v5.51l-22.26.18H136.46a2.4,2.4,0,0,1-2.39-2.4v-.9a2.39,2.39,0,0,1,2.39-2.39Z"/><path class="cls-12" d="M137,252.47c-6.88-3.79-6.37,2.08-6.37,2.08.53,5.84,7.37,7.82,12.06,8.49l1-6.84C142.13,255.29,139.9,254.05,137,252.47Z"/><path class="cls-16" d="M162.25,255.89l-15,2.86a12.55,12.55,0,0,1-3.6-1.48l-.8,4.93c1.94.72,5.16,1.71,5.35,1.44l14.52-6.12a5.52,5.52,0,0,0,3.9-1.58Z"/><path class="cls-16" d="M129.51,253.37l12.91-23.79a2.5,2.5,0,0,1,1.17-1,5.25,5.25,0,0,1,5.07,1.17.39.39,0,0,1-.19.65l-3.59.68a1.66,1.66,0,0,0-1.28,1.12L135.91,256Z"/><polygon class="cls-12" points="135.91 256.02 139.26 245.63 134.13 242.82 127.91 252.74 135.91 256.02"/><polygon class="cls-17" points="126.26 276.92 127.32 295.33 118.25 320.71 121.87 320.74 138.52 295.59 137.25 277.66 126.26 276.92"/><path class="cls-8" d="M127.36,277.21s.7,2.53,4.17,8.46a95.06,95.06,0,0,0,8.08,11.43l1.23,23.59h3.74l3.87-24a3.16,3.16,0,0,0-.21-1.87l-8.5-19.36Z"/><path class="cls-18" d="M132.84,251.2a3.21,3.21,0,0,0-.54.42A2.06,2.06,0,0,1,132.84,251.2Z"/><path class="cls-12" d="M131.59,250.46a5.59,5.59,0,0,1,5.27,3c1.43,2.63,3.79,7.44,3.87,10.66l.35,14.5a17.46,17.46,0,0,1-16-1.16s3-8.48,1.64-16.94C125.71,254,128.26,250.73,131.59,250.46Z"/><path class="cls-8" d="M138,279.62a127.29,127.29,0,0,0-1.13-13.74,3.83,3.83,0,0,0-1.65-2.67c-2.38-1.67-3.6-4.79-4.17-6.8,1.38,3.7,5.69,5.44,9.5,6.24a8.79,8.79,0,0,1,.16,1.48l.35,14.5A15.15,15.15,0,0,1,138,279.62Z"/><path class="cls-19" d="M139.77,244l-.51,1.59L135,243.29l3.18-5.87C138.6,239.36,139.36,242.38,139.77,244Z"/><path class="cls-16" d="M136.61,245.18c-.29-1.84-.64-3.56-2.27-3.31s-3.83,2.48-3.54,4.32a3.39,3.39,0,0,0,.76,1.66H129.9v3.45h4.44V249h.08C136,248.72,136.9,247,136.61,245.18Z"/><path class="cls-17" d="M132.39,245.46s-.74-.89-1.22-.3-.72,1.47.67,2c0,0-.43,2.38-2.51,2.08a3.8,3.8,0,0,1-3.05-5.12c.89-2.8,1.66-4.91,4.81-4.78s5.42-.13,5.2-.93c0,0,1.42,3.73.12,4.2a9.26,9.26,0,0,1-2.76.47S133.31,245.36,132.39,245.46Z"/><path class="cls-19" d="M134.34,251.3V249l0,0a5.37,5.37,0,0,1-1.81-.18,5.1,5.1,0,0,0,1,.89c.17.07.19.8.16,1.6Z"/><path class="cls-17" d="M141,320.69v2.72h7.43a.43.43,0,0,0,.24-.78,11.83,11.83,0,0,0-4.45-1.94Z"/><path class="cls-17" d="M118.26,320.69v2.72h7.43a.43.43,0,0,0,.24-.78,11.83,11.83,0,0,0-4.45-1.94Z"/><path class="cls-17" d="M138,280.31l8.79,17-3.22,24.1h1l3.87-24a3.15,3.15,0,0,0-.21-1.87l-7.58-17.27Z"/><path class="cls-20" d="M127.1,278.51c2.17-3.83,2.44-13.5.83-17.57a10.25,10.25,0,0,1,1.56-9.82c-2.19,1.28-3.55,4.39-2.75,9.41,1.34,8.46-1.64,16.94-1.64,16.94A18.23,18.23,0,0,0,127.1,278.51Z"/><path class="cls-3" d="M292.14,244.37h73.51a0,0,0,0,1,0,0v48.41A19.63,19.63,0,0,1,346,312.41H311.78a19.63,19.63,0,0,1-19.63-19.63V244.37A0,0,0,0,1,292.14,244.37Z"/><path class="cls-6" d="M296.6,292.78V244.37h-4.46v48.41a19.63,19.63,0,0,0,19.64,19.63h4.45A19.63,19.63,0,0,1,296.6,292.78Z"/><path class="cls-11" d="M344.09,244.37v48.41a19.63,19.63,0,0,1-19.64,19.63H346a19.63,19.63,0,0,0,19.64-19.63V244.37Z"/><path class="cls-11" d="M365.63,244.34c0-3.27-16.45-5.92-36.74-5.92s-36.75,2.65-36.75,5.92,16.45,5.93,36.75,5.93S365.63,247.61,365.63,244.34Z"/><path class="cls-5" d="M328.89,248.89c-22.36,0-33.93-2.93-35.31-4.55,1.38-1.61,12.95-4.55,35.31-4.55s33.92,2.94,35.3,4.55C362.81,246,351.24,248.89,328.89,248.89Z"/><path class="cls-21" d="M323.55,241.27c13.78,0,25.31,2.69,28.38,6.31,7.42-1,11.48-2.32,12.26-3.24-1.38-1.61-12.95-4.55-35.3-4.55s-33.93,2.94-35.31,4.55c.4.46,1.61,1,3.66,1.6C301.94,243.18,312,241.27,323.55,241.27Z"/><path class="cls-3" d="M357.93,258.92h0a3.38,3.38,0,0,0,2.85,3.22,15,15,0,0,1,8,4.25,17,17,0,0,1-.11,22.67,15.1,15.1,0,0,1-8,4.17,3.4,3.4,0,0,0-2.89,3.2h0c0,2.11,2.21,3.69,4.57,3.26,11.4-2.05,17.95-11.06,18-21.91s-6.4-19.91-17.78-22.08C360.17,255.25,357.94,256.81,357.93,258.92Z"/><path class="cls-6" d="M358.12,296.91h0a3.46,3.46,0,0,1,2.89-3.28,14.91,14.91,0,0,0,8-4.26,17.75,17.75,0,0,0,.12-23.19,14.89,14.89,0,0,0-8-4.35,3.45,3.45,0,0,1-2.86-3.3,3.17,3.17,0,0,1,.65-1.85,3.07,3.07,0,0,0-1,2.24,3.38,3.38,0,0,0,2.85,3.22,15,15,0,0,1,8,4.25,17,17,0,0,1-.11,22.67,15.1,15.1,0,0,1-8,4.17,3.4,3.4,0,0,0-2.89,3.2h0a3.07,3.07,0,0,0,.85,2.1A3.13,3.13,0,0,1,358.12,296.91Z"/><path class="cls-11" d="M362.53,255.7a4.1,4.1,0,0,0-3.75,1.14,4.36,4.36,0,0,1,2-.09c11.38,2.08,17.84,10.76,17.78,21.13s-6.59,19-18,20.95a4.72,4.72,0,0,1-1.72,0,4.16,4.16,0,0,0,3.45.89c11.4-2.05,17.95-11.06,18-21.91S373.91,257.87,362.53,255.7Z"/><path class="cls-11" d="M76.28,105.08c6,0,6.33-8.94.33-9.33h-.17s0-.07,0-.11A11.58,11.58,0,0,0,59.32,85.48a12,12,0,0,0-22.6,5.68c0,.36,0,.71.05,1.06a14.14,14.14,0,0,0-3.87-.55,14,14,0,0,0-11.62,6.19,4.67,4.67,0,0,0,3.91,7.22Z"/><path class="cls-11" d="M151,46.42c5.92,0,6.23-8.81.33-9.19h-.17v-.11a11.4,11.4,0,0,0-16.87-10A11.84,11.84,0,0,0,112,32.71c0,.35,0,.7.05,1a13.78,13.78,0,0,0-15.26,5.56,4.6,4.6,0,0,0,3.86,7.11Z"/><path class="cls-11" d="M364.9,106.11c-5.32,0-5.6-7.93-.29-8.27h.15v-.09a10.26,10.26,0,0,1,15.19-9,10.65,10.65,0,0,1,20,5c0,.32,0,.63,0,.94a12.15,12.15,0,0,1,3.43-.49,12.4,12.4,0,0,1,10.3,5.49,4.13,4.13,0,0,1-3.47,6.4Z"/><path class="cls-11" d="M311.49,40.23c-6.32,0-6.65-9.41-.35-9.81h.18v-.12a12.18,12.18,0,0,1,18-10.68,12.65,12.65,0,0,1,23.79,6c0,.38,0,.75-.05,1.11a14.75,14.75,0,0,1,16.3,5.95,4.9,4.9,0,0,1-4.12,7.59Z"/><circle class="cls-5" cx="374.24" cy="30.81" r="30.81"/><path class="cls-22" d="M377.06.13A26.24,26.24,0,1,1,345.16,41,30.81,30.81,0,1,0,377.06.13Z"/><path class="cls-16" d="M302.35,292.73l-2.43,3.47-11.16-5.43h0s-.21-2-.76-2c-.28,0-.43.31-.51.65-.55-.53-1.14-1-1.47-1-.74,0,1.12,3,1.41,3.54.56,1.05,7.68,6,15.65,9.5l3.18-6Z"/><path class="cls-17" d="M288.06,289.1l-1.61-6.74A.46.46,0,0,0,286,282l-.74.11a.35.35,0,0,0-.31.43l1.61,6.74a.4.4,0,0,0,.44.35l.74-.11A.4.4,0,0,0,288.06,289.1Z"/><path class="cls-17" d="M287.73,296.32c-2.43.21-24.25,21-24.25,21l5-.07,19-11.2s12.94,10.33,24,10.51c4.79.08,5-5.8,5-5.8S293.65,295.8,287.73,296.32Z"/><path class="cls-23" d="M316.33,311.64s-1.27,6.93-8.3,7.93l-55.17-.28.23-4.44,47.78-5.45Z"/><path class="cls-8" d="M307.9,285.8A6.4,6.4,0,0,0,304,288c-.79,1.05-3.28,5.89-3.28,5.89l5.48,3.3Z"/><path class="cls-17" d="M306.75,278.41s-1.9-.28-2.38-1.68c-.6-1.75.36-4.06,1.47-4,0,0,1.9.2,4.31.72.91.19,1.73-.48,2.44-.41,1.83.2,6.29,5,.64,10.17l-4.17-3Z"/><path class="cls-16" d="M314,278.77a.73.73,0,0,0-1-.09l0,0a6.24,6.24,0,0,1-2.62-1.82c-.68.9-3.67,1.53-3.67,1.53v2a3.26,3.26,0,0,0,2.91,3.31l0,2.59,3.77-1.16v-3.94A2,2,0,0,0,314,278.77Z"/><path class="cls-19" d="M310.69,284.21a20.25,20.25,0,0,0,1.57-2,6.92,6.92,0,0,1-2.62,1.57l0,2.56,1-.3A4.66,4.66,0,0,1,310.69,284.21Z"/><path class="cls-16" d="M331.82,320.18a223,223,0,0,1-8-22.11,25.41,25.41,0,0,1-4.25,2.54l9.75,19.25s.77,2,1.93,2,4.09.65,4.11.4C335.38,321.75,331.82,320.18,331.82,320.18Z"/><path class="cls-12" d="M320.18,287.55c-1.58-1.31-5.36-2.15-6.7-2.41a2.76,2.76,0,0,0-1,0l-4.66.68c-4.3,2.52-2.93,5.74-4.46,11.37s-4,11.76-4,11.76c3.56,2.88,16.08,4.81,16.08,4.81,2-2.09,2.09-9.84,2.22-14.69l1.71,1.86s5.69-2.91,5.63-3.11C324.27,295.09,320.18,287.55,320.18,287.55Z"/><path class="cls-17" d="M252.84,319.29l-2.21-.21a1,1,0,0,1-.9-1.09l.73-7.75a.5.5,0,0,1,.94-.2,13.91,13.91,0,0,1,1.8,5.46Z"/><path class="cls-20" d="M311.21,312.93c2.47.51,4.31.8,4.31.8,2-2.09,2.09-9.84,2.22-14.69L316,295.56S315.74,307.28,311.21,312.93Z"/><path class="cls-17" d="M315.76,313.43a9.68,9.68,0,0,1-7.73,6.14l-55.17-.28,0-.27c9.39-.26,45.35-1.28,50.91-1.45,6.38-.21,7.42-4.64,7.42-4.64h0c2.46.52,4.3.8,4.3.8A3.5,3.5,0,0,0,315.76,313.43Z"/><path class="cls-8" d="M129.14,77.94a5.34,5.34,0,0,0-2.28,2c-.64,1.23-.48,12.59-3.73,13.22s-9.53,1.31-9.53,1.31l.2,2.36,16.9-2.28Z"/><path class="cls-23" d="M126.73,95l9.71,9.15s-4.54,4.71-15.09,2.27L110.26,105,94.65,123.6l-3.08-1.26,13.54-23.12a3.38,3.38,0,0,1,2.5-1.61Z"/><path class="cls-12" d="M132.45,76c1.65,1.17,12.09,9.39,5.4,27.93l-11.53-9s2.13-5.56,1.61-10.09c-.91-7.8,3.38-8.59,4.07-8.86A.48.48,0,0,1,132.45,76Z"/><path class="cls-17" d="M126.54,95.09l11.16,8.51s-2.21,3.81-13,4.6l-10.93,1.33-9.53,22.2-3.38-.16,6.28-26.06a3.31,3.31,0,0,1,1.9-2.28Z"/><path class="cls-17" d="M117.12,83.47l-2.6-5.56a.41.41,0,0,0-.48-.21l-.63.23a.31.31,0,0,0-.18.43l2.6,5.55a.36.36,0,0,0,.45.22l.62-.22A.35.35,0,0,0,117.12,83.47Z"/><path class="cls-16" d="M113.65,94.88s-3.69.51-3.36,2.36l3.51-.45Z"/><path class="cls-16" d="M118.08,84.59s-.58-1.46-1.07-1.41c-.25,0-.31.34-.32.65a3,3,0,0,0-1.46-.62c-.64.14,1.51,2.39,1.86,2.82a4.53,4.53,0,0,0,.87.64l.88-1.68Z"/><path class="cls-12" d="M134.16,78.35a3.16,3.16,0,0,0-4,2.36l-1.43,6.78-9.77-3-1,2.45a52.54,52.54,0,0,0,15,6.15l3.29-10.76A3.14,3.14,0,0,0,134.16,78.35Z"/><path class="cls-8" d="M137.73,81.46s-3,14.4-3.7,14.85-7.19-5.06-7.19-5.06a44,44,0,0,0,6.08,1.82L136,83Z"/><path class="cls-17" d="M104.19,131.58v2.7H96.84a.42.42,0,0,1-.23-.78,11.67,11.67,0,0,1,4.39-1.92Z"/><path class="cls-17" d="M94.66,123.58l-1.22,2.49-6.6-2.67a.43.43,0,0,1,.06-.81,11.37,11.37,0,0,1,4.73-.23Z"/><path class="cls-24" d="M112,108.47l-8.61,23.22.82,0,9.53-22.2,10.93-1.33c10.79-.79,13-4.6,13-4.6L135.54,102C130.08,106.06,112,108.47,112,108.47Z"/><path class="cls-20" d="M137.88,82.63c1.11,4.57,1.93,9.61,1,13.52a14.29,14.29,0,0,1-3.31,5.8l2.31,2C141.41,94.09,140.12,87.15,137.88,82.63Z"/><path class="cls-16" d="M123.88,69.56a4.05,4.05,0,0,1,5.47-1.49,3.93,3.93,0,0,1,1.74,5.29,4.23,4.23,0,0,1-.33.53l.82,2.5-3.33,2.13-.2-2.81a3,3,0,0,1-2.76-.21C123.34,74.49,122.89,71.47,123.88,69.56Z"/><path class="cls-25" d="M128.59,71.23s1.15-.51,1.33.53-.69,1.89.49,3.56,1.3,1.12.24,4.61,1.61,6.55,6.75,5.92,5.78-6.49,1.75-10.78-4.93-6.09-7.07-8.2-8.3-2.64-8.93,3.42a9.79,9.79,0,0,0,3.77.16V72a.26.26,0,0,0,.43.21Z"/><path class="cls-19" d="M128.83,76.31c0-.39.84-2,.64-1.78a15.5,15.5,0,0,1-1.42,1.18l.2,2.81.87-.56C129,77.2,128.83,76.48,128.83,76.31Z"/><text class="cls-26" transform="translate(147.8 155.72)">Articles </text></g></g></g></svg>